<?xml version="1.0" encoding="utf-8"?>
<!-- Generator: Adobe Illustrator 28.1.0, SVG Export Plug-In . SVG Version: 6.00 Build 0)  -->
<svg version="1.1" id="Layer_1" xmlns="http://www.w3.org/2000/svg" xmlns:xlink="http://www.w3.org/1999/xlink" x="0px" y="0px"
	 viewBox="0 0 158 96.1" style="enable-background:new 0 0 158 96.1;" xml:space="preserve">
<style type="text/css">
	.st0{fill:none;stroke:#15FF9D;}
	.st1{fill:none;stroke:#15FF9D;stroke-width:1.6;stroke-linecap:square;}
	.st2{fill:#15FF9D;}
	.st3{fill:#15FF9D;stroke:#15FF9D;stroke-miterlimit:10;}
	.st4{fill:none;stroke:#000000;stroke-width:1.6;stroke-linecap:square;}
</style>
<g>
	<path class="st0" d="M24,0.5h110c13,0,23.5,10.5,23.5,23.5l0,0c0,13-10.5,23.5-23.5,23.5H24C11,47.5,0.5,37,0.5,24l0,0
		C0.5,11,11,0.5,24,0.5z"/>
	<path class="st1" d="M36.9,30l6.1-6 M36.9,18l6.1,6 M43,24H29"/>
	<path class="st2" d="M59.6,29.5V18.6h3.7c0.9,0,1.6,0.1,2.1,0.4c0.5,0.3,1,0.7,1.2,1.2c0.3,0.5,0.4,1.1,0.4,1.7
		c0,0.6-0.1,1.2-0.4,1.7c-0.3,0.5-0.7,0.9-1.2,1.2c-0.5,0.3-1.2,0.4-2.1,0.4h-3V24h2.9c0.6,0,1.1-0.1,1.4-0.3
		c0.4-0.2,0.6-0.4,0.8-0.7c0.2-0.3,0.2-0.7,0.2-1.1s-0.1-0.8-0.2-1.1c-0.2-0.3-0.4-0.6-0.8-0.8c-0.4-0.2-0.8-0.3-1.4-0.3H61v9.7
		H59.6z M64.8,24.6l2.7,4.9h-1.5l-2.6-4.9H64.8z M72.2,29.7c-0.8,0-1.5-0.2-2-0.5c-0.6-0.4-1-0.8-1.3-1.5c-0.3-0.6-0.5-1.4-0.5-2.2
		s0.2-1.6,0.5-2.2c0.3-0.6,0.7-1.1,1.3-1.5c0.6-0.4,1.2-0.5,1.9-0.5c0.4,0,0.8,0.1,1.3,0.2c0.4,0.1,0.8,0.4,1.1,0.7
		c0.3,0.3,0.6,0.7,0.8,1.3c0.2,0.5,0.3,1.2,0.3,1.9v0.5h-6.3v-1.1h5c0-0.5-0.1-0.9-0.3-1.2c-0.2-0.4-0.4-0.6-0.8-0.9
		c-0.3-0.2-0.7-0.3-1.2-0.3c-0.5,0-0.9,0.1-1.3,0.4c-0.4,0.2-0.6,0.6-0.8,1c-0.2,0.4-0.3,0.8-0.3,1.3v0.7c0,0.6,0.1,1.1,0.3,1.6
		c0.2,0.4,0.5,0.8,0.9,1c0.4,0.2,0.8,0.3,1.3,0.3c0.3,0,0.6,0,0.9-0.1c0.3-0.1,0.5-0.2,0.7-0.4c0.2-0.2,0.3-0.4,0.5-0.7l1.2,0.3
		c-0.1,0.4-0.3,0.8-0.6,1.1c-0.3,0.3-0.7,0.6-1.1,0.7C73.3,29.6,72.8,29.7,72.2,29.7z M79.8,29.7c-0.5,0-1-0.1-1.4-0.3
		c-0.4-0.2-0.8-0.5-1-0.9c-0.2-0.4-0.4-0.8-0.4-1.4c0-0.5,0.1-0.8,0.3-1.1c0.2-0.3,0.4-0.5,0.7-0.7c0.3-0.2,0.6-0.3,1-0.4
		c0.4-0.1,0.8-0.2,1.1-0.2c0.5-0.1,0.9-0.1,1.2-0.1c0.3,0,0.5-0.1,0.7-0.2c0.1-0.1,0.2-0.2,0.2-0.4v0c0-0.5-0.1-0.9-0.4-1.2
		c-0.3-0.3-0.7-0.4-1.3-0.4c-0.6,0-1.1,0.1-1.4,0.4c-0.3,0.3-0.6,0.5-0.7,0.8l-1.2-0.4c0.2-0.5,0.5-0.9,0.9-1.2
		c0.4-0.3,0.7-0.5,1.2-0.6c0.4-0.1,0.8-0.2,1.3-0.2c0.3,0,0.6,0,0.9,0.1c0.3,0.1,0.7,0.2,1,0.4c0.3,0.2,0.6,0.5,0.8,0.9
		c0.2,0.4,0.3,0.9,0.3,1.6v5.4h-1.3v-1.1h-0.1c-0.1,0.2-0.2,0.4-0.4,0.6c-0.2,0.2-0.5,0.4-0.8,0.5C80.7,29.6,80.3,29.7,79.8,29.7z
		 M80,28.6c0.5,0,0.9-0.1,1.3-0.3c0.3-0.2,0.6-0.4,0.8-0.8c0.2-0.3,0.3-0.6,0.3-1v-1.2c-0.1,0.1-0.2,0.1-0.4,0.2
		c-0.2,0-0.4,0.1-0.6,0.1c-0.2,0-0.5,0.1-0.7,0.1c-0.2,0-0.4,0-0.5,0.1c-0.3,0-0.6,0.1-0.9,0.2c-0.3,0.1-0.5,0.2-0.7,0.4
		c-0.2,0.2-0.3,0.4-0.3,0.8c0,0.4,0.2,0.8,0.5,1C79.1,28.5,79.5,28.6,80,28.6z M88.8,29.7c-0.7,0-1.3-0.2-1.8-0.5
		c-0.5-0.3-0.9-0.8-1.2-1.5c-0.3-0.6-0.4-1.4-0.4-2.3c0-0.9,0.1-1.6,0.4-2.2c0.3-0.6,0.7-1.1,1.2-1.5c0.5-0.3,1.1-0.5,1.8-0.5
		c0.5,0,1,0.1,1.3,0.3c0.3,0.2,0.6,0.4,0.7,0.6c0.2,0.2,0.3,0.4,0.4,0.5h0.1v-4h1.3v10.9h-1.2v-1.3h-0.1c-0.1,0.1-0.2,0.3-0.4,0.6
		c-0.2,0.2-0.4,0.4-0.7,0.6C89.7,29.6,89.3,29.7,88.8,29.7z M89,28.5c0.5,0,0.9-0.1,1.3-0.4c0.3-0.3,0.6-0.6,0.8-1.1
		c0.2-0.5,0.3-1,0.3-1.6c0-0.6-0.1-1.1-0.3-1.6c-0.2-0.5-0.4-0.8-0.8-1.1c-0.3-0.3-0.8-0.4-1.3-0.4c-0.5,0-1,0.1-1.3,0.4
		c-0.4,0.3-0.6,0.6-0.8,1.1c-0.2,0.5-0.3,1-0.3,1.6c0,0.6,0.1,1.1,0.3,1.6c0.2,0.5,0.4,0.8,0.8,1.1C88,28.4,88.4,28.5,89,28.5z
		 M99.1,18.6h1.6l3.7,9.1h0.1l3.7-9.1h1.6v10.9h-1.2v-8.3h-0.1l-3.4,8.3h-1.2l-3.4-8.3h-0.1v8.3h-1.2V18.6z M115.5,29.7
		c-0.7,0-1.4-0.2-1.9-0.5c-0.6-0.4-1-0.8-1.3-1.5c-0.3-0.6-0.5-1.4-0.5-2.2c0-0.9,0.2-1.6,0.5-2.2c0.3-0.6,0.7-1.1,1.3-1.5
		c0.6-0.4,1.2-0.5,1.9-0.5c0.7,0,1.4,0.2,1.9,0.5c0.6,0.4,1,0.8,1.3,1.5c0.3,0.6,0.5,1.4,0.5,2.2c0,0.8-0.2,1.6-0.5,2.2
		c-0.3,0.6-0.7,1.1-1.3,1.5C116.8,29.5,116.2,29.7,115.5,29.7z M115.5,28.5c0.6,0,1-0.1,1.4-0.4c0.4-0.3,0.6-0.7,0.8-1.1
		c0.2-0.5,0.3-1,0.3-1.5s-0.1-1.1-0.3-1.5c-0.2-0.5-0.4-0.9-0.8-1.1c-0.4-0.3-0.8-0.4-1.4-0.4c-0.6,0-1,0.1-1.4,0.4
		c-0.4,0.3-0.6,0.7-0.8,1.1c-0.2,0.5-0.3,1-0.3,1.5s0.1,1.1,0.3,1.5c0.2,0.5,0.4,0.8,0.8,1.1C114.4,28.4,114.9,28.5,115.5,28.5z
		 M120.9,29.5v-8.2h1.2v1.2h0.1c0.1-0.4,0.4-0.7,0.8-1c0.4-0.3,0.8-0.4,1.3-0.4c0.1,0,0.2,0,0.3,0c0.1,0,0.2,0,0.3,0v1.3
		c0,0-0.1,0-0.3,0c-0.1,0-0.3,0-0.5,0c-0.4,0-0.8,0.1-1.1,0.3c-0.3,0.2-0.6,0.4-0.7,0.7c-0.2,0.3-0.3,0.6-0.3,1v5.2H120.9z
		 M129.5,29.7c-0.8,0-1.5-0.2-2-0.5c-0.6-0.4-1-0.8-1.3-1.5c-0.3-0.6-0.5-1.4-0.5-2.2s0.2-1.6,0.5-2.2c0.3-0.6,0.7-1.1,1.3-1.5
		c0.6-0.4,1.2-0.5,1.9-0.5c0.4,0,0.8,0.1,1.3,0.2c0.4,0.1,0.8,0.4,1.1,0.7c0.3,0.3,0.6,0.7,0.8,1.3c0.2,0.5,0.3,1.2,0.3,1.9v0.5
		h-6.3v-1.1h5c0-0.5-0.1-0.9-0.3-1.2c-0.2-0.4-0.4-0.6-0.8-0.9c-0.3-0.2-0.7-0.3-1.2-0.3c-0.5,0-0.9,0.1-1.3,0.4
		c-0.4,0.2-0.6,0.6-0.8,1c-0.2,0.4-0.3,0.8-0.3,1.3v0.7c0,0.6,0.1,1.1,0.3,1.6c0.2,0.4,0.5,0.8,0.9,1c0.4,0.2,0.8,0.3,1.3,0.3
		c0.3,0,0.6,0,0.9-0.1c0.3-0.1,0.5-0.2,0.7-0.4c0.2-0.2,0.3-0.4,0.5-0.7l1.2,0.3c-0.1,0.4-0.3,0.8-0.6,1.1c-0.3,0.3-0.7,0.6-1.1,0.7
		C130.6,29.6,130.1,29.7,129.5,29.7z"/>
</g>
<g>
	<path class="st3" d="M24,48.6h110c13,0,23.5,10.5,23.5,23.5l0,0c0,13-10.5,23.5-23.5,23.5H24c-13,0-23.5-10.5-23.5-23.5l0,0
		C0.5,59.1,11,48.6,24,48.6z"/>
	<path class="st4" d="M36.9,78.1l6.1-6 M36.9,66.1l6.1,6 M43,72.1H29"/>
	<path d="M59.6,77.6V66.7h3.7c0.9,0,1.6,0.1,2.1,0.4c0.5,0.3,1,0.7,1.2,1.2c0.3,0.5,0.4,1.1,0.4,1.7c0,0.6-0.1,1.2-0.4,1.7
		c-0.3,0.5-0.7,0.9-1.2,1.2c-0.5,0.3-1.2,0.4-2.1,0.4h-3v-1.2h2.9c0.6,0,1.1-0.1,1.4-0.3c0.4-0.2,0.6-0.4,0.8-0.7
		c0.2-0.3,0.2-0.7,0.2-1.1c0-0.4-0.1-0.8-0.2-1.1c-0.2-0.3-0.4-0.6-0.8-0.8c-0.4-0.2-0.8-0.3-1.4-0.3H61v9.7H59.6z M64.8,72.7
		l2.7,4.9h-1.5l-2.6-4.9H64.8z M72.2,77.8c-0.8,0-1.5-0.2-2-0.5c-0.6-0.4-1-0.8-1.3-1.5c-0.3-0.6-0.5-1.4-0.5-2.2
		c0-0.8,0.2-1.6,0.5-2.2c0.3-0.6,0.7-1.1,1.3-1.5c0.6-0.4,1.2-0.5,1.9-0.5c0.4,0,0.8,0.1,1.3,0.2c0.4,0.1,0.8,0.4,1.1,0.7
		c0.3,0.3,0.6,0.7,0.8,1.3c0.2,0.5,0.3,1.2,0.3,1.9v0.5h-6.3v-1.1h5c0-0.5-0.1-0.9-0.3-1.2c-0.2-0.4-0.4-0.6-0.8-0.9
		c-0.3-0.2-0.7-0.3-1.2-0.3c-0.5,0-0.9,0.1-1.3,0.4c-0.4,0.2-0.6,0.6-0.8,1c-0.2,0.4-0.3,0.8-0.3,1.3v0.7c0,0.6,0.1,1.1,0.3,1.6
		c0.2,0.4,0.5,0.8,0.9,1c0.4,0.2,0.8,0.3,1.3,0.3c0.3,0,0.6,0,0.9-0.1c0.3-0.1,0.5-0.2,0.7-0.4c0.2-0.2,0.3-0.4,0.5-0.7l1.2,0.3
		c-0.1,0.4-0.3,0.8-0.6,1.1c-0.3,0.3-0.7,0.6-1.1,0.7C73.3,77.7,72.8,77.8,72.2,77.8z M79.8,77.8c-0.5,0-1-0.1-1.4-0.3
		c-0.4-0.2-0.8-0.5-1-0.9c-0.2-0.4-0.4-0.8-0.4-1.4c0-0.5,0.1-0.8,0.3-1.1c0.2-0.3,0.4-0.5,0.7-0.7c0.3-0.2,0.6-0.3,1-0.4
		c0.4-0.1,0.8-0.2,1.1-0.2c0.5-0.1,0.9-0.1,1.2-0.1c0.3,0,0.5-0.1,0.7-0.2c0.1-0.1,0.2-0.2,0.2-0.4v0c0-0.5-0.1-0.9-0.4-1.2
		c-0.3-0.3-0.7-0.4-1.3-0.4c-0.6,0-1.1,0.1-1.4,0.4c-0.3,0.3-0.6,0.5-0.7,0.8l-1.2-0.4c0.2-0.5,0.5-0.9,0.9-1.2
		c0.4-0.3,0.7-0.5,1.2-0.6c0.4-0.1,0.8-0.2,1.3-0.2c0.3,0,0.6,0,0.9,0.1c0.3,0.1,0.7,0.2,1,0.4c0.3,0.2,0.6,0.5,0.8,0.9
		c0.2,0.4,0.3,0.9,0.3,1.6v5.4h-1.3v-1.1h-0.1c-0.1,0.2-0.2,0.4-0.4,0.6c-0.2,0.2-0.5,0.4-0.8,0.5C80.7,77.7,80.3,77.8,79.8,77.8z
		 M80,76.7c0.5,0,0.9-0.1,1.3-0.3c0.3-0.2,0.6-0.4,0.8-0.8c0.2-0.3,0.3-0.6,0.3-1v-1.2c-0.1,0.1-0.2,0.1-0.4,0.2
		c-0.2,0-0.4,0.1-0.6,0.1c-0.2,0-0.5,0.1-0.7,0.1c-0.2,0-0.4,0-0.5,0.1c-0.3,0-0.6,0.1-0.9,0.2c-0.3,0.1-0.5,0.2-0.7,0.4
		c-0.2,0.2-0.3,0.4-0.3,0.8c0,0.4,0.2,0.8,0.5,1C79.1,76.6,79.5,76.7,80,76.7z M88.8,77.8c-0.7,0-1.3-0.2-1.8-0.5
		c-0.5-0.3-0.9-0.8-1.2-1.5c-0.3-0.6-0.4-1.4-0.4-2.3c0-0.9,0.1-1.6,0.4-2.2s0.7-1.1,1.2-1.5c0.5-0.3,1.1-0.5,1.8-0.5
		c0.5,0,1,0.1,1.3,0.3c0.3,0.2,0.6,0.4,0.7,0.6c0.2,0.2,0.3,0.4,0.4,0.5h0.1v-4h1.3v10.9h-1.2v-1.3h-0.1c-0.1,0.1-0.2,0.3-0.4,0.6
		c-0.2,0.2-0.4,0.4-0.7,0.6C89.7,77.7,89.3,77.8,88.8,77.8z M89,76.7c0.5,0,0.9-0.1,1.3-0.4c0.3-0.3,0.6-0.6,0.8-1.1
		c0.2-0.5,0.3-1,0.3-1.6c0-0.6-0.1-1.1-0.3-1.6c-0.2-0.5-0.4-0.8-0.8-1.1c-0.3-0.3-0.8-0.4-1.3-0.4c-0.5,0-1,0.1-1.3,0.4
		c-0.4,0.3-0.6,0.6-0.8,1.1c-0.2,0.5-0.3,1-0.3,1.6c0,0.6,0.1,1.1,0.3,1.6c0.2,0.5,0.4,0.8,0.8,1.1C88,76.5,88.4,76.7,89,76.7z
		 M99.1,66.7h1.6l3.7,9.1h0.1l3.7-9.1h1.6v10.9h-1.2v-8.3h-0.1l-3.4,8.3h-1.2l-3.4-8.3h-0.1v8.3h-1.2V66.7z M115.5,77.8
		c-0.7,0-1.4-0.2-1.9-0.5c-0.6-0.4-1-0.8-1.3-1.5c-0.3-0.6-0.5-1.4-0.5-2.2c0-0.9,0.2-1.6,0.5-2.2c0.3-0.6,0.7-1.1,1.3-1.5
		c0.6-0.4,1.2-0.5,1.9-0.5c0.7,0,1.4,0.2,1.9,0.5c0.6,0.4,1,0.8,1.3,1.5c0.3,0.6,0.5,1.4,0.5,2.2c0,0.8-0.2,1.6-0.5,2.2
		c-0.3,0.6-0.7,1.1-1.3,1.5C116.8,77.6,116.2,77.8,115.5,77.8z M115.5,76.7c0.6,0,1-0.1,1.4-0.4c0.4-0.3,0.6-0.7,0.8-1.1
		c0.2-0.5,0.3-1,0.3-1.5s-0.1-1.1-0.3-1.5c-0.2-0.5-0.4-0.9-0.8-1.1c-0.4-0.3-0.8-0.4-1.4-0.4c-0.6,0-1,0.1-1.4,0.4
		c-0.4,0.3-0.6,0.7-0.8,1.1c-0.2,0.5-0.3,1-0.3,1.5s0.1,1.1,0.3,1.5c0.2,0.5,0.4,0.8,0.8,1.1C114.4,76.5,114.9,76.7,115.5,76.7z
		 M120.9,77.6v-8.2h1.2v1.2h0.1c0.1-0.4,0.4-0.7,0.8-1c0.4-0.3,0.8-0.4,1.3-0.4c0.1,0,0.2,0,0.3,0c0.1,0,0.2,0,0.3,0v1.3
		c0,0-0.1,0-0.3,0c-0.1,0-0.3,0-0.5,0c-0.4,0-0.8,0.1-1.1,0.3c-0.3,0.2-0.6,0.4-0.7,0.7c-0.2,0.3-0.3,0.6-0.3,1v5.2H120.9z
		 M129.5,77.8c-0.8,0-1.5-0.2-2-0.5c-0.6-0.4-1-0.8-1.3-1.5c-0.3-0.6-0.5-1.4-0.5-2.2c0-0.8,0.2-1.6,0.5-2.2
		c0.3-0.6,0.7-1.1,1.3-1.5c0.6-0.4,1.2-0.5,1.9-0.5c0.4,0,0.8,0.1,1.3,0.2c0.4,0.1,0.8,0.4,1.1,0.7c0.3,0.3,0.6,0.7,0.8,1.3
		c0.2,0.5,0.3,1.2,0.3,1.9v0.5h-6.3v-1.1h5c0-0.5-0.1-0.9-0.3-1.2c-0.2-0.4-0.4-0.6-0.8-0.9c-0.3-0.2-0.7-0.3-1.2-0.3
		c-0.5,0-0.9,0.1-1.3,0.4c-0.4,0.2-0.6,0.6-0.8,1c-0.2,0.4-0.3,0.8-0.3,1.3v0.7c0,0.6,0.1,1.1,0.3,1.6c0.2,0.4,0.5,0.8,0.9,1
		c0.4,0.2,0.8,0.3,1.3,0.3c0.3,0,0.6,0,0.9-0.1c0.3-0.1,0.5-0.2,0.7-0.4c0.2-0.2,0.3-0.4,0.5-0.7l1.2,0.3c-0.1,0.4-0.3,0.8-0.6,1.1
		c-0.3,0.3-0.7,0.6-1.1,0.7C130.6,77.7,130.1,77.8,129.5,77.8z"/>
</g>
</svg>
