<?xml version="1.0" encoding="utf-8"?>
<!-- Generator: Adobe Illustrator 28.1.0, SVG Export Plug-In . SVG Version: 6.00 Build 0)  -->
<svg version="1.1" id="Layer_1" xmlns="http://www.w3.org/2000/svg" xmlns:xlink="http://www.w3.org/1999/xlink" x="0px" y="0px"
	 viewBox="0 0 64 79.6" style="enable-background:new 0 0 64 79.6;" xml:space="preserve">
<style type="text/css">
	.st0{fill:#C8CBCA;}
	.st1{fill:#63EA71;}
</style>
<g>
	<path d="M20,0h24c11,0,20,9,20,20l0,0c0,11-9,20-20,20H20C9,40,0,31,0,20l0,0C0,9,9,0,20,0z"/>
	<path class="st0" d="M39.5,12.2l-16.8,6.9c-0.7,0.3-0.9,1-0.2,1.3l4.3,1.5L37.2,15c0.6-0.4,1.2-0.3,0.7,0.2l-9,8.7l-0.3,3.7
		c0.3,0.6,0.7,0.6,1,0.3l2.5-2.5l4.2,3.4c1,0.6,1.5,0.2,1.7-0.9l2.8-14.1C41.2,12.3,40.7,11.7,39.5,12.2z"/>
</g>
<g>
	<path d="M20,39.6h24c11,0,20,9,20,20l0,0c0,11-9,20-20,20H20c-11,0-20-9-20-20l0,0C0,48.5,9,39.6,20,39.6z"/>
	<path class="st1" d="M39.5,51.8l-16.8,6.9c-0.7,0.3-0.9,1-0.2,1.3l4.3,1.5l10.4-6.9c0.6-0.4,1.2-0.3,0.7,0.2l-9,8.7l-0.3,3.7
		c0.3,0.6,0.7,0.6,1,0.3l2.5-2.5l4.2,3.4c1,0.6,1.5,0.2,1.7-0.9l2.8-14.1C41.2,51.8,40.7,51.2,39.5,51.8z"/>
</g>
</svg>
