<svg width="41" height="41" viewBox="0 0 41 41" fill="none" xmlns="http://www.w3.org/2000/svg">
<path d="M36.6903 5.63121C36.6499 5.44339 36.5562 5.27121 36.4203 5.13538C36.2844 4.99954 36.1122 4.90583 35.9243 4.8655C33.9028 4.43243 32.3214 4.43243 30.7456 4.43243C24.2666 4.43243 20.3804 7.89695 17.4806 12.4661H10.9388C10.3802 12.4666 9.8326 12.6223 9.35733 12.9159C8.88206 13.2095 8.49778 13.6294 8.24742 14.1287L5.1448 20.3297C5.03022 20.5594 4.97626 20.8146 4.98804 21.071C4.99982 21.3274 5.07695 21.5766 5.21211 21.7948C5.34727 22.0131 5.53598 22.1932 5.76032 22.318C5.98466 22.4429 6.23719 22.5083 6.49396 22.5082H13.0087L11.598 23.9185C11.2214 24.2951 11.0098 24.8059 11.0098 25.3385C11.0098 25.8711 11.2214 26.3819 11.598 26.7585L14.7936 29.9538C14.9801 30.1403 15.2016 30.2883 15.4454 30.3893C15.6892 30.4902 15.9504 30.5422 16.2143 30.5422C16.4782 30.5422 16.7394 30.4902 16.9832 30.3893C17.227 30.2883 17.4485 30.1403 17.635 29.9538L19.0457 28.5435V35.0608C19.0456 35.3174 19.1111 35.5698 19.236 35.794C19.3608 36.0182 19.5409 36.2068 19.7591 36.3419C19.9774 36.477 20.2265 36.5541 20.4829 36.566C20.7393 36.5778 20.9945 36.524 21.2242 36.4096L27.4207 33.3097C27.9209 33.0599 28.3416 32.6756 28.6355 32.2C28.9294 31.7243 29.0848 31.1762 29.0844 30.6172V24.0641C33.6416 21.1582 37.1203 17.2606 37.1203 10.8154C37.1266 9.23381 37.1266 7.65218 36.6903 5.63121ZM29.0907 14.9766C28.594 14.9766 28.1085 14.8294 27.6955 14.5535C27.2825 14.2777 26.9606 13.8856 26.7706 13.4268C26.5805 12.9681 26.5308 12.4633 26.6277 11.9763C26.7246 11.4893 26.9637 11.042 27.3149 10.6909C27.6661 10.3398 28.1136 10.1007 28.6007 10.0038C29.0879 9.90695 29.5928 9.95667 30.0517 10.1467C30.5105 10.3367 30.9027 10.6585 31.1787 11.0713C31.4546 11.4842 31.6019 11.9696 31.6019 12.4661C31.6019 13.1319 31.3373 13.7705 30.8664 14.2413C30.3954 14.7121 29.7567 14.9766 29.0907 14.9766Z" fill="#4223FF"/>
</svg>
