<?xml version="1.0" encoding="utf-8"?>
<!-- Generator: Adobe Illustrator 28.1.0, SVG Export Plug-In . SVG Version: 6.00 Build 0)  -->
<svg version="1.1" id="Layer_1" xmlns="http://www.w3.org/2000/svg" xmlns:xlink="http://www.w3.org/1999/xlink" x="0px" y="0px"
	 viewBox="0 0 223 95.9" style="enable-background:new 0 0 223 95.9;" xml:space="preserve">
<style type="text/css">
	.st0{fill:#63EA71;}
	.st1{fill:none;stroke:#1D1F21;}
	.st2{fill:none;stroke:#000000;stroke-width:1.6;stroke-linecap:square;}
	.st3{fill:#FFB152;}
</style>
<g>
	<path class="st0" d="M24,0.5h175c13,0,23.5,10.5,23.5,23.5l0,0c0,13-10.5,23.5-23.5,23.5H24C11,47.5,0.5,37,0.5,24l0,0
		C0.5,11,11,0.5,24,0.5z"/>
	<path class="st1" d="M24,0.5h175c13,0,23.5,10.5,23.5,23.5l0,0c0,13-10.5,23.5-23.5,23.5H24C11,47.5,0.5,37,0.5,24l0,0
		C0.5,11,11,0.5,24,0.5z"/>
	<path class="st2" d="M24,33c5,0,9-4,9-9c0-5-4-9-9-9c-5,0-9,4-9,9C15,29,19,33,24,33z"/>
	<path class="st2" d="M24.1,28l3.9-4 M24.1,20l3.9,4 M28,24h-9"/>
	<path d="M47.8,29.5h-1.4l4-10.9h1.4l4,10.9h-1.4l-3.3-9.2H51L47.8,29.5z M48.3,25.2h5.6v1.2h-5.6V25.2z M57.1,32.6V21.3h1.2v1.3
		h0.1c0.1-0.1,0.2-0.3,0.4-0.5c0.2-0.2,0.4-0.4,0.7-0.6c0.3-0.2,0.7-0.3,1.3-0.3c0.7,0,1.3,0.2,1.8,0.5c0.5,0.3,0.9,0.8,1.2,1.5
		c0.3,0.6,0.4,1.4,0.4,2.2c0,0.9-0.1,1.6-0.4,2.3c-0.3,0.6-0.7,1.1-1.2,1.5c-0.5,0.3-1.1,0.5-1.8,0.5c-0.5,0-0.9-0.1-1.3-0.3
		c-0.3-0.2-0.6-0.4-0.7-0.6c-0.2-0.2-0.3-0.4-0.4-0.6h-0.1v4.3H57.1z M58.4,25.4c0,0.6,0.1,1.2,0.3,1.6c0.2,0.5,0.4,0.8,0.8,1.1
		c0.3,0.3,0.8,0.4,1.3,0.4c0.5,0,1-0.1,1.3-0.4c0.4-0.3,0.6-0.7,0.8-1.1c0.2-0.5,0.3-1,0.3-1.6c0-0.6-0.1-1.1-0.3-1.6
		c-0.2-0.5-0.4-0.8-0.8-1.1c-0.4-0.3-0.8-0.4-1.3-0.4c-0.5,0-0.9,0.1-1.3,0.4c-0.3,0.3-0.6,0.6-0.8,1.1
		C58.5,24.3,58.4,24.8,58.4,25.4z M66.1,32.6V21.3h1.2v1.3h0.2c0.1-0.1,0.2-0.3,0.4-0.5c0.2-0.2,0.4-0.4,0.7-0.6
		c0.3-0.2,0.7-0.3,1.3-0.3c0.7,0,1.3,0.2,1.8,0.5c0.5,0.3,0.9,0.8,1.2,1.5c0.3,0.6,0.4,1.4,0.4,2.2c0,0.9-0.1,1.6-0.4,2.3
		c-0.3,0.6-0.7,1.1-1.2,1.5c-0.5,0.3-1.1,0.5-1.8,0.5c-0.5,0-0.9-0.1-1.3-0.3c-0.3-0.2-0.6-0.4-0.7-0.6c-0.2-0.2-0.3-0.4-0.4-0.6
		h-0.1v4.3H66.1z M67.4,25.4c0,0.6,0.1,1.2,0.3,1.6c0.2,0.5,0.4,0.8,0.8,1.1c0.3,0.3,0.8,0.4,1.3,0.4c0.5,0,1-0.1,1.3-0.4
		c0.4-0.3,0.6-0.7,0.8-1.1c0.2-0.5,0.3-1,0.3-1.6c0-0.6-0.1-1.1-0.3-1.6c-0.2-0.5-0.4-0.8-0.8-1.1c-0.4-0.3-0.8-0.4-1.3-0.4
		c-0.5,0-0.9,0.1-1.3,0.4c-0.3,0.3-0.6,0.6-0.8,1.1C67.5,24.3,67.4,24.8,67.4,25.4z M76.4,18.6v10.9h-1.3V18.6H76.4z M79.3,32.6
		c-0.2,0-0.4,0-0.6-0.1c-0.2,0-0.3-0.1-0.3-0.1l0.3-1.1c0.3,0.1,0.6,0.1,0.8,0.1c0.2,0,0.4-0.1,0.6-0.3c0.2-0.2,0.4-0.5,0.5-0.9
		l0.2-0.6l-3-8.2h1.4l2.3,6.5h0.1l2.3-6.5h1.4l-3.5,9.4c-0.2,0.4-0.3,0.8-0.6,1.1c-0.2,0.3-0.5,0.5-0.8,0.6
		C80.1,32.5,79.7,32.6,79.3,32.6z M94.4,21.3v1.1H90v-1.1H94.4z M91.4,29.5v-9.3c0-0.5,0.1-0.9,0.3-1.2c0.2-0.3,0.5-0.5,0.9-0.7
		c0.4-0.2,0.7-0.2,1.1-0.2c0.3,0,0.6,0,0.8,0.1c0.2,0.1,0.3,0.1,0.4,0.1l-0.4,1.1c-0.1,0-0.2,0-0.3-0.1c-0.1,0-0.3,0-0.4,0
		c-0.4,0-0.7,0.1-0.9,0.3c-0.2,0.2-0.3,0.5-0.3,0.9v9H91.4z M99,29.7c-0.7,0-1.4-0.2-1.9-0.5c-0.6-0.4-1-0.8-1.3-1.5
		c-0.3-0.6-0.5-1.4-0.5-2.2c0-0.9,0.2-1.6,0.5-2.2c0.3-0.6,0.7-1.1,1.3-1.5c0.6-0.4,1.2-0.5,1.9-0.5c0.7,0,1.4,0.2,1.9,0.5
		c0.6,0.4,1,0.8,1.3,1.5c0.3,0.6,0.5,1.4,0.5,2.2c0,0.8-0.2,1.6-0.5,2.2c-0.3,0.6-0.7,1.1-1.3,1.5C100.4,29.5,99.8,29.7,99,29.7z
		 M99,28.5c0.6,0,1-0.1,1.4-0.4c0.4-0.3,0.6-0.7,0.8-1.1s0.3-1,0.3-1.5s-0.1-1.1-0.3-1.5c-0.2-0.5-0.4-0.9-0.8-1.1
		c-0.4-0.3-0.8-0.4-1.4-0.4s-1,0.1-1.4,0.4c-0.4,0.3-0.6,0.7-0.8,1.1c-0.2,0.5-0.3,1-0.3,1.5s0.1,1.1,0.3,1.5s0.4,0.8,0.8,1.1
		C98,28.4,98.5,28.5,99,28.5z M104.5,29.5v-8.2h1.2v1.2h0.1c0.1-0.4,0.4-0.7,0.8-1c0.4-0.3,0.8-0.4,1.3-0.4c0.1,0,0.2,0,0.3,0
		c0.1,0,0.2,0,0.3,0v1.3c0,0-0.1,0-0.3,0c-0.1,0-0.3,0-0.5,0c-0.4,0-0.8,0.1-1.1,0.2c-0.3,0.2-0.6,0.4-0.7,0.7
		c-0.2,0.3-0.3,0.6-0.3,1v5.2H104.5z M117.6,21.3v1.1h-4.2v-1.1H117.6z M114.6,19.4h1.3v7.8c0,0.4,0.1,0.6,0.2,0.8
		c0.1,0.2,0.2,0.3,0.4,0.4c0.2,0.1,0.3,0.1,0.5,0.1c0.1,0,0.3,0,0.3,0c0.1,0,0.2,0,0.2,0l0.3,1.1c-0.1,0-0.2,0.1-0.4,0.1
		c-0.2,0-0.3,0.1-0.6,0.1c-0.4,0-0.7-0.1-1-0.2c-0.3-0.2-0.6-0.4-0.8-0.7c-0.2-0.3-0.3-0.7-0.3-1.2V19.4z M120.7,24.6v4.9h-1.3V18.6
		h1.3v4h0.1c0.2-0.4,0.5-0.8,0.9-1c0.4-0.3,0.9-0.4,1.5-0.4c0.6,0,1,0.1,1.5,0.3c0.4,0.2,0.7,0.6,1,1c0.2,0.5,0.4,1,0.4,1.7v5.2
		h-1.3v-5.1c0-0.6-0.2-1.2-0.5-1.5c-0.3-0.4-0.8-0.5-1.4-0.5c-0.4,0-0.8,0.1-1.1,0.3c-0.3,0.2-0.6,0.4-0.8,0.8
		C120.8,23.7,120.7,24.1,120.7,24.6z M131.6,29.7c-0.8,0-1.5-0.2-2-0.5c-0.6-0.4-1-0.8-1.3-1.5c-0.3-0.6-0.5-1.4-0.5-2.2
		c0-0.8,0.2-1.6,0.5-2.2c0.3-0.6,0.7-1.1,1.3-1.5c0.6-0.4,1.2-0.5,1.9-0.5c0.4,0,0.8,0.1,1.3,0.2c0.4,0.1,0.8,0.4,1.1,0.7
		c0.3,0.3,0.6,0.7,0.8,1.3c0.2,0.5,0.3,1.2,0.3,1.9v0.5h-6.3v-1.1h5c0-0.5-0.1-0.9-0.3-1.2c-0.2-0.4-0.4-0.6-0.8-0.9
		c-0.3-0.2-0.7-0.3-1.2-0.3c-0.5,0-0.9,0.1-1.3,0.4c-0.4,0.2-0.6,0.6-0.8,1c-0.2,0.4-0.3,0.8-0.3,1.3v0.7c0,0.6,0.1,1.1,0.3,1.6
		c0.2,0.4,0.5,0.8,0.9,1c0.4,0.2,0.8,0.3,1.3,0.3c0.3,0,0.6,0,0.9-0.1c0.3-0.1,0.5-0.2,0.7-0.4c0.2-0.2,0.3-0.4,0.5-0.7l1.2,0.3
		c-0.1,0.4-0.3,0.8-0.6,1.1c-0.3,0.3-0.7,0.6-1.1,0.7C132.7,29.6,132.2,29.7,131.6,29.7z M141,29.5V18.6h3.7c0.9,0,1.6,0.2,2.1,0.5
		c0.5,0.3,1,0.7,1.2,1.2c0.3,0.5,0.4,1.1,0.4,1.7c0,0.6-0.1,1.2-0.4,1.8c-0.3,0.5-0.7,0.9-1.2,1.3c-0.5,0.3-1.2,0.5-2.1,0.5h-2.6
		v-1.2h2.6c0.6,0,1.1-0.1,1.4-0.3c0.4-0.2,0.6-0.5,0.8-0.8c0.2-0.3,0.2-0.7,0.2-1.2c0-0.4-0.1-0.8-0.2-1.2c-0.2-0.3-0.4-0.6-0.8-0.8
		c-0.4-0.2-0.8-0.3-1.4-0.3h-2.3v9.7H141z M150.2,29.5v-8.2h1.2v1.2h0.1c0.1-0.4,0.4-0.7,0.8-1c0.4-0.3,0.8-0.4,1.3-0.4
		c0.1,0,0.2,0,0.3,0c0.1,0,0.2,0,0.3,0v1.3c0,0-0.1,0-0.3,0c-0.1,0-0.3,0-0.5,0c-0.4,0-0.8,0.1-1.1,0.2c-0.3,0.2-0.6,0.4-0.7,0.7
		c-0.2,0.3-0.3,0.6-0.3,1v5.2H150.2z M158.7,29.7c-0.7,0-1.4-0.2-1.9-0.5c-0.6-0.4-1-0.8-1.3-1.5c-0.3-0.6-0.5-1.4-0.5-2.2
		c0-0.9,0.2-1.6,0.5-2.2c0.3-0.6,0.7-1.1,1.3-1.5c0.6-0.4,1.2-0.5,1.9-0.5c0.7,0,1.4,0.2,1.9,0.5c0.6,0.4,1,0.8,1.3,1.5
		c0.3,0.6,0.5,1.4,0.5,2.2c0,0.8-0.2,1.6-0.5,2.2c-0.3,0.6-0.7,1.1-1.3,1.5C160.1,29.5,159.5,29.7,158.7,29.7z M158.7,28.5
		c0.6,0,1-0.1,1.4-0.4c0.4-0.3,0.6-0.7,0.8-1.1s0.3-1,0.3-1.5s-0.1-1.1-0.3-1.5c-0.2-0.5-0.4-0.9-0.8-1.1c-0.4-0.3-0.8-0.4-1.4-0.4
		s-1,0.1-1.4,0.4c-0.4,0.3-0.6,0.7-0.8,1.1c-0.2,0.5-0.3,1-0.3,1.5s0.1,1.1,0.3,1.5s0.4,0.8,0.8,1.1
		C157.7,28.4,158.2,28.5,158.7,28.5z M167.5,32.7c-0.6,0-1.1-0.1-1.6-0.2c-0.4-0.2-0.8-0.4-1.1-0.6c-0.3-0.2-0.5-0.5-0.7-0.8l1-0.7
		c0.1,0.1,0.3,0.3,0.4,0.5c0.2,0.2,0.4,0.4,0.7,0.5c0.3,0.1,0.7,0.2,1.2,0.2c0.7,0,1.2-0.2,1.6-0.5c0.4-0.3,0.6-0.8,0.6-1.5V28h-0.1
		c-0.1,0.1-0.2,0.3-0.4,0.6c-0.2,0.2-0.4,0.4-0.7,0.6c-0.3,0.2-0.7,0.2-1.3,0.2c-0.7,0-1.3-0.2-1.8-0.5c-0.5-0.3-0.9-0.8-1.2-1.4
		c-0.3-0.6-0.5-1.3-0.5-2.2c0-0.8,0.1-1.6,0.4-2.2c0.3-0.6,0.7-1.1,1.2-1.4c0.5-0.3,1.1-0.5,1.8-0.5c0.5,0,1,0.1,1.3,0.3
		c0.3,0.2,0.6,0.4,0.7,0.6c0.2,0.2,0.3,0.4,0.4,0.5h0.1v-1.3h1.2v8.4c0,0.7-0.2,1.3-0.5,1.7c-0.3,0.4-0.7,0.8-1.3,1
		C168.8,32.6,168.2,32.7,167.5,32.7z M167.5,28.2c0.5,0,0.9-0.1,1.3-0.3c0.3-0.2,0.6-0.6,0.8-1c0.2-0.4,0.3-1,0.3-1.6
		c0-0.6-0.1-1.1-0.3-1.6c-0.2-0.5-0.4-0.8-0.8-1.1c-0.3-0.3-0.8-0.4-1.3-0.4c-0.5,0-1,0.1-1.3,0.4c-0.4,0.3-0.6,0.6-0.8,1.1
		c-0.2,0.5-0.3,1-0.3,1.5c0,0.6,0.1,1.1,0.3,1.5c0.2,0.4,0.4,0.8,0.8,1C166.5,28.1,166.9,28.2,167.5,28.2z M173.2,29.5v-8.2h1.2v1.2
		h0.1c0.1-0.4,0.4-0.7,0.8-1c0.4-0.3,0.8-0.4,1.3-0.4c0.1,0,0.2,0,0.3,0c0.1,0,0.2,0,0.3,0v1.3c0,0-0.1,0-0.3,0c-0.1,0-0.3,0-0.5,0
		c-0.4,0-0.8,0.1-1.1,0.2c-0.3,0.2-0.6,0.4-0.7,0.7c-0.2,0.3-0.3,0.6-0.3,1v5.2H173.2z M181,29.7c-0.5,0-1-0.1-1.4-0.3
		c-0.4-0.2-0.8-0.5-1-0.9c-0.2-0.4-0.4-0.8-0.4-1.4c0-0.5,0.1-0.8,0.3-1.1c0.2-0.3,0.4-0.5,0.7-0.7c0.3-0.2,0.6-0.3,1-0.4
		c0.4-0.1,0.8-0.2,1.1-0.2c0.5-0.1,0.9-0.1,1.2-0.1c0.3,0,0.5-0.1,0.7-0.2c0.1-0.1,0.2-0.2,0.2-0.4v0c0-0.5-0.1-0.9-0.4-1.2
		c-0.3-0.3-0.7-0.4-1.3-0.4c-0.6,0-1.1,0.1-1.4,0.4c-0.3,0.3-0.6,0.5-0.7,0.8l-1.2-0.4c0.2-0.5,0.5-0.9,0.9-1.2
		c0.4-0.3,0.7-0.5,1.2-0.6c0.4-0.1,0.8-0.2,1.3-0.2c0.3,0,0.6,0,0.9,0.1c0.3,0.1,0.7,0.2,1,0.4c0.3,0.2,0.6,0.5,0.8,0.9
		c0.2,0.4,0.3,0.9,0.3,1.6v5.4h-1.3v-1.1h-0.1c-0.1,0.2-0.2,0.4-0.4,0.6c-0.2,0.2-0.5,0.4-0.8,0.5C181.9,29.6,181.5,29.7,181,29.7z
		 M181.2,28.6c0.5,0,0.9-0.1,1.3-0.3c0.3-0.2,0.6-0.4,0.8-0.8c0.2-0.3,0.3-0.6,0.3-1v-1.1c-0.1,0.1-0.2,0.1-0.4,0.2
		c-0.2,0-0.4,0.1-0.6,0.1c-0.2,0-0.5,0.1-0.7,0.1c-0.2,0-0.4,0-0.5,0.1c-0.3,0-0.6,0.1-0.9,0.2c-0.3,0.1-0.5,0.2-0.7,0.4
		c-0.2,0.2-0.3,0.4-0.3,0.8c0,0.4,0.2,0.8,0.5,1C180.3,28.5,180.7,28.6,181.2,28.6z M186.9,29.5v-8.2h1.2v1.3h0.1
		c0.2-0.4,0.4-0.8,0.8-1c0.4-0.2,0.8-0.4,1.4-0.4c0.5,0,1,0.1,1.3,0.4c0.4,0.2,0.6,0.6,0.8,1h0.1c0.2-0.4,0.5-0.8,0.9-1
		c0.4-0.3,0.9-0.4,1.5-0.4c0.7,0,1.3,0.2,1.8,0.7c0.5,0.5,0.7,1.2,0.7,2.1v5.5h-1.3V24c0-0.6-0.2-1-0.5-1.3
		c-0.3-0.3-0.7-0.4-1.2-0.4c-0.6,0-1,0.2-1.3,0.5c-0.3,0.3-0.5,0.8-0.5,1.3v5.3h-1.3v-5.6c0-0.5-0.2-0.8-0.5-1.1
		c-0.3-0.3-0.7-0.4-1.2-0.4c-0.3,0-0.6,0.1-0.9,0.3c-0.3,0.2-0.5,0.4-0.7,0.7c-0.2,0.3-0.3,0.7-0.3,1.1v5.1H186.9z"/>
</g>
<g>
	<path class="st3" d="M24,48.4h175c13,0,23.5,10.5,23.5,23.5l0,0c0,13-10.5,23.5-23.5,23.5H24c-13,0-23.5-10.5-23.5-23.5l0,0
		C0.5,58.9,11,48.4,24,48.4z"/>
	<path class="st1" d="M24,48.4h175c13,0,23.5,10.5,23.5,23.5l0,0c0,13-10.5,23.5-23.5,23.5H24c-13,0-23.5-10.5-23.5-23.5l0,0
		C0.5,58.9,11,48.4,24,48.4z"/>
	<path class="st2" d="M24,80.9c5,0,9-4,9-9c0-5-4-9-9-9c-5,0-9,4-9,9C15,76.9,19,80.9,24,80.9z"/>
	<path class="st2" d="M24.1,75.9l3.9-4 M24.1,67.9l3.9,4 M28,71.9h-9"/>
	<path d="M47.8,77.4h-1.4l4-10.9h1.4l4,10.9h-1.4l-3.3-9.2H51L47.8,77.4z M48.3,73.2h5.6v1.2h-5.6V73.2z M57.1,80.5V69.2h1.2v1.3
		h0.1c0.1-0.1,0.2-0.3,0.4-0.5c0.2-0.2,0.4-0.4,0.7-0.6c0.3-0.2,0.7-0.3,1.3-0.3c0.7,0,1.3,0.2,1.8,0.5c0.5,0.3,0.9,0.8,1.2,1.5
		c0.3,0.6,0.4,1.4,0.4,2.2c0,0.9-0.1,1.6-0.4,2.3c-0.3,0.6-0.7,1.1-1.2,1.5c-0.5,0.3-1.1,0.5-1.8,0.5c-0.5,0-0.9-0.1-1.3-0.3
		c-0.3-0.2-0.6-0.4-0.7-0.6c-0.2-0.2-0.3-0.4-0.4-0.6h-0.1v4.3H57.1z M58.4,73.3c0,0.6,0.1,1.2,0.3,1.6c0.2,0.5,0.4,0.8,0.8,1.1
		c0.3,0.3,0.8,0.4,1.3,0.4c0.5,0,1-0.1,1.3-0.4c0.4-0.3,0.6-0.7,0.8-1.1c0.2-0.5,0.3-1,0.3-1.6c0-0.6-0.1-1.1-0.3-1.6
		c-0.2-0.5-0.4-0.8-0.8-1.1c-0.4-0.3-0.8-0.4-1.3-0.4c-0.5,0-0.9,0.1-1.3,0.4c-0.3,0.3-0.6,0.6-0.8,1.1
		C58.5,72.2,58.4,72.7,58.4,73.3z M66.1,80.5V69.2h1.2v1.3h0.2c0.1-0.1,0.2-0.3,0.4-0.5c0.2-0.2,0.4-0.4,0.7-0.6
		c0.3-0.2,0.7-0.3,1.3-0.3c0.7,0,1.3,0.2,1.8,0.5c0.5,0.3,0.9,0.8,1.2,1.5c0.3,0.6,0.4,1.4,0.4,2.2c0,0.9-0.1,1.6-0.4,2.3
		c-0.3,0.6-0.7,1.1-1.2,1.5c-0.5,0.3-1.1,0.5-1.8,0.5c-0.5,0-0.9-0.1-1.3-0.3c-0.3-0.2-0.6-0.4-0.7-0.6c-0.2-0.2-0.3-0.4-0.4-0.6
		h-0.1v4.3H66.1z M67.4,73.3c0,0.6,0.1,1.2,0.3,1.6c0.2,0.5,0.4,0.8,0.8,1.1c0.3,0.3,0.8,0.4,1.3,0.4c0.5,0,1-0.1,1.3-0.4
		c0.4-0.3,0.6-0.7,0.8-1.1c0.2-0.5,0.3-1,0.3-1.6c0-0.6-0.1-1.1-0.3-1.6c-0.2-0.5-0.4-0.8-0.8-1.1c-0.4-0.3-0.8-0.4-1.3-0.4
		c-0.5,0-0.9,0.1-1.3,0.4c-0.3,0.3-0.6,0.6-0.8,1.1C67.5,72.2,67.4,72.7,67.4,73.3z M76.4,66.5v10.9h-1.3V66.5H76.4z M79.3,80.5
		c-0.2,0-0.4,0-0.6-0.1c-0.2,0-0.3-0.1-0.3-0.1l0.3-1.1c0.3,0.1,0.6,0.1,0.8,0.1c0.2,0,0.4-0.1,0.6-0.3c0.2-0.2,0.4-0.5,0.5-0.9
		l0.2-0.6l-3-8.2h1.4l2.3,6.5h0.1l2.3-6.5h1.4l-3.5,9.4c-0.2,0.4-0.3,0.8-0.6,1.1c-0.2,0.3-0.5,0.5-0.8,0.6
		C80.1,80.4,79.7,80.5,79.3,80.5z M94.4,69.2v1.1H90v-1.1H94.4z M91.4,77.4v-9.3c0-0.5,0.1-0.9,0.3-1.2c0.2-0.3,0.5-0.5,0.9-0.7
		c0.4-0.2,0.7-0.2,1.1-0.2c0.3,0,0.6,0,0.8,0.1c0.2,0.1,0.3,0.1,0.4,0.1l-0.4,1.1c-0.1,0-0.2,0-0.3-0.1c-0.1,0-0.3,0-0.4,0
		c-0.4,0-0.7,0.1-0.9,0.3c-0.2,0.2-0.3,0.5-0.3,0.9v9H91.4z M99,77.6c-0.7,0-1.4-0.2-1.9-0.5c-0.6-0.4-1-0.8-1.3-1.5
		c-0.3-0.6-0.5-1.4-0.5-2.2c0-0.9,0.2-1.6,0.5-2.2c0.3-0.6,0.7-1.1,1.3-1.5c0.6-0.4,1.2-0.5,1.9-0.5c0.7,0,1.4,0.2,1.9,0.5
		c0.6,0.4,1,0.8,1.3,1.5c0.3,0.6,0.5,1.4,0.5,2.2c0,0.8-0.2,1.6-0.5,2.2c-0.3,0.6-0.7,1.1-1.3,1.5C100.4,77.4,99.8,77.6,99,77.6z
		 M99,76.5c0.6,0,1-0.1,1.4-0.4c0.4-0.3,0.6-0.7,0.8-1.1s0.3-1,0.3-1.5s-0.1-1.1-0.3-1.5c-0.2-0.5-0.4-0.9-0.8-1.1
		c-0.4-0.3-0.8-0.4-1.4-0.4s-1,0.1-1.4,0.4c-0.4,0.3-0.6,0.7-0.8,1.1c-0.2,0.5-0.3,1-0.3,1.5s0.1,1.1,0.3,1.5s0.4,0.8,0.8,1.1
		C98,76.3,98.5,76.5,99,76.5z M104.5,77.4v-8.2h1.2v1.2h0.1c0.1-0.4,0.4-0.7,0.8-1c0.4-0.3,0.8-0.4,1.3-0.4c0.1,0,0.2,0,0.3,0
		c0.1,0,0.2,0,0.3,0v1.3c0,0-0.1,0-0.3,0c-0.1,0-0.3,0-0.5,0c-0.4,0-0.8,0.1-1.1,0.2c-0.3,0.2-0.6,0.4-0.7,0.7
		c-0.2,0.3-0.3,0.6-0.3,1v5.2H104.5z M117.6,69.2v1.1h-4.2v-1.1H117.6z M114.6,67.3h1.3v7.8c0,0.4,0.1,0.6,0.2,0.8
		c0.1,0.2,0.2,0.3,0.4,0.4c0.2,0.1,0.3,0.1,0.5,0.1c0.1,0,0.3,0,0.3,0c0.1,0,0.2,0,0.2,0l0.3,1.1c-0.1,0-0.2,0.1-0.4,0.1
		c-0.2,0-0.3,0.1-0.6,0.1c-0.4,0-0.7-0.1-1-0.2c-0.3-0.2-0.6-0.4-0.8-0.7c-0.2-0.3-0.3-0.7-0.3-1.2V67.3z M120.7,72.5v4.9h-1.3V66.5
		h1.3v4h0.1c0.2-0.4,0.5-0.8,0.9-1c0.4-0.3,0.9-0.4,1.5-0.4c0.6,0,1,0.1,1.5,0.3c0.4,0.2,0.7,0.6,1,1c0.2,0.5,0.4,1,0.4,1.7v5.2
		h-1.3v-5.1c0-0.6-0.2-1.2-0.5-1.5c-0.3-0.4-0.8-0.5-1.4-0.5c-0.4,0-0.8,0.1-1.1,0.3c-0.3,0.2-0.6,0.4-0.8,0.8
		C120.8,71.6,120.7,72,120.7,72.5z M131.6,77.6c-0.8,0-1.5-0.2-2-0.5c-0.6-0.4-1-0.8-1.3-1.5c-0.3-0.6-0.5-1.4-0.5-2.2
		c0-0.8,0.2-1.6,0.5-2.2c0.3-0.6,0.7-1.1,1.3-1.5c0.6-0.4,1.2-0.5,1.9-0.5c0.4,0,0.8,0.1,1.3,0.2c0.4,0.1,0.8,0.4,1.1,0.7
		c0.3,0.3,0.6,0.7,0.8,1.3c0.2,0.5,0.3,1.2,0.3,1.9v0.5h-6.3v-1.1h5c0-0.5-0.1-0.9-0.3-1.2c-0.2-0.4-0.4-0.6-0.8-0.9
		c-0.3-0.2-0.7-0.3-1.2-0.3c-0.5,0-0.9,0.1-1.3,0.4c-0.4,0.2-0.6,0.6-0.8,1c-0.2,0.4-0.3,0.8-0.3,1.3v0.7c0,0.6,0.1,1.1,0.3,1.6
		c0.2,0.4,0.5,0.8,0.9,1c0.4,0.2,0.8,0.3,1.3,0.3c0.3,0,0.6,0,0.9-0.1c0.3-0.1,0.5-0.2,0.7-0.4c0.2-0.2,0.3-0.4,0.5-0.7l1.2,0.3
		c-0.1,0.4-0.3,0.8-0.6,1.1c-0.3,0.3-0.7,0.6-1.1,0.7C132.7,77.5,132.2,77.6,131.6,77.6z M141,77.4V66.5h3.7c0.9,0,1.6,0.2,2.1,0.5
		c0.5,0.3,1,0.7,1.2,1.2c0.3,0.5,0.4,1.1,0.4,1.7c0,0.6-0.1,1.2-0.4,1.8c-0.3,0.5-0.7,0.9-1.2,1.3c-0.5,0.3-1.2,0.5-2.1,0.5h-2.6
		v-1.2h2.6c0.6,0,1.1-0.1,1.4-0.3c0.4-0.2,0.6-0.5,0.8-0.8c0.2-0.3,0.2-0.7,0.2-1.2c0-0.4-0.1-0.8-0.2-1.2c-0.2-0.3-0.4-0.6-0.8-0.8
		c-0.4-0.2-0.8-0.3-1.4-0.3h-2.3v9.7H141z M150.2,77.4v-8.2h1.2v1.2h0.1c0.1-0.4,0.4-0.7,0.8-1c0.4-0.3,0.8-0.4,1.3-0.4
		c0.1,0,0.2,0,0.3,0c0.1,0,0.2,0,0.3,0v1.3c0,0-0.1,0-0.3,0c-0.1,0-0.3,0-0.5,0c-0.4,0-0.8,0.1-1.1,0.2c-0.3,0.2-0.6,0.4-0.7,0.7
		c-0.2,0.3-0.3,0.6-0.3,1v5.2H150.2z M158.7,77.6c-0.7,0-1.4-0.2-1.9-0.5c-0.6-0.4-1-0.8-1.3-1.5c-0.3-0.6-0.5-1.4-0.5-2.2
		c0-0.9,0.2-1.6,0.5-2.2c0.3-0.6,0.7-1.1,1.3-1.5c0.6-0.4,1.2-0.5,1.9-0.5c0.7,0,1.4,0.2,1.9,0.5c0.6,0.4,1,0.8,1.3,1.5
		c0.3,0.6,0.5,1.4,0.5,2.2c0,0.8-0.2,1.6-0.5,2.2c-0.3,0.6-0.7,1.1-1.3,1.5C160.1,77.4,159.5,77.6,158.7,77.6z M158.7,76.5
		c0.6,0,1-0.1,1.4-0.4c0.4-0.3,0.6-0.7,0.8-1.1s0.3-1,0.3-1.5s-0.1-1.1-0.3-1.5c-0.2-0.5-0.4-0.9-0.8-1.1c-0.4-0.3-0.8-0.4-1.4-0.4
		s-1,0.1-1.4,0.4c-0.4,0.3-0.6,0.7-0.8,1.1c-0.2,0.5-0.3,1-0.3,1.5s0.1,1.1,0.3,1.5s0.4,0.8,0.8,1.1
		C157.7,76.3,158.2,76.5,158.7,76.5z M167.5,80.7c-0.6,0-1.1-0.1-1.6-0.2c-0.4-0.2-0.8-0.4-1.1-0.6c-0.3-0.2-0.5-0.5-0.7-0.8l1-0.7
		c0.1,0.1,0.3,0.3,0.4,0.5c0.2,0.2,0.4,0.4,0.7,0.5c0.3,0.1,0.7,0.2,1.2,0.2c0.7,0,1.2-0.2,1.6-0.5c0.4-0.3,0.6-0.8,0.6-1.5v-1.7
		h-0.1c-0.1,0.1-0.2,0.3-0.4,0.6c-0.2,0.2-0.4,0.4-0.7,0.6c-0.3,0.2-0.7,0.2-1.3,0.2c-0.7,0-1.3-0.2-1.8-0.5
		c-0.5-0.3-0.9-0.8-1.2-1.4c-0.3-0.6-0.5-1.3-0.5-2.2c0-0.8,0.1-1.6,0.4-2.2c0.3-0.6,0.7-1.1,1.2-1.4c0.5-0.3,1.1-0.5,1.8-0.5
		c0.5,0,1,0.1,1.3,0.3c0.3,0.2,0.6,0.4,0.7,0.6c0.2,0.2,0.3,0.4,0.4,0.5h0.1v-1.3h1.2v8.4c0,0.7-0.2,1.3-0.5,1.7
		c-0.3,0.4-0.7,0.8-1.3,1C168.8,80.6,168.2,80.7,167.5,80.7z M167.5,76.2c0.5,0,0.9-0.1,1.3-0.3c0.3-0.2,0.6-0.6,0.8-1
		c0.2-0.4,0.3-1,0.3-1.6c0-0.6-0.1-1.1-0.3-1.6c-0.2-0.5-0.4-0.8-0.8-1.1c-0.3-0.3-0.8-0.4-1.3-0.4c-0.5,0-1,0.1-1.3,0.4
		c-0.4,0.3-0.6,0.6-0.8,1.1c-0.2,0.5-0.3,1-0.3,1.5c0,0.6,0.1,1.1,0.3,1.5c0.2,0.4,0.4,0.8,0.8,1C166.5,76,166.9,76.2,167.5,76.2z
		 M173.2,77.4v-8.2h1.2v1.2h0.1c0.1-0.4,0.4-0.7,0.8-1c0.4-0.3,0.8-0.4,1.3-0.4c0.1,0,0.2,0,0.3,0c0.1,0,0.2,0,0.3,0v1.3
		c0,0-0.1,0-0.3,0c-0.1,0-0.3,0-0.5,0c-0.4,0-0.8,0.1-1.1,0.2c-0.3,0.2-0.6,0.4-0.7,0.7c-0.2,0.3-0.3,0.6-0.3,1v5.2H173.2z
		 M181,77.6c-0.5,0-1-0.1-1.4-0.3c-0.4-0.2-0.8-0.5-1-0.9c-0.2-0.4-0.4-0.8-0.4-1.4c0-0.5,0.1-0.8,0.3-1.1c0.2-0.3,0.4-0.5,0.7-0.7
		c0.3-0.2,0.6-0.3,1-0.4c0.4-0.1,0.8-0.2,1.1-0.2c0.5-0.1,0.9-0.1,1.2-0.1c0.3,0,0.5-0.1,0.7-0.2c0.1-0.1,0.2-0.2,0.2-0.4v0
		c0-0.5-0.1-0.9-0.4-1.2c-0.3-0.3-0.7-0.4-1.3-0.4c-0.6,0-1.1,0.1-1.4,0.4c-0.3,0.3-0.6,0.5-0.7,0.8l-1.2-0.4
		c0.2-0.5,0.5-0.9,0.9-1.2c0.4-0.3,0.7-0.5,1.2-0.6c0.4-0.1,0.8-0.2,1.3-0.2c0.3,0,0.6,0,0.9,0.1c0.3,0.1,0.7,0.2,1,0.4
		c0.3,0.2,0.6,0.5,0.8,0.9c0.2,0.4,0.3,0.9,0.3,1.6v5.4h-1.3v-1.1h-0.1c-0.1,0.2-0.2,0.4-0.4,0.6c-0.2,0.2-0.5,0.4-0.8,0.5
		C181.9,77.5,181.5,77.6,181,77.6z M181.2,76.5c0.5,0,0.9-0.1,1.3-0.3c0.3-0.2,0.6-0.4,0.8-0.8c0.2-0.3,0.3-0.6,0.3-1v-1.1
		c-0.1,0.1-0.2,0.1-0.4,0.2c-0.2,0-0.4,0.1-0.6,0.1c-0.2,0-0.5,0.1-0.7,0.1c-0.2,0-0.4,0-0.5,0.1c-0.3,0-0.6,0.1-0.9,0.2
		c-0.3,0.1-0.5,0.2-0.7,0.4c-0.2,0.2-0.3,0.4-0.3,0.8c0,0.4,0.2,0.8,0.5,1C180.3,76.4,180.7,76.5,181.2,76.5z M186.9,77.4v-8.2h1.2
		v1.3h0.1c0.2-0.4,0.4-0.8,0.8-1c0.4-0.2,0.8-0.4,1.4-0.4c0.5,0,1,0.1,1.3,0.4c0.4,0.2,0.6,0.6,0.8,1h0.1c0.2-0.4,0.5-0.8,0.9-1
		c0.4-0.3,0.9-0.4,1.5-0.4c0.7,0,1.3,0.2,1.8,0.7c0.5,0.5,0.7,1.2,0.7,2.1v5.5h-1.3v-5.5c0-0.6-0.2-1-0.5-1.3
		c-0.3-0.3-0.7-0.4-1.2-0.4c-0.6,0-1,0.2-1.3,0.5c-0.3,0.3-0.5,0.8-0.5,1.3v5.3h-1.3v-5.6c0-0.5-0.2-0.8-0.5-1.1
		c-0.3-0.3-0.7-0.4-1.2-0.4c-0.3,0-0.6,0.1-0.9,0.3c-0.3,0.2-0.5,0.4-0.7,0.7c-0.2,0.3-0.3,0.7-0.3,1.1v5.1H186.9z"/>
</g>
</svg>
