<?xml version="1.0" encoding="utf-8"?>
<!-- Generator: Adobe Illustrator 28.1.0, SVG Export Plug-In . SVG Version: 6.00 Build 0)  -->
<svg version="1.1" id="Layer_1" xmlns="http://www.w3.org/2000/svg" xmlns:xlink="http://www.w3.org/1999/xlink" x="0px" y="0px"
	 viewBox="0 0 38 38" style="enable-background:new 0 0 38 38;" xml:space="preserve">
<style type="text/css">
	.st0{fill-rule:evenodd;clip-rule:evenodd;fill:#FF7C2B;}
</style>
<ellipse cx="19" cy="19.2" rx="13.5" ry="13.9"/>
<path class="st0" d="M19.1,37.3c10.4,0,18.8-8.2,18.8-18.3S29.5,0.7,19.1,0.7C8.7,0.7,0.4,8.9,0.4,19S8.7,37.3,19.1,37.3z M19,14.5
	v11h-6.4v-11H19z M26.3,14.5h-6.4v11h6.4V14.5z M13.5,26.3h0.9v2.7h-0.9V26.3z M21.7,26.3h-0.9v2.7h0.9V26.3z M15.3,26.3h0.9V30
	h-0.9V26.3z M23.5,26.3h-0.9V30h0.9V26.3z M17.1,26.3H18v2.7h-0.9V26.3z M25.3,26.3h-0.9v2.7h0.9V26.3z M19,13.6L19,13.6
	c0-2.4-1.3-4.5-3.2-5.6c-1.9,1.1-3.2,3.2-3.2,5.5L19,13.6L19,13.6z M26.3,13.5L26.3,13.5L26.3,13.5l-6.4,0c0-2.4,1.3-4.4,3.2-5.5
	C25,9.1,26.3,11.2,26.3,13.5z M11.7,23.7v-6.5l-3.7,3v4.3L11.7,23.7z M27.2,17.2v6.5l3.7,0.9v-4.3L27.2,17.2z"/>
</svg>
