<?xml version="1.0" encoding="utf-8"?>
<!-- Generator: Adobe Illustrator 28.1.0, SVG Export Plug-In . SVG Version: 6.00 Build 0)  -->
<svg version="1.1" id="Layer_1" xmlns="http://www.w3.org/2000/svg" xmlns:xlink="http://www.w3.org/1999/xlink" x="0px" y="0px"
	 viewBox="0 0 39 38" style="enable-background:new 0 0 39 38;" xml:space="preserve">
<style type="text/css">
	.st0{fill-rule:evenodd;clip-rule:evenodd;fill:#63EA71;}
</style>
<circle cx="19.6" cy="18.4" r="14.2"/>
<path class="st0" d="M38.5,19c0,10.1-8.4,18.3-18.8,18.3C9.3,37.3,1,29.1,1,19C1,8.9,9.3,0.7,19.7,0.7C30.1,0.7,38.5,8.9,38.5,19z
	 M26,19c0,3.3-2.7,6-6,6s-6-2.7-6-6s2.7-6,6-6S26,15.7,26,19z M19,7h2v3h-2V7z M21,31v-3h-2v3H21z M32,20h-3v-2h3V20z M11,20v-2H8v2
	H11z M27.1,10.5l1.4,1.4l-2.1,2.1l-1.4-1.4L27.1,10.5z M15.1,25.4l-1.4-1.4l-2.1,2.1l1.4,1.4L15.1,25.4z M11.5,11.9l1.4-1.4l2.1,2.1
	l-1.4,1.4L11.5,11.9z M26.4,23.9l-1.4,1.4l2.1,2.1l1.4-1.4L26.4,23.9z"/>
</svg>
