<?xml version="1.0" encoding="utf-8"?>
<!-- Generator: Adobe Illustrator 28.1.0, SVG Export Plug-In . SVG Version: 6.00 Build 0)  -->
<svg version="1.1" id="Layer_1" xmlns="http://www.w3.org/2000/svg" xmlns:xlink="http://www.w3.org/1999/xlink" x="0px" y="0px"
	 viewBox="0 0 38 38" style="enable-background:new 0 0 38 38;" xml:space="preserve">
<style type="text/css">
	.st0{fill-rule:evenodd;clip-rule:evenodd;fill:#63EA71;}
</style>
<circle cx="19.6" cy="18.4" r="14.2"/>
<path class="st0" d="M37.9,19c0,10.1-8.4,18.3-18.8,18.3C8.7,37.3,0.4,29.1,0.4,19C0.4,8.9,8.7,0.7,19.1,0.7
	C29.5,0.7,37.9,8.9,37.9,19z M9,29v-1.5l6-6.1l4,4.1l8.3-8.6l1.7,1.7V29H9z M27,13.3l-8,8.3l-4-4.1l-6,6.1v-4.5l6-6.1l4,4.1l5.8-6
	l-2-2H29v6.4L27,13.3z"/>
</svg>
