<?xml version="1.0" encoding="utf-8"?>
<!-- Generator: Adobe Illustrator 28.1.0, SVG Export Plug-In . SVG Version: 6.00 Build 0)  -->
<svg version="1.1" id="Layer_1" xmlns="http://www.w3.org/2000/svg" xmlns:xlink="http://www.w3.org/1999/xlink" x="0px" y="0px"
	 viewBox="0 0 39 38" style="enable-background:new 0 0 39 38;" xml:space="preserve">
<style type="text/css">
	.st0{fill-rule:evenodd;clip-rule:evenodd;fill:#63EA71;}
</style>
<circle cx="19.6" cy="18.4" r="14.2"/>
<path class="st0" d="M38,19c0,10.1-8.4,18.3-18.8,18.3C8.9,37.3,0.6,29.1,0.6,19C0.6,8.9,8.9,0.7,19.3,0.7C29.7,0.7,38,8.9,38,19z
	 M29,9v7.5L26.4,14L15.4,24.8v-5.1l8.5-8.2L21.3,9H29z M18.5,16.5V9h-7.8l2.6,2.5l-5.3,5v5.1l7.9-7.6L18.5,16.5z M29,19.5v7.3
	l-2.5-2.4l-7,6.7v-4.9l4.4-4.3l-2.5-2.4H29z"/>
</svg>
