<?xml version="1.0" encoding="utf-8"?>
<!-- Generator: Adobe Illustrator 28.1.0, SVG Export Plug-In . SVG Version: 6.00 Build 0)  -->
<svg version="1.1" id="Layer_1" xmlns="http://www.w3.org/2000/svg" xmlns:xlink="http://www.w3.org/1999/xlink" x="0px" y="0px"
	 viewBox="0 0 39 38" style="enable-background:new 0 0 39 38;" xml:space="preserve">
<style type="text/css">
	.st0{fill-rule:evenodd;clip-rule:evenodd;fill:#FF7C2B;}
</style>
<ellipse cx="19" cy="19.2" rx="13.5" ry="13.9"/>
<path class="st0" d="M38.5,19c0,10.1-8.4,18.3-18.8,18.3C9.3,37.3,1,29.1,1,19S9.3,0.7,19.7,0.7C30.1,0.7,38.5,8.9,38.5,19z M20,6.4
	l3.2,2.9l4.3-0.5l0.9,4.2l3.7,2.1L30.2,19l1.8,3.9L28.3,25l-0.9,4.2l-4.3-0.5L20,31.6l-3.2-2.9l-4.3,0.5L11.7,25L8,22.9L9.8,19
	L8,15.1l3.7-2.1l0.9-4.2l4.3,0.5L20,6.4z M25.1,16.3l-5.4,5.3L19,22.4l-0.7-0.7l-3.4-3.4l1.4-1.4l2.6,2.7l4.7-4.6L25.1,16.3z"/>
</svg>
