<?xml version="1.0" encoding="utf-8"?>
<!-- Generator: Adobe Illustrator 28.1.0, SVG Export Plug-In . SVG Version: 6.00 Build 0)  -->
<svg version="1.1" id="Layer_1" xmlns="http://www.w3.org/2000/svg" xmlns:xlink="http://www.w3.org/1999/xlink" x="0px" y="0px"
	 viewBox="0 0 64 79.6" style="enable-background:new 0 0 64 79.6;" xml:space="preserve">
<style type="text/css">
	.st0{fill-rule:evenodd;clip-rule:evenodd;fill:#C8CBCA;}
	.st1{fill-rule:evenodd;clip-rule:evenodd;fill:#63EA71;}
</style>
<g>
	<path d="M20,0h24c11,0,20,9,20,20l0,0c0,11-9,20-20,20H20C9,40,0,31,0,20l0,0C0,9,9,0,20,0z"/>
	<path class="st0" d="M28.4,12H23l6.4,8.7L23.4,28h2.7l4.5-5.5l4,5.5H40l-6.5-9l0,0l5.6-6.9h-2.7l-4.2,5.1L28.4,12z M26,13.5h1.7
		L37,26.4h-1.7L26,13.5z"/>
</g>
<g>
	<path d="M20,39.6h24c11,0,20,9,20,20l0,0c0,11-9,20-20,20H20c-11,0-20-9-20-20l0,0C0,48.5,9,39.6,20,39.6z"/>
	<path class="st1" d="M28.4,51.6H23l6.4,8.7l-5.9,7.3h2.7l4.5-5.5l4,5.5H40l-6.5-9l0,0l5.6-6.9h-2.7l-4.2,5.1L28.4,51.6z M26,53.1
		h1.7L37,66h-1.7L26,53.1z"/>
</g>
</svg>
