<?xml version="1.0" encoding="utf-8"?>
<!-- Generator: Adobe Illustrator 28.1.0, SVG Export Plug-In . SVG Version: 6.00 Build 0)  -->
<svg version="1.1" id="Layer_1" xmlns="http://www.w3.org/2000/svg" xmlns:xlink="http://www.w3.org/1999/xlink" x="0px" y="0px"
	 viewBox="0 0 39 38" style="enable-background:new 0 0 39 38;" xml:space="preserve">
<style type="text/css">
	.st0{fill-rule:evenodd;clip-rule:evenodd;fill:#FF7C2B;}
</style>
<rect x="7.3" y="5.8" width="25" height="25.8"/>
<path class="st0" d="M38,19c0,10.1-8.4,18.3-18.8,18.3C8.9,37.3,0.6,29.1,0.6,19S8.9,0.7,19.3,0.7C29.7,0.7,38,8.9,38,19z
	 M11.4,19.2c0-4.1,3.3-7.4,7.4-7.4c0.6,0,1.1,0.1,1.6,0.2L21,9.2C20.3,9.1,19.6,9,18.8,9C13.2,9,8.6,13.6,8.6,19.2
	s4.6,10.2,10.2,10.2S29,24.8,29,19.2c0-0.6-0.1-1.3-0.2-1.9l-2.8,0.5c0.1,0.4,0.1,0.9,0.1,1.4c0,4.1-3.3,7.4-7.4,7.4
	S11.4,23.3,11.4,19.2z M23,10.3L27.3,6l-0.2,4.9l4.9-0.3L27.6,15h-2.9l-2,2c0.4,0.6,0.6,1.4,0.6,2.2c0,2.4-2,4.4-4.4,4.4
	c-2.4,0-4.4-2-4.4-4.4c0-2.4,2-4.4,4.4-4.4c0.7,0,1.4,0.2,2.1,0.5l2.1-2V10.3z"/>
</svg>
