<?xml version="1.0" encoding="utf-8"?>
<!-- Generator: Adobe Illustrator 28.1.0, SVG Export Plug-In . SVG Version: 6.00 Build 0)  -->
<svg version="1.1" id="Layer_1" xmlns="http://www.w3.org/2000/svg" xmlns:xlink="http://www.w3.org/1999/xlink" x="0px" y="0px"
	 viewBox="0 0 38 38" style="enable-background:new 0 0 38 38;" xml:space="preserve">
<style type="text/css">
	.st0{fill-rule:evenodd;clip-rule:evenodd;fill:#FF7C2B;}
</style>
<ellipse cx="19" cy="19.2" rx="13.5" ry="13.9"/>
<path class="st0" d="M37.7,19c0,10.1-8.4,18.3-18.8,18.3C8.5,37.3,0.2,29.1,0.2,19S8.5,0.7,18.9,0.7C29.3,0.7,37.7,8.9,37.7,19z
	 M17.5,7C11.6,7.7,7,12.8,7,18.9c0,6.6,5.4,12,12,12c4,0,7.6-2,9.7-5l-5.2-3c-1.1,1.3-2.7,2-4.5,2c-3.3,0-6-2.7-6-6
	c0-2.8,1.9-5.1,4.5-5.8V7z M31,18.9c0,1.6-0.3,3-0.8,4.4l-5.3-3.1C25,19.8,25,19.4,25,19c0-2.8-1.9-5.1-4.5-5.8V7
	C26.4,7.7,31,12.8,31,18.9z"/>
</svg>
