<?xml version="1.0" encoding="utf-8"?>
<!-- Generator: Adobe Illustrator 28.1.0, SVG Export Plug-In . SVG Version: 6.00 Build 0)  -->
<svg version="1.1" id="Layer_1" xmlns="http://www.w3.org/2000/svg" xmlns:xlink="http://www.w3.org/1999/xlink" x="0px" y="0px"
	 viewBox="0 0 39 38" style="enable-background:new 0 0 39 38;" xml:space="preserve">
<style type="text/css">
	.st0{fill-rule:evenodd;clip-rule:evenodd;fill:#63EA71;}
</style>
<circle cx="19.6" cy="18.4" r="14.2"/>
<path class="st0" d="M19.7,37.3c10.4,0,18.8-8.2,18.8-18.3c0-10.1-8.4-18.3-18.8-18.3C9.3,0.7,1,8.9,1,19C1,29.1,9.3,37.3,19.7,37.3
	z M29.8,18.6H18.4H7L18.4,30V18.6L29.8,30V18.6z M24.4,16c-1.9,0-3.5-1.6-3.5-3.5S22.4,9,24.4,9s3.5,1.6,3.5,3.5S26.3,16,24.4,16z
	 M13,16c-1.9,0-3.5-1.6-3.5-3.5S11,9,13,9s3.5,1.6,3.5,3.5S14.9,16,13,16z"/>
</svg>
