<?xml version="1.0" encoding="utf-8"?>
<!-- Generator: Adobe Illustrator 28.1.0, SVG Export Plug-In . SVG Version: 6.00 Build 0)  -->
<svg version="1.1" id="Layer_1" xmlns="http://www.w3.org/2000/svg" xmlns:xlink="http://www.w3.org/1999/xlink" x="0px" y="0px"
	 viewBox="0 0 1203 490" style="enable-background:new 0 0 1203 490;" xml:space="preserve">
<style type="text/css">
	.st0{fill:none;stroke:#FF7722;}
	.st1{clip-path:url(#SVGID_00000036971684590932414350000009366480059145371049_);}
	.st2{fill:#FF7722;}
	
		.st3{opacity:0.2;fill:none;stroke:url(#SVGID_00000096774832208949178620000015996702311556526745_);stroke-width:1.1108;enable-background:new    ;}
	.st4{fill:url(#SVGID_00000052826621062235872590000008602721822759523751_);}
	.st5{fill:#FFFFFF;}
	.st6{clip-path:url(#SVGID_00000119825683578268476110000003110687396315899783_);}
	.st7{fill:#848484;stroke:#000000;stroke-miterlimit:10;}
	.st8{fill:#DBE090;stroke:#000000;stroke-miterlimit:10;}
	.st9{fill:#CE3F00;stroke:#000000;stroke-miterlimit:10;}
	.st10{fill:#63EA71;stroke:#000000;stroke-miterlimit:10;}
	.st11{fill:#146643;stroke:#000000;stroke-miterlimit:10;}
	.st12{fill:#17724D;stroke:#000000;stroke-miterlimit:10;}
	.st13{fill:none;stroke:#000000;stroke-miterlimit:10;}
	.st14{fill:#218961;stroke:#000000;stroke-miterlimit:10;}
	.st15{fill-rule:evenodd;clip-rule:evenodd;fill:#1D825B;}
	.st16{fill:#156846;}
	.st17{fill:#6D6D6D;stroke:#000000;stroke-miterlimit:10;}
	.st18{fill:#606060;stroke:#000000;stroke-miterlimit:10;}
	.st19{fill:#878787;stroke:#000000;stroke-miterlimit:10;}
	.st20{fill:#7C7C7C;}
	.st21{fill:#606060;}
	.st22{fill:#4C4C4B;}
	.st23{fill:#777777;}
	.st24{fill:#E25100;}
	.st25{fill:#2C9C74;}
	.st26{opacity:0.2;enable-background:new    ;}
	.st27{opacity:0.25;enable-background:new    ;}
	.st28{fill:#FFB152;stroke:#000000;stroke-miterlimit:10;}
	.st29{opacity:0.37;enable-background:new    ;}
	.st30{fill:#892E00;}
	.st31{fill:#D88C39;stroke:#000000;stroke-miterlimit:10;}
	.st32{fill:#4C4C4C;}
	.st33{opacity:0.12;enable-background:new    ;}
	.st34{fill:#565656;stroke:#000000;stroke-miterlimit:10;}
	.st35{fill:#6D4608;}
	.st36{fill:#D8B587;}
	.st37{fill:#F4E6DC;stroke:#000000;stroke-miterlimit:10;}
	.st38{fill:#C49E72;}
	.st39{opacity:0.27;enable-background:new    ;}
	.st40{opacity:0.14;fill:url(#SVGID_00000152980902961961686940000017817767171123999900_);enable-background:new    ;}
	.st41{opacity:0.14;fill:url(#SVGID_00000058565792398401937900000005949464963868978860_);enable-background:new    ;}
	.st42{fill:#FF7722;stroke:#000000;}
	.st43{opacity:0.5;fill:#FFB152;enable-background:new    ;}
	.st44{fill:#F4FDAB;stroke:#000000;}
	.st45{fill:#FFB152;stroke:#000000;}
	.st46{opacity:0.5;fill:#F4FDAB;enable-background:new    ;}
	.st47{fill:#FFB152;}
	.st48{fill:none;stroke:#000000;}
	.st49{fill:#F4FDAB;}
	.st50{fill:#545454;stroke:#000000;stroke-miterlimit:10;}
	.st51{fill:#383838;}
	.st52{opacity:0.21;fill:#D6D6D6;enable-background:new    ;}
	.st53{fill:#828282;}
	.st54{fill:#383838;stroke:#000000;stroke-miterlimit:10;}
	.st55{fill:#2B2B2B;stroke:#000000;stroke-miterlimit:10;}
	.st56{opacity:0.53;fill:url(#SVGID_00000163775308859013977970000002706477493247914670_);enable-background:new    ;}
	.st57{opacity:0.54;}
	.st58{stroke:#000000;stroke-miterlimit:10;}
</style>
<path class="st0" d="M25,55.5h1153c13.5,0,24.5,11,24.5,24.5v385c0,13.5-11,24.5-24.5,24.5H25c-13.5,0-24.5-11-24.5-24.5V80
	C0.5,66.5,11.5,55.5,25,55.5z"/>
<g>
	<defs>
		<path id="SVGID_1_" d="M17,56h1169c8.8,0,16,7.2,16,16v401c0,8.8-7.2,16-16,16H17c-8.8,0-16-7.2-16-16V72C1,63.2,8.2,56,17,56z"/>
	</defs>
	<clipPath id="SVGID_00000057851803142130366790000009727811253727447168_">
		<use xlink:href="#SVGID_1_"  style="overflow:visible;"/>
	</clipPath>
	<g style="clip-path:url(#SVGID_00000057851803142130366790000009727811253727447168_);">
		<g>
			<circle class="st2" cx="870" cy="448" r="255"/>
		</g>
		
			<radialGradient id="SVGID_00000165225782011685256060000017679281715968906897_" cx="597.333" cy="255.5827" r="1.0001" gradientTransform="matrix(-0.5001 -703.9998 -1023.7897 0.7273 262832.4688 420826.4375)" gradientUnits="userSpaceOnUse">
			<stop  offset="0.3322" style="stop-color:#FF7722;stop-opacity:0.2"/>
			<stop  offset="0.7135" style="stop-color:#FF7722"/>
			<stop  offset="1" style="stop-color:#FF7722;stop-opacity:0.2"/>
		</radialGradient>
		
			<path style="opacity:0.2;fill:none;stroke:url(#SVGID_00000165225782011685256060000017679281715968906897_);stroke-width:1.1108;enable-background:new    ;" d="
			M-144,489.4h2029.5 M870.2,1504.8V-524.8 M-338,1187.3L2079-208.3 M1377.7,1369.2L362.9-388.6 M-109.5,752.1l1960.4-525.3
			 M1132.9,1470.4L607.6-490.1 M152.8,1207.2L1587.9-228 M1587.9,1208L152.8-227.2 M607.6,1470.1l525.3-1960.5 M1850.8,753.2
			L-109.5,227.9 M362.9,1368.6L1377.7-389.2 M2079,1188.3L-338-207.3 M948.9,490c0,43.1-34.9,78.1-78.1,78.1
			c-43.1,0-78.1-35-78.1-78.1s34.9-78.1,78.1-78.1C913.9,411.9,948.9,446.9,948.9,490z M2071.7,490c0,663.3-537.7,1201-1200.9,1201
			c-663.2,0-1200.9-537.7-1200.9-1201c0-663.3,537.7-1201,1200.9-1201C1534-711,2071.7-173.3,2071.7,490z M958.3,490
			c0,48.3-39.2,87.5-87.5,87.5c-48.3,0-87.5-39.2-87.5-87.5c0-48.3,39.2-87.5,87.5-87.5C919.1,402.5,958.3,441.7,958.3,490z
			 M972.1,490c0,55.9-45.3,101.3-101.3,101.3S769.5,545.9,769.5,490s45.3-101.3,101.3-101.3S972.1,434.1,972.1,490z M990.3,490
			c0,66-53.5,119.5-119.5,119.5c-66,0-119.5-53.5-119.5-119.5s53.5-119.5,119.5-119.5C936.8,370.5,990.3,424,990.3,490z M1012.9,490
			c0,78.5-63.6,142.1-142.1,142.1S728.7,568.5,728.7,490s63.6-142.1,142.1-142.1S1012.9,411.5,1012.9,490z M1039.9,490
			c0,93.4-75.7,169.1-169.1,169.1S701.7,583.4,701.7,490c0-93.4,75.7-169.1,169.1-169.1S1039.9,396.6,1039.9,490z M1071.4,490
			c0,110.8-89.8,200.6-200.6,200.6c-110.8,0-200.6-89.8-200.6-200.6S760,289.4,870.8,289.4C981.6,289.4,1071.4,379.2,1071.4,490z
			 M1107.2,490c0,130.6-105.8,236.4-236.4,236.4c-130.6,0-236.4-105.9-236.4-236.4s105.8-236.4,236.4-236.4
			C1001.4,253.6,1107.2,359.4,1107.2,490z M1147.5,490c0,152.8-123.9,276.7-276.7,276.7C718,766.7,594.1,642.8,594.1,490
			S718,213.3,870.8,213.3C1023.6,213.3,1147.5,337.2,1147.5,490z M1192.1,490c0,177.5-143.8,321.3-321.3,321.3
			c-177.5,0-321.3-143.9-321.3-321.3s143.9-321.3,321.3-321.3C1048.3,168.7,1192.1,312.5,1192.1,490z M1241.2,490
			c0,204.6-165.8,370.4-370.4,370.4c-204.6,0-370.4-165.8-370.4-370.4s165.8-370.4,370.4-370.4
			C1075.3,119.6,1241.2,285.4,1241.2,490z M1294.7,490c0,234.1-189.8,423.9-423.9,423.9C636.7,913.9,447,724.1,447,490
			S636.7,66.1,870.8,66.1C1104.9,66.1,1294.7,255.9,1294.7,490z M1352.5,490c0,266.1-215.7,481.8-481.7,481.8
			c-266,0-481.7-215.7-481.7-481.8S604.8,8.2,870.8,8.2C1136.8,8.2,1352.5,223.9,1352.5,490z M1414.8,490c0,300.5-243.6,544-544,544
			c-300.4,0-544-243.6-544-544s243.6-544,544-544C1171.2-54,1414.8,189.5,1414.8,490z M1481.5,490c0,337.3-273.4,610.7-610.7,610.7
			c-337.3,0-610.7-273.4-610.7-610.7s273.4-610.7,610.7-610.7C1208.1-120.7,1481.5,152.7,1481.5,490z M1552.6,490
			c0,376.6-305.2,681.8-681.8,681.8C494.3,1171.8,189,866.6,189,490s305.2-681.8,681.8-681.8C1247.3-191.8,1552.6,113.4,1552.6,490z
			 M1628.1,490c0,418.3-339,757.3-757.3,757.3S113.5,908.3,113.5,490c0-418.3,339.1-757.3,757.3-757.3S1628.1,71.7,1628.1,490z
			 M1708,490c0,462.4-374.8,837.3-837.2,837.3c-462.4,0-837.2-374.9-837.2-837.3s374.8-837.3,837.2-837.3
			C1333.2-347.3,1708,27.6,1708,490z M1792.3,490c0,509-412.6,921.6-921.5,921.6S-50.7,999-50.7,490s412.6-921.6,921.5-921.6
			S1792.3-19,1792.3,490z M1881,490c0,558-452.3,1010.3-1010.2,1010.3C312.9,1500.3-139.4,1048-139.4,490
			c0-558,452.3-1010.3,1010.2-1010.3C1428.7-520.3,1881-68,1881,490z M1974.2,490c0,609.4-494,1103.5-1103.4,1103.5
			c-609.4,0-1103.4-494-1103.4-1103.5c0-609.4,494-1103.5,1103.4-1103.5C1480.2-613.5,1974.2-119.4,1974.2,490z"/>
	</g>
</g>
<linearGradient id="SVGID_00000041273978223909499190000014656390751310949773_" gradientUnits="userSpaceOnUse" x1="103" y1="315.756" x2="609" y2="315.756" gradientTransform="matrix(1 0 0 -1 0 489)">
	<stop  offset="0" style="stop-color:#FF7722"/>
	<stop  offset="1" style="stop-color:#F4FDAB"/>
</linearGradient>
<path style="fill:url(#SVGID_00000041273978223909499190000014656390751310949773_);" d="M138.4,188h-8.6l-16.6-19.2V188h-6.6v-39.2
	h6.6v17.1l15.4-17.1h8.3L120,167.3L138.4,188z M143.9,147.9c2.2,0,4,1.8,4,4c0,2.2-1.8,4-4,4c-2.2,0-4-1.8-4-4
	C140,149.8,141.8,147.9,143.9,147.9z M140.8,160.6h6.2V188h-6.2V160.6z M178.6,181.1c-2.1,4.5-6.9,7.5-12.6,7.5
	c-8.1,0-14.3-6.1-14.3-14.2s6.2-14.3,14.3-14.3c5.3,0,9.8,2.6,11.8,6.7l-5.3,3c-1.1-2.2-3.6-3.6-6.6-3.6c-4.7,0-8.1,3.6-8.1,8.3
	c0,4.6,3.5,8.2,8.2,8.2c3.2,0,5.8-1.5,7.1-4L178.6,181.1z M208.5,188h-8.1l-11.6-12.9V188h-6.2v-39.2h6.2v23.6l11.1-11.8h7.8
	l-12.6,13.2L208.5,188z M206.3,176.4v-5.8H223v5.8H206.3z M239.9,160.1c8,0,14.2,6.2,14.2,14.3s-6.2,14.2-14.2,14.2
	s-14.2-6.1-14.2-14.2S231.9,160.1,239.9,160.1z M239.9,166c-4.5,0-8,3.6-8,8.3c0,4.6,3.5,8.2,8,8.2s8.1-3.6,8.1-8.2
	C247.9,169.6,244.4,166,239.9,166z M267.2,158.4v2.2h7.2v5.9h-7.2V188h-6.2v-21.4h-5.3v-5.9h5.3v-2.5c0-6.8,4.3-10.6,10.3-10.6
	c1.2,0,2.5,0.2,3.4,0.6l-0.3,5.5c-0.5-0.2-1.5-0.3-2.1-0.3C269.4,153.4,267.2,155.3,267.2,158.4z M286.9,158.4v2.2h7.2v5.9h-7.2V188
	h-6.2v-21.4h-5.3v-5.9h5.3v-2.5c0-6.8,4.3-10.6,10.3-10.6c1.2,0,2.5,0.2,3.4,0.6l-0.3,5.5c-0.5-0.2-1.5-0.3-2.1-0.3
	C289.2,153.4,286.9,155.3,286.9,158.4z M307,148.8h8l9.9,15.6l9.7-15.6h7.7L328.1,171v17h-6.6v-17L307,148.8z M350.9,160.1
	c8,0,14.2,6.2,14.2,14.3s-6.2,14.2-14.2,14.2c-8,0-14.2-6.1-14.2-14.2S342.9,160.1,350.9,160.1z M350.9,166c-4.5,0-8,3.6-8,8.3
	c0,4.6,3.5,8.2,8,8.2c4.5,0,8.1-3.6,8.1-8.2C359,169.6,355.5,166,350.9,166z M389.4,160.6h6.3V188h-6.3v-3.7
	c-1.6,2.6-4.9,4.3-8.3,4.3c-6.9,0-11.2-4.8-11.2-12.4v-15.6h6.2v14.6c0,4.4,2.6,7.1,6.5,7.1c2.7,0,5.4-1.5,6.8-3.9V160.6z
	 M414.8,160.1c1.3,0,2.4,0.2,3.1,0.4l-0.4,5.9c-1-0.3-2.2-0.6-3.2-0.6c-2.1,0-5,1.7-6.5,4.7V188h-6.2v-27.4h6.2v3.8
	C409.2,161.7,412.3,160.1,414.8,160.1z M448.9,148.8c7.2,0,12.5,5.1,12.5,12c0,7-5.3,12.1-12.5,12.1h-8.5V188h-6.6v-39.2H448.9z
	 M448.9,166.6c3.4,0,5.9-2.5,5.9-5.8c0-3.2-2.5-5.7-5.9-5.7h-8.5v11.5H448.9z M478.7,160.1c1.3,0,2.4,0.2,3.1,0.4l-0.4,5.9
	c-1-0.3-2.2-0.6-3.2-0.6c-2.1,0-5,1.7-6.5,4.7V188h-6.2v-27.4h6.2v3.8C473.1,161.7,476.2,160.1,478.7,160.1z M496.4,160.1
	c8,0,14.2,6.2,14.2,14.3s-6.2,14.2-14.2,14.2s-14.2-6.1-14.2-14.2S488.4,160.1,496.4,160.1z M496.4,166c-4.5,0-8,3.6-8,8.3
	c0,4.6,3.5,8.2,8,8.2c4.5,0,8.1-3.6,8.1-8.2C504.4,169.6,500.9,166,496.4,166z M518.3,147.9c2.2,0,4,1.8,4,4c0,2.2-1.8,4-4,4
	s-4-1.8-4-4C514.4,149.8,516.1,147.9,518.3,147.9z M511.1,193.2c0.3,0.1,0.6,0.1,0.9,0.1c2.1,0,3.3-1.5,3.3-4.4v-28.2h6.2v28.8
	c0,6-3.4,9.5-9.1,9.5c-0.5,0-1.1,0-1.8-0.1L511.1,193.2z M553.4,173.1c0,0.7-0.1,1.8-0.2,2.7h-20.8c0.7,4.4,3.7,7.1,8.1,7.1
	c3.1,0,5.9-1.3,7.2-3.5l5,3.2c-2,3.7-6.6,5.9-12.3,5.9c-7.9,0-14.2-6.2-14.2-14.4c0-8,6.2-14.1,14.1-14.1
	C547.6,160.1,553.4,165.8,553.4,173.1z M532.5,171h14.3c-0.3-3.4-3.2-5.8-6.9-5.8C536.1,165.2,533.5,167.4,532.5,171z M583,181.1
	c-2.1,4.5-6.9,7.5-12.6,7.5c-8.1,0-14.3-6.1-14.3-14.2s6.2-14.3,14.3-14.3c5.3,0,9.8,2.6,11.8,6.7l-5.3,3c-1.1-2.2-3.6-3.6-6.6-3.6
	c-4.7,0-8.1,3.6-8.1,8.3c0,4.6,3.5,8.2,8.2,8.2c3.2,0,5.8-1.5,7.1-4L583,181.1z M603,182.2l0.3,5.5c-0.9,0.4-2.2,0.7-3.4,0.7
	c-6,0-10.3-3.9-10.3-10.6v-11.2h-5.3v-5.9h5.3v-7.3h6.2v7.3h7.2v5.9h-7.2v10.9c0,3.2,2.2,5.1,5,5.1
	C601.5,182.6,602.4,182.4,603,182.2z"/>
<path class="st5" d="M113.6,250l-9.9-27.4h6.7l5.8,17.8l6.4-17.8h5l6.4,17.8l5.8-17.8h6.7l-9.9,27.4h-5l-6.5-17.8l-6.5,17.8H113.6z
	 M153,209.9c2.2,0,4,1.8,4,4c0,2.2-1.8,4-4,4s-4-1.8-4-4C149,211.8,150.8,209.9,153,209.9z M149.9,222.6h6.2V250h-6.2V222.6z
	 M178,244.2l0.3,5.5c-0.9,0.4-2.2,0.7-3.4,0.7c-6,0-10.3-3.9-10.3-10.6v-11.2h-5.3v-5.9h5.3v-7.3h6.2v7.3h7.2v5.9h-7.2v10.9
	c0,3.2,2.2,5.1,5,5.1C176.6,244.6,177.5,244.4,178,244.2z M197.3,222.1c6.9,0,11.2,4.8,11.2,12.3V250h-6.3v-14.6
	c0-4.4-2.5-7.1-6.4-7.1c-2.7,0-5.5,1.5-6.8,3.8V250h-6.2v-39.2h6.2v15.5C190.6,223.7,193.9,222.1,197.3,222.1z M253.2,250l-3-7.8
	h-16.6l-3.1,7.8h-6.9l15.6-39.2h5.5l15.6,39.2H253.2z M236,235.9h11.7l-5.8-15L236,235.9z M278.5,222.1c7.4,0,13.2,6.3,13.2,14.3
	c0,8-5.8,14.2-13.2,14.2c-3.6,0-7.3-1.8-8.7-4.3v13.3h-6.2v-37h6.2v3.6C271.2,223.8,274.8,222.1,278.5,222.1z M277.2,244.6
	c4.7,0,8.3-3.5,8.3-8.3c0-4.8-3.6-8.3-8.3-8.3c-3.1,0-6.1,1.7-7.4,4.1v8.4C271.1,242.9,274,244.6,277.2,244.6z M321.6,235.1
	c0,0.7-0.1,1.8-0.2,2.7h-20.8c0.7,4.4,3.7,7.1,8.1,7.1c3.1,0,5.9-1.3,7.2-3.5l5,3.2c-2,3.7-6.6,5.9-12.3,5.9
	c-7.9,0-14.2-6.2-14.2-14.4c0-8,6.2-14.1,14.1-14.1C315.9,222.1,321.6,227.8,321.6,235.1z M300.8,233h14.3c-0.3-3.4-3.2-5.8-6.9-5.8
	C304.4,227.2,301.8,229.4,300.8,233z M364.8,250l-3-7.8h-16.6l-3.1,7.8h-6.9l15.6-39.2h5.5l15.6,39.2H364.8z M347.6,235.9h11.7
	l-5.8-15L347.6,235.9z M400.7,243.1c-2.1,4.5-6.9,7.5-12.6,7.5c-8.1,0-14.3-6.1-14.3-14.2s6.2-14.3,14.3-14.3
	c5.3,0,9.8,2.6,11.8,6.7l-5.3,3c-1.1-2.2-3.6-3.6-6.6-3.6c-4.7,0-8.1,3.6-8.1,8.3c0,4.6,3.5,8.2,8.2,8.2c3.2,0,5.8-1.5,7.1-4
	L400.7,243.1z M420.7,244.2l0.3,5.5c-0.9,0.4-2.2,0.7-3.4,0.7c-6,0-10.3-3.9-10.3-10.6v-11.2h-5.3v-5.9h5.3v-7.3h6.2v7.3h7.2v5.9
	h-7.2v10.9c0,3.2,2.2,5.1,5,5.1C419.2,244.6,420.1,244.4,420.7,244.2z M428.5,209.9c2.2,0,4,1.8,4,4c0,2.2-1.8,4-4,4s-4-1.8-4-4
	C424.6,211.8,426.4,209.9,428.5,209.9z M425.4,222.6h6.2V250h-6.2V222.6z M463.4,222.6L451.9,250h-5.4L435,222.6h6.8l7.4,19l7.3-19
	H463.4z M485.6,222.6h6.2V250h-6.2v-3.7c-1.5,2.5-5.1,4.3-8.7,4.3c-7.4,0-13.2-6.3-13.2-14.3c0-8,5.8-14.2,13.2-14.2
	c3.6,0,7.3,1.8,8.7,4.3V222.6z M478.1,244.6c3.1,0,6.1-1.7,7.4-4.1v-8.4c-1.3-2.4-4.3-4.1-7.4-4.1c-4.7,0-8.3,3.5-8.3,8.3
	S473.4,244.6,478.1,244.6z M513.7,244.2l0.3,5.5c-0.9,0.4-2.2,0.7-3.4,0.7c-6,0-10.3-3.9-10.3-10.6v-11.2h-5.3v-5.9h5.3v-7.3h6.2
	v7.3h7.2v5.9h-7.2v10.9c0,3.2,2.2,5.1,5,5.1C512.3,244.6,513.2,244.4,513.7,244.2z M529.8,222.1c8,0,14.2,6.2,14.2,14.3
	s-6.2,14.2-14.2,14.2s-14.2-6.1-14.2-14.2S521.8,222.1,529.8,222.1z M529.8,228c-4.5,0-8,3.6-8,8.3c0,4.6,3.5,8.2,8,8.2
	s8.1-3.6,8.1-8.2C537.8,231.6,534.3,228,529.8,228z M561.9,222.1c1.3,0,2.4,0.2,3.1,0.4l-0.4,5.9c-1-0.3-2.2-0.6-3.2-0.6
	c-2.1,0-5,1.7-6.5,4.7V250h-6.2v-27.4h6.2v3.8C556.3,223.7,559.4,222.1,561.9,222.1z M135,272.8v6.3h-12V312h-6.6v-32.9h-12v-6.3
	H135z M145.2,284.1c8,0,14.2,6.2,14.2,14.3s-6.2,14.2-14.2,14.2s-14.2-6.1-14.2-14.2S137.2,284.1,145.2,284.1z M145.2,290
	c-4.5,0-8,3.6-8,8.3c0,4.6,3.5,8.2,8,8.2s8.1-3.6,8.1-8.2C153.3,293.6,149.7,290,145.2,290z M184.1,272.8h6.2V312h-6.2v-3.7
	c-1.5,2.5-5.1,4.3-8.7,4.3c-7.4,0-13.2-6.3-13.2-14.3c0-8,5.8-14.2,13.2-14.2c3.6,0,7.3,1.8,8.7,4.3V272.8z M176.6,306.6
	c3.1,0,6.1-1.7,7.4-4.1v-8.4c-1.3-2.4-4.3-4.1-7.4-4.1c-4.7,0-8.3,3.5-8.3,8.3S171.9,306.6,176.6,306.6z M216.3,284.6h6.2V312h-6.2
	v-3.7c-1.5,2.5-5.1,4.3-8.7,4.3c-7.4,0-13.2-6.3-13.2-14.3c0-8,5.8-14.2,13.2-14.2c3.6,0,7.3,1.8,8.7,4.3V284.6z M208.9,306.6
	c3.1,0,6.1-1.7,7.4-4.1v-8.4c-1.3-2.4-4.3-4.1-7.4-4.1c-4.7,0-8.3,3.5-8.3,8.3S204.2,306.6,208.9,306.6z M247.3,284.6h6.7l-15.5,37
	h-6.7l4.9-11.1L226,284.6h6.7l7.3,18.6L247.3,284.6z M258.2,272.8h6.7l-0.2,27.8h-6.3L258.2,272.8z M261.5,312.6
	c-2.4,0-4.3-1.9-4.3-4.3c0-2.4,1.9-4.3,4.3-4.3c2.5,0,4.3,1.8,4.3,4.3C265.8,310.7,264,312.6,261.5,312.6z"/>
<g>
	<defs>
		<rect id="SVGID_00000101075095099669384060000007248359796434715531_" x="633" width="473" height="489"/>
	</defs>
	<clipPath id="SVGID_00000149359402279248510070000014546177838519877309_">
		<use xlink:href="#SVGID_00000101075095099669384060000007248359796434715531_"  style="overflow:visible;"/>
	</clipPath>
	<g style="clip-path:url(#SVGID_00000149359402279248510070000014546177838519877309_);">
		<path class="st7" d="M726.1,234.6l-7.6-0.5c0.1-1.2,2.5-30.2,30.4-49.9c26-18.3,47.4-44.8,47.7-45.1l5.9,4.8
			c-0.9,1.1-22.3,27.6-49.2,46.5C728.3,208.1,726.2,234.4,726.1,234.6z"/>
		<path class="st8" d="M1019.9,233.7c-2.3-20.7-12.5-28.4-32.8-43.8c-2.1-1.6-4.4-3.3-6.8-5.1c-24.9-19.1-31.7-50-31.7-50.3l2.6-0.6
			c0.1,0.3,6.6,30.1,30.7,48.6c2.4,1.8,4.6,3.5,6.7,5.1c20.2,15.3,31.4,23.8,33.8,45.7L1019.9,233.7z"/>
		<path class="st9" d="M1001.1,229.1c-5.8-7.3-5.7-16.4-5.6-25.2c0.2-12.1,0.3-22.6-14.7-27.3c-28.1-8.8-40.1-26-40.6-26.7l3.1-2.2
			l-1.6,1.1l1.6-1.1c0.1,0.2,11.8,16.8,38.6,25.2c17.8,5.6,17.6,18.5,17.4,31c-0.1,8.5-0.2,16.5,4.7,22.7L1001.1,229.1z"/>
		<path class="st10" d="M764,172.5c-2,1.7-4,3.4-6,5c-4,2-7.3,4.4-9.7,7.3c-2,2.4-3.5,5.3-4.2,8.7c-0.5,2.2-1.1,4.5-1.7,6.8
			c-3.4,12.1-8.3,23.3-8.4,23.4l-2-0.9c0-0.1,3.6-8.4,6.8-18.3c1.2-3.7,2.3-7.6,3.1-11.5c0.3-1.6,0.8-3,1.4-4.4
			C746.7,180.9,753.8,176.3,764,172.5z"/>
		<path class="st10" d="M806.1,144.9c-0.2,0.8-6,19.1-25.6,24.6c-0.9,0.3-1.8,0.5-2.7,0.8c1.2-1.1,2.3-2.2,3.4-3.3
			c17.3-5.7,22.7-22.6,22.7-22.8L806.1,144.9z"/>
		<path class="st11" d="M805.6,538.9c0,0,79.6,1.5,106.3-53.7l-110.2-40.4L805.6,538.9z"/>
		<path class="st12" d="M794.3,464.8c0,0,87.8,47.9,152.3,57.1v-86.4l-148.2,5L794.3,464.8z"/>
		<path class="st13" d="M815.8,469c0,0,71,27.7,126.6,27.4"/>
		<path class="st14" d="M808.1,403.8c0,0,97.2,1.3,135.1-1.8l0.5,53.8c0,0-55.2,16.6-137.4,13.5L808.1,403.8z"/>
		<path class="st15" d="M873.3,434l-1.4,4.1h0L873.3,434L873.3,434z"/>
		<path class="st16" d="M854.7,459h10.2l4.2-12.5h-10.2L854.7,459z"/>
		<path class="st16" d="M848.7,446.5h10.2l4.2-12.5h-10.2L848.7,446.5z"/>
		<path class="st16" d="M891.9,459h-10.2l-4.2-12.5H869l2.8-8.4l1.4-4.1h-10.2l4.2-12.5h11.9L891.9,459z"/>
		<path class="st13" d="M801.8,431c0,0,59.8,1.8,93.9-5.4"/>
		<path class="st13" d="M836.4,450c0,0,75.2,6.5,114.7-2"/>
		<path class="st13" d="M811.4,408.7c0,0,77,7.6,121.8-1.2"/>
		<path class="st13" d="M848.3,479.9c0,0,45.9,13.4,91.2,7.7"/>
		<path class="st17" d="M803.1,405.3c0,0,48,2.6,66,3.5c0,0,4.1,0.1,4.2-4.2V290.9l-68.4-0.4L803.1,405.3z"/>
		<path class="st17" d="M943.2,405.3c0,0-48,2.6-66,3.5c0,0-4.1,0.1-4.2-4.2V290.9l68.4-0.4L943.2,405.3z"/>
		<path class="st18" d="M957.1,176.8c0,0-22.7-11.2-37.3-15.8c-14.6-4.7-43.3-7.5-43.3-7.5v45.3l22.5,10c0,0,6-4,8.7-3.4
			c16.4,3.4,32.8,5.9,45.8,14.2C953.6,219.7,963.3,215.3,957.1,176.8z"/>
		<path class="st19" d="M954,214.9c0,0-21.3-6.4-39.8-10.1c-5.8-1.2-11.9,0.1-16.9,3.3l-6.8,4.5l-13.5,15.4c-2.6,2.9-4,6.7-4,10.7
			v50c0,0,0.1,7.9,6.8,7.9h60.1L954,214.9z"/>
		<path class="st18" d="M787.9,175.5c0,0,24.1-9.8,38.7-14.5c14.6-4.7,43.3-7.5,43.3-7.5v45.3l-21,11.4c0,0-7.5-5.3-10.3-4.8
			c-16.4,3.4-32.8,5.9-45.8,14.2C792.7,219.7,781.6,214,787.9,175.5z"/>
		<path class="st19" d="M792.3,214.9c0,0,24.2-7.3,43.4-10.8c3.6-0.7,7.4,0.1,10.5,2.2l9.6,6.3l12.7,14.6c3,3.5,4.7,7.9,4.7,12.5
			v48.9c0,0-0.1,7.9-6.8,7.9h-60.1L792.3,214.9z"/>
		<path class="st20" d="M851.9,211.6c-16-10.8-20.9-24.4-20.9-24.4l12.4,0.3C843.7,192.6,845.3,204,851.9,211.6z"/>
		<path class="st21" d="M870.1,231.8L870.1,231.8l-4.6-5.1c-12.9-16.4-12.7-34.7-12.5-39l11.6,0.3
			C863.5,193.7,861.9,209.6,870.1,231.8z"/>
		<path class="st22" d="M865.5,226.7l-13.6-15.1c-6.6-7.6-8.1-18.9-8.5-24.1l9.6,0.2C852.8,192,852.5,210.2,865.5,226.7z"/>
		<path class="st23" d="M873.2,188.2v47.1l-3.2-3.5v0c-8.2-22.2-6.5-38.1-5.5-43.8L873.2,188.2z"/>
		<path class="st13" d="M843.3,184.8c0,0-0.1,16.7,8.6,26.8"/>
		<path class="st13" d="M849.3,185.5c0,0-4.2,6.3-3.7,13.7"/>
		<path class="st13" d="M853.1,186.8c0,0-2.6,23.2,14.7,42.5"/>
		<path class="st13" d="M865.1,185.7c0,0-5.3,17.9,5,46.1"/>
		<path class="st20" d="M894.4,211.6c16-10.8,20.9-24.4,20.9-24.4l-12.4,0.3C902.5,192.6,901,204,894.4,211.6z"/>
		<path class="st21" d="M876.2,231.8L876.2,231.8l4.6-5.1c12.9-16.4,12.7-34.7,12.5-39l-11.6,0.3
			C882.7,193.7,884.3,209.6,876.2,231.8z"/>
		<path class="st22" d="M880.8,226.7l13.6-15.1c6.6-7.6,8.1-18.9,8.5-24.1l-9.6,0.2C893.5,192,893.7,210.2,880.8,226.7z"/>
		<path class="st23" d="M873,188.2v47.1l3.2-3.5v0c8.2-22.2,6.5-38.1,5.5-43.8L873,188.2z"/>
		<path class="st13" d="M903,184.8c0,0,0.1,16.7-8.6,26.8"/>
		<path class="st13" d="M897,185.5c0,0,4.2,6.3,3.7,13.7"/>
		<path class="st13" d="M893.2,186.8c0,0,2.6,23.2-14.7,42.5"/>
		<path class="st13" d="M881.2,185.7c0,0,5.3,17.9-5,46.1"/>
		<path class="st13" d="M873.2,235.2l2.9-3.2l4.6-5.1l13.6-15.1c16-10.8,20.9-24.4,20.9-24.4l-12.4,0.3l-9.6,0.2l-11.6,0.3l-8.6,0.2
			l-8.6-0.2L853,188l-9.6-0.2l-12.4-0.3c0,0,4.9,13.5,20.9,24.4l13.6,15.1l4.6,5.1l2.9,3.2H873.2z"/>
		<path class="st13" d="M808,356.5l64.6,8.4l68.5-9"/>
		<path class="st24" d="M694.6,258.3l83.9-54.6c0,0,22.3,70.1,23.3,106.5c1,36.4,3.3,271,3.3,271H674.6L694.6,258.3z"/>
		<path class="st25" d="M702.1,268.2l69.1-22.4l-2.4-55.4c0,0-40.6,19.9-58.6,35.9c-18,16-17,24.3-17,24.3s0.9-1,2.9-0.5
			C700.4,251.2,702.1,268.2,702.1,268.2z"/>
		<path class="st13" d="M707.1,229.5c0,0,6.1,2.2,9.4,13c3.4,10.8,5.1,19.1,5.1,19.1"/>
		<path class="st13" d="M723.1,216.9c0,0,5.5,2.4,10.2,14.1c4.7,11.7,8,24.4,8,24.4"/>
		<path class="st13" d="M740.9,205.4c0,0,7.8,2.1,11.6,16.1c3.8,14,6.4,28.3,6.4,28.3"/>
		<path class="st13" d="M702.1,268.2l69.1-22.4l-2.4-55.4c0,0-40.6,19.9-58.6,35.9c-18,16-17,24.3-17,24.3s0.9-1,2.9-0.5
			C700.4,251.2,702.1,268.2,702.1,268.2z"/>
		<path class="st13" d="M709,326.5c0,0,3.6-11.8,3.9-25.4"/>
		<path class="st26" d="M771.3,245.7l-12.4,4c-18.7-31.5-9.9-48.9-9.9-48.9c11.2-6.2,19.9-10.5,19.9-10.5L771.3,245.7z"/>
		<path class="st27" d="M749.3,252.8l22-7l12.1,45.6c0,0,5.9,27.6,5.1,50c-0.8,22.4-2.7,240.7-2.7,240.7h-9.7l3.1-227.4l-6.7,2.1
			c0,0,5.9-48.3-1.1-77.5C764.4,250.1,749.3,252.8,749.3,252.8z"/>
		<path class="st28" d="M812.6,582.6c0,0-0.2-179.6,0-226c0.2-57.9-5.7-89.3-11.2-109.9c-15.1-56.4-0.1-75.5-0.1-75.5l7.2-3.3
			c0,0-2.5-2.9-7.5-2c-5,0.9-27.8,17.2-30.6,20.5c-2.8,3.3-6.8,8-2.7,49.7c3.5,36.7,11.3,40.6,14,71.4s1.3,274.8,1.3,274.8
			L812.6,582.6z"/>
		<path class="st24" d="M1045.1,258.3L963,203.7c0,0-21.8,70.1-22.8,106.5c-1,36.4-3.3,271-3.3,271h127.7L1045.1,258.3z"/>
		<path class="st25" d="M1037.7,268.2l-67.7-22.4l2.3-55.4c0,0,39.7,19.9,57.3,35.9c17.6,16,16.6,24.3,16.6,24.3s-0.9-1-2.8-0.5
			C1039.4,251.2,1037.7,268.2,1037.7,268.2z"/>
		<path class="st13" d="M1032.9,229.5c0,0-5.9,2.2-9.2,13c-3.3,10.8-5,19.1-5,19.1"/>
		<path class="st13" d="M1017.2,216.9c0,0-5.4,2.4-9.9,14.1c-4.6,11.7-7.8,24.4-7.8,24.4"/>
		<path class="st13" d="M999.8,205.4c0,0-7.7,2.1-11.4,16.1c-3.7,14-6.2,28.3-6.2,28.3"/>
		<path class="st13" d="M1037.7,268.2l-67.7-22.4l2.3-55.4c0,0,39.7,19.9,57.3,35.9c17.6,16,16.6,24.3,16.6,24.3s-0.9-1-2.8-0.5
			C1039.4,251.2,1037.7,268.2,1037.7,268.2z"/>
		<path class="st13" d="M1031,326.5c0,0-3.5-11.8-3.8-25.4"/>
		<path class="st26" d="M970.1,245.7l12.2,4c18.3-31.5,9.7-48.9,9.7-48.9c-10.9-6.2-19.5-10.5-19.5-10.5L970.1,245.7z"/>
		<path class="st27" d="M991.6,252.8l-21.6-7l-11.8,45.6c0,0-5.8,27.6-5,50s2.6,240.7,2.6,240.7h9.5l-3.3-232.2l6.8,6.1
			c0,0-5.8-47.5,1-76.7C976.8,250.1,991.6,252.8,991.6,252.8z"/>
		<path class="st28" d="M929.6,582.6c0,0,0.2-179.6,0-226c-0.2-57.9,5.6-89.3,11-109.9c10.7-40.9,6-62.9,2.5-71.8
			c-1.1-3-3.3-5.4-6-6.9l-2.7-1.5c0,0,1.7-1.5,6.6-0.6c4.9,0.9,28.3,16,31,19.3c2.7,3.3,5.5,9.1,1.6,50.8
			c-3.4,36.7-11.1,40.6-13.7,71.4c-2.6,30.8-1.3,274.8-1.3,274.8L929.6,582.6z"/>
		<path class="st29" d="M968.8,182.6c-8-5.9-22.8-15.5-26.2-16.1c-3.8-0.7-4.4-1.9-8.1,0c-6.3-2.4-9.6-3.8-15.1-5.5
			c-14.6-4.7-43.3-7.5-43.3-7.5v34.6l-3.1,0.1l-3.1-0.1v-34.6c0,0-28.6,2.8-43.3,7.5c-5.4,1.7-12.2,4.2-18.5,6.6
			c-0.9-0.8-3.3-2.3-7.1-1.6c-3.4,0.6-14.9,8.2-22.8,14.1c-0.6,3.1-0.9,8.2,2.4,12.6c-1.3,4.1-3.1,11.9-0.7,19.1
			c2.1,6.2,6.3,10.1,10.1,13.5c2.3,2.1,4.3,3.6,5.9,5.5c0.7,0.9,1.9,2.9,2.7,4.2c0.8,3.8,1.7,7.7,2.7,11.2c3.7,13,5.8,27,8,41
			c2.3,14,3.4,43.4,3.4,43.4v252.7h13.5c-3.8-5.9-3.3-37.7-2.7-42.1l10.8-4.9c-4.2,0.8-7.3,1.3-8.9,1.5c-5-10.4,0.4-16.8,0.4-16.8
			l1.3-0.2c0,0-0.9-10.4-5.7-20.9c-1.7-3.7-2-7.4-1.5-10.5c5.9,1.1,31.5,6.2,62.6,15.5c-0.8-0.3-49.1-19.5-59-25.2l-2-1
			c0,0,1.9-2.2,5.7-1.9l28.2,5.1c-0.7-0.2-23.2-6.6-30.7-9.6c0.8-1.3,0.4-2.5,0.4-2.5l1.3,0.1c-3.4-12-0.8-17.9,2.7-20.9
			c3.5-3-1.8-8.5-3.9-12.4c-2-3.9,0.5-5.2,0.5-5.2s0,0-0.1-0.1c17.6-0.1,49.6-2.8,53.5-3.1c-23,1.9-55.8-4.9-61-6
			c-0.3-0.8-0.6-1.6-0.8-2.5c-1.7-7.1,3.1-10,3.1-10l1.9,0.1c0.7-0.4,1.1-1,1.2-1.5l45.4,2.1c0,0,2.4,0.5,3.8-0.9
			c0,0,0.7,1.2,3.2,0.9l43.7-2.8l2.1,2.1c0.1,0,3.7,0.1,3.7,15.5c0,15.5-52.7,27-52.7,27s37.7,0.8,46.5-0.5c0,0,4.3,8.2-6.3,11
			c0,0-7.9,15.5,6.1,26.5c0,0,4.4-0.2,4.2,6.4l-4-0.2c0,0,8.7,10,4,21.6l-6.1-0.9l4.9,3.3l-0.9,63.7h7.9l0.7-171.7l-0.3-80.7
			c0,0,1.2-29.4,3.4-43.4c2.3-14,4.3-28,8-41c3.8-13,6-32.2,6-32.2l0.1-6.8c0.3-0.6,0.2-0.9,0.2-0.9c2.1-5.2,9.8-5.1,16.8-12.1
			C968.8,189.5,969.5,186,968.8,182.6z M823.7,471.8c-0.2-0.1-0.4-0.2-0.6-0.3L823.7,471.8z M796.7,225.7c-1.2-1.3-2.5-2.5-3.9-3.8
			c-3.5-3.2-7.2-6.6-8.9-11.7c-1.7-4.9-0.9-10.4,0.1-14.1c5.7,4.8,8.9,4,10.7,8.6c0,0,0.1,0.1,0.2,0.2l0.1,5.7
			c-0.2-0.2-0.4-0.3-0.6-0.5l0.7,3l0,0.8c0,0,0.7,6.1,2,13.7L796.7,225.7z M797.7,212.3c-0.4-2.1-0.5-4.2-0.5-5.5
			c1.6,1.3,4.1,2.9,7.2,4.5c0.2,0.1,1.9-0.5,1.9-0.5s0.5,0.2,0.7,0.3c3.3,1.6,6.9,3.2,10.4,4.7c-0.6,0.1-1.1,0.1-1.7,0.2
			C807.8,216.7,801.8,214.7,797.7,212.3z M944.4,212.3l-1.4-0.6c0,0-3.3,18.8-7.2,34.2c-6.4,25.2-8.2,50.7-8.2,50.7l-1,0.1
			c0,0-2,25-3,35.7c-0.3,3.6-0.8,13.2-1.2,24.3l-0.6,19.2c0,0-5.4-6-8.8-2c-3.4,4,1.1,10.4,4.5,13.7c3.4,3.3,8.4,12,8.4,12l-8.6,6.7
			l-41.6,2.4c0,0-2.4-0.8-2.5-2.5c0,0-0.8,2.4-4.3,2.6l-47.5-2.6l0-0.5c0-0.1,0-0.3,0-0.5c0-0.4,0-0.8,0-1.3l-0.1-2.4l0.1-8.6
			c0,0,2.9-4.7,6.4-6.3c3.5-1.6,10.7-7.3,11.2-11.8c0.4-4.5-4.3-7.7-7.7-7c-1.4,0.3-1.2-3.3-0.5-7.8l-4.8,5.6l-5.6,6.5
			c-0.6-16.9-1.3-34.8-1.9-40c-1-10.7-3-35.7-3-35.7l-1-0.1c0,0-1.8-25.5-8.2-50.7c-0.5-2.1-1-4.2-1.5-6.3l-1.3-5.6
			c-1.5-6.4-2.7-12.3-3.5-16.2c3.6,1.6,7.9,2.7,12.9,2.7c1.1,0,2.2,0,3.4-0.2c3.2-0.3,6.4-0.8,9.5-1.7c15.1-4.3,16.7-13.1,22-10.1
			c0,0-9.7-7.5-0.8-5.5c0,0,0.5,5.5,8.6,4.1c0,0,2.9,2.5,9.3,3.5c0,0,3.4-2.2,7.6-2.1c4.4,0.1,9.3,2,9.3,2c6.4-1,9.1-3.7,9.1-3.7
			c2.6,0,8.4-4.1,9.3-5c0,0,6-0.8,2.4,3.4c-0.1,0.1-7.4,5.6-8.1,6.2l-4.2,4.6c7.5-5.7,21.6-2.8,34.4-2.1c6.5,0.3,8.9-0.2,14.3-2.8
			c0.2-0.1,0.7-0.3,0.7-0.3s1.8,0.6,1.9,0.5c1.4-0.7,2.5-1.3,3.3-1.9C944.6,210.6,944.7,211,944.4,212.3z M879.3,428.1
			c0,0-0.1,0-0.2,0C879.2,428.1,879.3,428.1,879.3,428.1z"/>
		<path class="st30" d="M785,363.6v219.2h-24.3V396.5L785,363.6z"/>
		<path class="st31" d="M806.1,363.6v219.2h-23.3V396.5L806.1,363.6z"/>
		<path class="st30" d="M952.6,363.6v219.2h24.3V396.5L952.6,363.6z"/>
		<path class="st31" d="M939.4,363.6v219.2h23v-200L939.4,363.6z"/>
		<path class="st32" d="M933.1,367.5c2.6,4.3,6.4,9.2,10.6,14c12.6,13.9,25.9,16.2,28.1,16.5c0.2-2.7,0.3-5.7,0.4-8.6
			c-6.4-18.5-26.7-29-31.5-31.2L933.1,367.5z"/>
		<path class="st32" d="M923.5,379.4c22.6,7.2,47.1,35.7,47.1,35.7s0.2-2.4,0.5-6.2v0l0-0.4c0,0-28-24.4-37.9-41.1L923.5,379.4z"/>
		<path class="st23" d="M943.7,381.5c12,13.7,27.3,27.1,27.3,27.1l0,0.4c0.2-2.9,0.5-6.8,0.7-11
			C969.6,397.7,956.3,395.4,943.7,381.5z"/>
		<path class="st21" d="M972.2,389.3c0.5-13.9,0.2-28.9-2.9-32.9c-6.2-7.8-15.1-15-15.1-15l-13.5,16.6
			C945.6,360.4,965.8,370.8,972.2,389.3z"/>
		<path class="st13" d="M948.7,348.5c0,0,19,9,23.6,23.3"/>
		<path class="st13" d="M972.6,383.5c0,0-3.4-15.1-8.9-24.3"/>
		<path class="st13" d="M939.7,357.7c0,0,25.9,10.9,32.8,32.5"/>
		<path class="st13" d="M971,408.6c0,0-28.9-25.2-38.4-41.9"/>
		<path class="st13" d="M972.2,398c0,0-15.9-1.5-30.2-18.6c0,0-9-10.2-10.1-14.8"/>
		<path d="M972.2,389.3c-0.1,3-0.2,5.9-0.4,8.6c0.2,0,0.3,0,0.3,0l0.4-7.8C972.4,389.9,972.3,389.6,972.2,389.3z"/>
		<path class="st13" d="M947.9,386.1C947.9,386.1,947.9,386.1,947.9,386.1 M923.5,379.4c22.7,7.1,47.1,35.7,47.1,35.7
			s0.2-2.4,0.5-6.2v0c0.2-2.9,0.5-6.8,0.7-11c0.1,0,0.2,0,0.2,0c0,0,0.1,0,0.1,0c0,0,0,0,0,0h0l0.4-7.8c0,0,0,0,0,0l0,0
			c-0.1-0.2-0.1-0.3-0.2-0.5c0-0.1-0.1-0.2-0.1-0.4c0.1-2.1,0.1-4.3,0.2-6.4l0.2,0.6c0,0-0.1-0.3-0.2-0.9c0.1-3.8,0-7.5-0.1-10.9
			l0.1,0.1c0-0.1-0.1-0.2-0.1-0.3c-0.3-7.1-1.2-12.8-2.9-15c-6.2-7.8-15.1-15-15.1-15l-13.5,16.6c-0.7-0.3-1-0.5-1-0.5l0.8,0.8
			l-6.5,8l-2.1-1.8c0.2,0.8,0.6,1.8,1.2,2.9L923.5,379.4z M952.7,391.1C952.7,391.1,952.7,391.1,952.7,391.1
			C952.6,391.1,952.7,391.1,952.7,391.1C952.7,391.1,952.7,391.1,952.7,391.1z M951.1,389.5C951.1,389.5,951.1,389.5,951.1,389.5
			C951.1,389.5,951.1,389.5,951.1,389.5C951.1,389.5,951.1,389.5,951.1,389.5z"/>
		<path class="st32" d="M810.8,368c-2.6,4.3-6.4,9.2-10.6,14c-12.6,13.9-25.9,16.2-28.1,16.5c-0.2-2.7-0.3-5.7-0.4-8.6
			c6.4-18.5,26.7-29,31.5-31.2L810.8,368z"/>
		<path class="st32" d="M820.5,379.9c-22.6,7.2-47.1,35.7-47.1,35.7s-0.2-2.4-0.5-6.2v0l0-0.4c0,0,28-24.4,37.9-41.1L820.5,379.9z"
			/>
		<path class="st23" d="M800.3,382c-12,13.7-27.3,27.1-27.3,27.1l0,0.4c-0.2-2.9-0.5-6.8-0.7-11C774.3,398.2,787.6,395.9,800.3,382z
			"/>
		<path class="st21" d="M771.7,389.9c-0.5-13.9-0.2-28.9,2.9-32.9c6.2-7.8,15.1-15,15.1-15l13.5,16.6
			C798.4,360.9,778.2,371.4,771.7,389.9z"/>
		<path class="st13" d="M795.2,349c0,0-19,9-23.6,23.3"/>
		<path class="st13" d="M771.3,384.1c0,0,3.4-15.1,8.9-24.3"/>
		<path class="st13" d="M804.2,358.2c0,0-25.9,10.9-32.8,32.5"/>
		<path class="st13" d="M772.9,409.1c0,0,28.9-25.2,38.4-41.9"/>
		<path class="st13" d="M771.8,398.6c0,0,15.9-1.5,30.2-18.6c0,0,9-10.2,10.1-14.8"/>
		<path d="M771.7,389.9c0.1,3,0.2,5.9,0.4,8.6c-0.2,0-0.3,0-0.3,0l-0.4-7.8C771.5,390.5,771.6,390.2,771.7,389.9z"/>
		<path class="st13" d="M810.8,368.1c0.6-1.1,1-2.1,1.2-2.9l-2.1,1.8l-6.5-8l0.8-0.8c0,0-0.4,0.2-1,0.5l-13.5-16.6
			c0,0-8.9,7.2-15.1,15c-1.8,2.2-2.6,7.9-2.9,15c0,0.1-0.1,0.2-0.1,0.3l0.1-0.1c-0.2,3.4-0.2,7.1-0.1,10.9c-0.1,0.6-0.2,0.9-0.2,0.9
			l0.2-0.6c0,2.1,0.1,4.3,0.2,6.4c0,0.1-0.1,0.2-0.1,0.4c-0.1,0.2-0.1,0.3-0.2,0.5l0,0c0,0,0,0,0,0l0.4,7.8h0c0,0,0,0,0,0
			c0,0,0,0,0.1,0c0,0,0.1,0,0.2,0c0.2,4.2,0.5,8,0.7,11v0c0.3,3.8,0.5,6.2,0.5,6.2s24.4-28.6,47.1-35.7L810.8,368.1z M791.3,391.7
			C791.3,391.7,791.3,391.6,791.3,391.7C791.3,391.7,791.3,391.7,791.3,391.7C791.3,391.7,791.3,391.7,791.3,391.7z M792.8,390.1
			C792.9,390,792.9,390,792.8,390.1C792.9,390,792.8,390,792.8,390.1C792.8,390.1,792.8,390.1,792.8,390.1z M796.1,386.6
			C796.1,386.6,796,386.7,796.1,386.6C796.1,386.7,796.1,386.6,796.1,386.6z"/>
		<path class="st10" d="M754.6,475.6l0.3-4.1c10.5,0.8,18.8-10.4,24.7-33.3c4.9-19.2,6.5-40.7,7-47.8c1.2-16,5.1-20.3,5.5-20.8
			l2.9,2.9l-1.4-1.5l1.5,1.4c0,0-3.3,3.9-4.3,18.2c-0.5,7.1-2.1,28.9-7.1,48.5C777.1,464.3,767.3,476.5,754.6,475.6z"/>
		<path class="st24" d="M633.6,582.6c0,0-0.8-164.6,0-174.8c1.8-22.4,9.7-34.2,13.6-56.5c3.8-21.5,20.4-77.4,49.1-110.1l3.4-3.7
			c0,0,2.6-5,6.9,3.5c4.7,9.4,1.1,31.1,2.5,43.7c1,9,0.6,25.5,0,41.8c-0.5,13.8-5.5,33.2-3.4,43.7c0,0,2-0.1,2.5,2.1
			c0.3,1.2-0.6,2.6-0.6,2.6s3.4-1.1,12.8-3.7c9.3-2.6,8.7,0.5,13.2-0.6c4.5-1.2,25.7-9.9,25.7-9.9V582L633.6,582.6z"/>
		<path class="st13" d="M633.6,582.6c0,0-0.8-164.6,0-174.8c1.8-22.4,9.7-34.2,13.6-56.5c3.8-21.5,20.4-77.4,49.1-110.1l3.4-3.7
			c0,0,2.6-5,6.9,3.5c4.7,9.4,1.1,31.1,2.5,43.7c1,9,0.6,25.5,0,41.8c-0.5,13.8-5.5,33.2-3.4,43.7c0,0,2-0.1,2.5,2.1
			c0.3,1.2-0.6,2.6-0.6,2.6s3.4-1.1,12.8-3.7c9.3-2.6,8.7,0.5,13.2-0.6c4.5-1.2,25.7-9.9,25.7-9.9V582L633.6,582.6z"/>
		<path class="st13" d="M707.5,375c0,0-4.5,1.7-11.6,2.1c-9,0.5-5.6-6.1-19.8-0.3"/>
		<path class="st13" d="M733.5,370.7c0,0-9.2,2.5-18,6.6"/>
		<path class="st13" d="M705.8,371.2c0,0-4.8,0.5-10.3-3.9c-3.9-3.1-10.3-6.2-18.7-6.2"/>
		<path class="st26" d="M709,326.5c-0.4,13.8-5.5,33.2-3.4,43.7c0,0,2-0.1,2.5,2.1c0.2,1-0.3,2-0.5,2.4c-2.2,0.6-5,1.2-7.9,1.9
			c-7.8,1.8-9.8-0.8-9.8-0.8s3.3-5.1,1.8-7.9c-1.4-2.8-5.1-5.2-5.3-5.4c14.1,3.5,16-8.6,18.4-17.7c2.4-9.1,0.5-20.9,0.5-20.9
			c3.8-4.7,3.9-20.1,3.9-20.1l0.3,4.5C709.4,314.3,709.2,320.4,709,326.5z"/>
		<path class="st24" d="M1105.4,582.6c0,0,0.8-164.6,0-174.8c-1.8-22.4-9.7-34.2-13.6-56.5c-3.8-21.5-19.4-77.7-48.1-110.4l-3.4-3.7
			c0,0-2.6-5-6.9,3.5c-4.7,9.4-2.1,31.5-3.4,44.1c-1,9-0.6,25.5,0,41.8c0.4,13.8,5.5,33.2,3.4,43.7c0,0-2-0.1-2.5,2.1
			c-0.3,1.2,0.6,2.6,0.6,2.6s-3.4-1.1-12.8-3.7c-9.3-2.6-8.7,0.5-13.2-0.6c-4.5-1.2-25.7-9.9-25.7-9.9V582L1105.4,582.6z"/>
		<path class="st13" d="M1105.4,582.6c0,0,0.8-164.6,0-174.8c-1.8-22.4-9.7-34.2-13.6-56.5c-3.8-21.5-19.4-77.7-48.1-110.4l-3.4-3.7
			c0,0-2.6-5-6.9,3.5c-4.7,9.4-2.1,31.5-3.4,44.1c-1,9-0.6,25.5,0,41.8c0.4,13.8,5.5,33.2,3.4,43.7c0,0-2-0.1-2.5,2.1
			c-0.3,1.2,0.6,2.6,0.6,2.6s-3.4-1.1-12.8-3.7c-9.3-2.6-8.7,0.5-13.2-0.6c-4.5-1.2-25.7-9.9-25.7-9.9V582L1105.4,582.6z"/>
		<path class="st13" d="M1031.5,375c0,0,4.5,1.7,11.6,2.1c9,0.5,5.6-6.1,19.8-0.3"/>
		<path class="st13" d="M1005.5,370.7c0,0,9.2,2.5,18,6.6"/>
		<path class="st13" d="M1033.2,371.2c0,0,4.8,0.5,10.2-3.9c3.9-3.1,10.3-6.2,18.7-6.2"/>
		<path class="st26" d="M1030,326.5c0.4,13.8,5.5,33.2,3.3,43.7c0,0-2-0.1-2.5,2.1c-0.2,1,0.3,2,0.6,2.4c2.2,0.6,4.9,1.2,7.9,1.9
			c7.8,1.8,9.8-0.8,9.8-0.8s-3.3-5.1-1.8-7.9c1.4-2.8,5-5.2,5.3-5.4c-14,3.5-16-8.6-18.4-17.7c-2.4-9.1-0.5-20.9-0.5-20.9
			c-3.8-4.7-3.9-20.1-3.9-20.1l-0.3,4.5C1029.6,314.3,1029.8,320.4,1030,326.5z"/>
		<path class="st28" d="M962.7,349c-2.3-4.7,19.8,8.7,27.6,12.2c3.9,1.7,8.3,9.2,9.9,24.5c1.7,16.1,1.1,74.1,1.1,74.1V583l-32.7-0.1
			c0,0,2.5-149.7,2.5-200.2C971.1,357,965.3,354.4,962.7,349z"/>
		<path class="st28" d="M782.4,349c2.3-4.7-19.8,8.7-27.6,12.2c-3.9,1.7-8.3,9.2-9.9,24.5c-1.7,16.1-1.1,74.1-1.1,74.1V583l32.7-0.1
			c0,0-2.5-149.7-2.5-200.2C773.9,357,779.7,354.4,782.4,349z"/>
		<path class="st33" d="M743.7,582.9v-0.9l-110.1,0.5c0,0-0.8-164.6,0-174.8c1.8-22.4,9.7-34.2,13.6-56.5c1.5-8.8,4.2-21.2,8.8-35.1
			c-2.5,19.6-7.9,47.2,0,54.6c7.4,6.9,0.3,8.7,6.5,29.8c17.9,60.5,81.2,31.9,81.2,31.9s0-5.7,2.4-4.3c18.1,10.9,28.2,6.8,28.4,10.5
			c0.7,64,2,144.2,2,144.2L743.7,582.9z"/>
		<path class="st33" d="M999.8,582.9v-0.9l104.7,0.5c0,0,0.8-164.6,0-174.8c-1.7-22.4-9.2-34.2-12.9-56.5c-1.5-8.8-4-21.2-8.3-35.1
			c2.3,19.6,7.5,47.2,0,54.6c-7,6.9,0.9,3.2-6.2,29.8c-16.2,60.7-75.4,32.7-75.4,32.7s0.1-7.9-2.2-6.5
			c-17.2,10.9-28.7,8.2-28.9,11.8c-0.6,64-1.9,144.2-1.9,144.2L999.8,582.9z"/>
		<path class="st34" d="M960,313c0,0,0.5-3.8-0.4-7.8c-0.9-4-1.2-11.5,2.5-13.9c5-3.2,9.7,2.1,10.4,5.7c0.6,3.6,0.8,11.3,3,14.8
			s-2.7,10-2.7,10L960,313z"/>
		<path class="st34" d="M936.3,387c0,0-8.5-9.7-4.4-22.3c4.1-12.6,8.4-14.2,9.3-23.5c0.9-9.3,9.1-22.6,13-26.2s11.2,3,10.9,5.2
			c-0.3,2.2,4.7,11.8,4.7,11.8l-17.4,41.2L936.3,387z"/>
		<path class="st13" d="M960.3,308.9c0,0,2.7,5,7.4,4.5c3.2-0.4,7-2.9,7-2.9"/>
		<path class="st34" d="M792.5,310.8c0,0,0.2-3.9,1.8-7.8c1.6-3.9,3.3-11.3,0.1-14.3c-4.4-4.2-10.1,0.2-11.4,3.7
			c-1.3,3.5-2.9,11.1-5.7,14.2c-2.8,3.1,0.9,10.5,0.9,10.5L792.5,310.8z"/>
		<path class="st34" d="M818,383.3c0,0,8-10.4,3-22.9c-5-12.5-9.5-13.8-11-23.2c-1.5-9.3-10.7-22.3-14.8-25.7
			c-4.2-3.3-11.2,3.8-10.7,6c0.5,2.2-4,12.3-4,12.3l20.3,40.6L818,383.3z"/>
		<path class="st13" d="M792.9,306.7c0,0-3.6,4.5-8.2,3.1c-3.2-1-6.5-4.3-6.5-4.3"/>
		<path class="st8" d="M871.8,233.8c-0.8-0.8-1.9-2.3-4.7-2.1c-5.7,0.4-18.5,10.6-54-3c-18.3-7-27.6-17.5-31-25.9
			c-3.7-8.9,1.2-18.8,6.4-27.4c11.1-18.2,8.6-28.2,8.6-28.3c-0.4-1.4,0.4-3,1.8-3.4c1.4-0.4,2.9,0.4,3.4,1.9
			c0.1,0.5,3.4,12.2-9.1,32.7c-6.3,10.3-8.2,17.2-6,22.4c2.7,6.5,10.8,16.7,27.2,22.7c32.8,11.9,40.8,5.1,50.3,3.7
			c3.5-0.5,5.5,0.3,6.8,2C872.8,231.1,871.8,233.8,871.8,233.8z"/>
		<path class="st21" d="M802.8,110.8c0,0-7.3,5.9-9.4,8.9c-2.2,3.1-2.6,7.3,0,17.6c2.6,10.3,5.7,16.1,8.1,17.9
			c2.4,1.8,10.4,3.3,10.4,3.3L802.8,110.8z"/>
		<path class="st13" d="M802.8,110.8c0,0-7.3,5.9-9.4,8.9c-2.2,3.1-2.6,7.3,0,17.6c2.6,10.3,5.7,16.1,8.1,17.9
			c2.4,1.8,10.4,3.3,10.4,3.3L802.8,110.8z"/>
		<path class="st13" d="M796.7,116c0,0-2.7,3.1-1.9,8.9c0.9,6.7,5.7,29.5,11.9,32.5"/>
		<path class="st21" d="M943,109.7c0,0,7.3,5.9,9.4,8.9c2.2,3.1,2.6,7.3,0,17.6c-2.6,10.3-5.7,16.1-8.1,17.9
			c-2.4,1.8-10.4,3.3-10.4,3.3L943,109.7z"/>
		<path class="st13" d="M943,109.7c0,0,7.3,5.9,9.4,8.9c2.2,3.1,2.6,7.3,0,17.6c-2.6,10.3-5.7,16.1-8.1,17.9
			c-2.4,1.8-10.4,3.3-10.4,3.3L943,109.7z"/>
		<path class="st13" d="M949.1,114.9c0,0,2.7,3.1,1.9,8.9c-0.9,6.7-5.7,29.5-11.9,32.5"/>
		<path class="st35" d="M899,197.7c14.7-0.6,22.7-19.3,22.7-19.3c0.5,2.8,0.8,3.9,0.8,3.9c0.7-4.3,7.8-17.7,7.8-17.7
			c-0.9,3-1.3,7.4-1.3,7.4c2.4-5.2,4.3-7.8,5.6-12.1c1.9-6,3.3-12,3.3-12c5.4-7.3,3.2-14.4,3.2-14.4c4.9-11.7-1.7-7.2,1.1-15.2
			c2.9-8.6-0.8-18.2-0.8-18.2l3.2,7.6c-2-20.2-13.1-31.3-13.1-31.3l5.8,3.5c0,0-5.8-4.5-8.4-9.1c-6-10.2-5.9-13.8-8.8-22.6
			c-2.9-8.9-6.5-12.7-6.5-12.7l3.9,3c0,0-9.9-14.5-18.3-26.7c-8.6-12.6-25.9-11.4-25.9-11.4h-2.7c0,0-18.4,1.2-26.5,13.6
			c-8.2,12.4-15.4,17.7-15.4,17.7l5.5-2.1c0,0-5.2,2.7-8.2,11.5c-2.9,8.8-5.1,19.6-11.1,29.8c-2.7,4.5-10.5,13.3-10.5,13.3l5.8-3.5
			c0,0-8.3,8.3-10.2,20.9l1.6-2.8c0,0-2.1,11.4,0,19.6c2.1,8.2-2.6,8.3,2.3,20.1c0,0-1.4,5.3,4,12.6c0,0-1.1,3.1,1.3,8.9
			c2.4,5.8,4.5,7.5,4.2,12.5c0,0,0.8-2.9,0.2-7.8c0,0,5.3,7.7,6.2,15.4c0,0,0.3-2.9,0-6.9c0,0,10.4,24.1,25.1,24.6"/>
		<path class="st13" d="M804.1,138.3l0.6-6.5"/>
		<path class="st13" d="M837.7,89c0,0,4,0.1,5.9,2.3"/>
		<path class="st13" d="M830.6,91.6c0,0,2.6,0,3.7,0.9"/>
		<path class="st13" d="M903.1,90.6c0,0,3-2.1,7.4-1.5l-2.2,0.9c0,0,4.2-0.2,7.5,1.9"/>
		<path class="st13" d="M910.3,86.4c0,0,2.4,0.2,3.5,0.8"/>
		<path class="st13" d="M852.3,34.3c0,0-0.9,2.1-2.1,3.3"/>
		<path class="st13" d="M852.3,37.8c0,0-0.6,1.5-2.9,3.9"/>
		<path class="st13" d="M896.2,48.4c0,0,0.6,2.4,2.6,4l-1.9-0.4c0,0,1.9,3.5,4,4.4"/>
		<path class="st13" d="M899,197.7c14.7-0.6,22.7-19.3,22.7-19.3c0.5,2.8,0.8,3.9,0.8,3.9c0.7-4.3,7.8-17.7,7.8-17.7
			c-0.9,3-1.3,7.4-1.3,7.4c2.4-5.2,4.3-7.8,5.6-12.1c1.9-6,3.3-12,3.3-12c5.4-7.3,3.2-14.4,3.2-14.4c4.9-11.7-1.7-7.2,1.1-15.2
			c2.9-8.6-0.8-18.2-0.8-18.2l3.2,7.6c-2-20.2-13.1-31.3-13.1-31.3l5.8,3.5c0,0-5.8-4.5-8.4-9.1c-6-10.2-5.9-13.8-8.8-22.6
			c-2.9-8.9-6.5-12.7-6.5-12.7l3.9,3c0,0-9.9-14.5-18.3-26.7c-8.6-12.6-25.9-11.4-25.9-11.4h-2.7c0,0-18.4,1.2-26.5,13.6
			c-8.2,12.4-15.4,17.7-15.4,17.7l5.5-2.1c0,0-5.2,2.7-8.2,11.5c-2.9,8.8-5.1,19.6-11.1,29.8c-2.7,4.5-10.5,13.3-10.5,13.3l5.8-3.5
			c0,0-8.3,8.3-10.2,20.9l1.6-2.8c0,0-2.1,11.4,0,19.6c2.1,8.2-2.6,8.3,2.3,20.1c0,0-1.4,5.3,4,12.6c0,0-1.1,3.1,1.3,8.9
			c2.4,5.8,4.5,7.5,4.2,12.5c0,0,0.8-2.9,0.2-7.8c0,0,5.3,7.7,6.2,15.4c0,0,0.3-2.9,0-6.9c0,0,9.7,22.3,23.5,24.5
			c0.5,0.1,1.1,0.1,1.6,0.2"/>
		<path class="st36" d="M909.3,163.7c-2.7-10.5-2.4-27.2-2.4-27.2l-16.2-10.1h-13.4h-8.5h-13.4l-16.2,10.1c0,0,0.3,16.7-2.4,27.2
			c0,0-11.7,23.2,14.5,40.3c5,3.3,10.8,5.1,16.8,5.4c1.4,0.1,3,0.1,4.8,0.1c0,0,0,0,0,0s0,0,0,0c1.8,0,3.4,0,4.8-0.1
			c6-0.3,11.8-2.1,16.8-5.4C921,187,909.3,163.7,909.3,163.7z"/>
		<path class="st13" d="M905.5,183.6c0,0-5.8,4.9-15.4,4.9c-9.6,0-16,0-16,0h-1.1c0,0-6.4,0-16,0c-9.6,0-15.4-4.9-15.4-4.9"/>
		<path class="st37" d="M846.1,186.3c0,0,2.7-2.8,3.8-3.2c1.1-0.4,2,5,2,5S849.1,187.6,846.1,186.3z"/>
		<path class="st37" d="M900.9,186.3c0,0-2.7-2.8-3.8-3.2c-1.1-0.4-2,5-2,5S897.9,187.6,900.9,186.3z"/>
		<path class="st13" d="M909.3,163.7c-2.7-10.5-2.4-27.2-2.4-27.2l-16.2-10.1h-13.4h-8.5h-13.4l-16.2,10.1c0,0,0.3,16.7-2.4,27.2
			c0,0-11.7,23.2,14.5,40.3c5,3.3,10.8,5.1,16.8,5.4c1.4,0.1,3,0.1,4.8,0.1c0,0,0,0,0,0s0,0,0,0c1.8,0,3.4,0,4.8-0.1
			c6-0.3,11.8-2.1,16.8-5.4C921,187,909.3,163.7,909.3,163.7z"/>
		<path class="st13" d="M836.9,163.7c0,0-0.2,1.8-0.8,3.8"/>
		<path class="st13" d="M909.4,163.7c0,0,0.2,1.8,0.8,3.8"/>
		<path class="st13" d="M810.4,80.5l5.5-4.8l-1.7,4.2l3.3-2.7"/>
		<path class="st13" d="M906.9,32.6c0,0,6.1,2.6,7.5,6.1"/>
		<path class="st13" d="M848.1,18.9c0,0-2,1.5-2.9,2.9"/>
		<path class="st13" d="M918,142.2c0,0,3,0.9,3.9,2.9"/>
		<path class="st13" d="M938,147.8c0,0,0.8-5.9,0-9"/>
		<path class="st38" d="M865.8,194h14.7c2,0,2.9,1.8,1.4,2.8c-5.1,3.2-12.5,3.2-17.5,0C862.9,195.8,863.8,194,865.8,194z"/>
		<path class="st39" d="M931.6,76.3c0.1,0.1,2.2,2.3,4.7,6.3c-6.9-1.4-27.1-5.7-32.8-8c-6.9-2.8-9.9-2.9-9.9-2.9l3.9,1.8
			c-9.5-3.2-29.3,4.5-37.4,4.7c-8.2,0.3-26.5-3.2-34.8-1.3c-8.3,1.8-13.8,7.9-13.8,7.9l2.7-5c-2.7,2-6.6,5.9-10,9.3
			c2.8-5.3,6-8.5,6.1-8.7l-5.8,3.5c0.2-0.3,7.9-8.8,10.5-13.3c6-10.2,8.2-20.9,11.1-29.8c2.8-8.6,7.8-11.3,8.1-11.5l-5.5,2.1
			c0,0,7.3-5.3,15.4-17.7c8.2-12.4,26.5-13.6,26.5-13.6h2.7c0,0,17.3-1.1,25.9,11.4c8.4,12.2,18.3,26.7,18.3,26.7l-3.9-3
			c0.2,0.2,3.7,4.1,6.5,12.7c2.9,8.9,2.8,12.4,8.8,22.6c2.6,4.4,8.1,8.8,8.4,9.1L931.6,76.3z"/>
		<path class="st39" d="M816.7,100.5c0,0,0.1-9,8.8-8.4c8.7,0.5,23,5.8,45.8,5.8s38.1-5.7,46.8-5c8.7,0.7,9.1,6.1,9.1,6.1
			s-3.4-0.8-6-0.8c-2.6,0-94.8,5.2-94.8,5.2S819.5,98.4,816.7,100.5z"/>
		
			<radialGradient id="SVGID_00000065791278593517845470000010305970021285893547_" cx="591.0843" cy="257.2885" r="1" gradientTransform="matrix(100.918 0 0 -102.25 -58775.0391 26611.1035)" gradientUnits="userSpaceOnUse">
			<stop  offset="0.6667" style="stop-color:#F4FDAB;stop-opacity:0.4"/>
			<stop  offset="0.849" style="stop-color:#F4FDAB"/>
			<stop  offset="1" style="stop-color:#FFB152;stop-opacity:0"/>
		</radialGradient>
		<path style="opacity:0.14;fill:url(#SVGID_00000065791278593517845470000010305970021285893547_);enable-background:new    ;" d="
			M872,409.7c58,0,104.9-47.6,104.9-106.3S929.9,197,872,197c-58,0-104.9,47.6-104.9,106.3S814,409.7,872,409.7z"/>
		
			<radialGradient id="SVGID_00000167387348599641074500000001936175471096929450_" cx="591.0843" cy="257.2885" r="1" gradientTransform="matrix(100.918 0 0 -102.25 -58775.0391 26611.1035)" gradientUnits="userSpaceOnUse">
			<stop  offset="0.6667" style="stop-color:#F4FDAB;stop-opacity:0.4"/>
			<stop  offset="0.849" style="stop-color:#F4FDAB"/>
			<stop  offset="1" style="stop-color:#FFB152;stop-opacity:0"/>
		</radialGradient>
		<path style="opacity:0.14;fill:url(#SVGID_00000167387348599641074500000001936175471096929450_);enable-background:new    ;" d="
			M872,409.7c58,0,104.9-47.6,104.9-106.3S929.9,197,872,197c-58,0-104.9,47.6-104.9,106.3S814,409.7,872,409.7z"/>
		<path class="st2" d="M809.2,296.4c3-37.6,35.5-65.7,72.6-62.7c37.2,3,64.9,35.9,61.9,73.6c-3,37.6-35.5,65.7-72.6,62.7
			C834,366.9,806.2,334,809.2,296.4z"/>
		<path class="st42" d="M876.5,370.2c37.3,0,67.5-30.6,67.5-68.3s-30.2-68.3-67.5-68.3S809,264.1,809,301.8S839.2,370.2,876.5,370.2
			z"/>
		<path class="st43" d="M844.2,305c4.5,21.8,25.4,34.2,49.6,30.5c17.2-2.7,34.2,8.5,20,18.8c-11.9,8.6-26.7,13.2-42.4,12
			c-35.2-2.8-61.4-34-58.6-69.6C814.8,270.9,837.4,272,844.2,305z"/>
		<path class="st43" d="M855.9,275.7c6.7,32.9,41.4,59,76.1,27.7c3.3-3,8.8-1.1,8.5,3.4c-3.3,38.6-37.1,62-69,59.4
			c-35.2-2.8-61.4-34-58.6-69.6C814.8,270.9,849.1,242.7,855.9,275.7z"/>
		<path class="st44" d="M842.1,342.8c-1,1.4,2.5,6.8,10.9,10.7c-17.6-5.2-33.5-17.1-43.2-33l-6.7-24.6l11.8-21.7
			c-6.4,17-2.3,30.7,6.3,43.5c7.8,11.6,20.9,16.6,22.2,15.3c1.4-1.3-1.2-8.1-1.2-8.1c4.9,10.6,15.5,22.8,41.3,23.8
			C855.4,355.2,843.9,340.2,842.1,342.8z"/>
		<path class="st45" d="M834,248.7l-7.9,6.5c4.7,1.2,8.3,4.2,10.8,8.4c-0.8-2.6,0.7-3.1,2.3-0.5c1.2,2,3.8,9,4,12.7
			c0.2,2.9-1.4,4.6-2.4,1.3c0.8,7.7-0.3,16.6-3.2,25.3c8.7-22.7,18.2-18,28.8-12.7l0.2,0.1c-29.3-34.9,15.3-52.4,18.6-49.2
			c1.6,1.6-3.2,4.5-6.4,7.9c7.3-5.3,23.7-3.1,33.3,2.3c-5.5,1.4-10.1,4.3-10.1,4.3c17.9-3.7,26.8,2.4,33.2,13.4
			C912.5,226.4,858.3,225.4,834,248.7z"/>
		<path class="st46" d="M892.9,301.1c-16.2-9.7-17.9-32.4,1.6-20.8c13.1,7.8,16.7,1.4,21.3,7.9C920.6,295.2,904.8,308.2,892.9,301.1
			z"/>
		<path class="st47" d="M875.7,298.2c-0.3-0.4-0.6-0.9-0.9-1.3C875.2,297.3,875.5,297.8,875.7,298.2c9.5,13.1,32.9,21.9,46.9,2.6
			c-8.7,22.8-39.8,27.4-56.2,9.3C875,316.5,883.1,309.7,875.7,298.2z"/>
		<path class="st48" d="M922.7,300.8c-14.5,20-39,10-47.8-3.9c8.9,12.3,0.5,19.8-8.4,13.2C882.9,328.2,914,323.5,922.7,300.8z"/>
		<path class="st49" d="M906.8,286.7c0.2,0.4,0.3,0.7,0.4,1.1C907.1,287.4,906.9,287,906.8,286.7c-4.7-11.1-20-21.3-33.4-9.8
			c10-14.9,33.2-13,42,2.8C910.3,273.6,903.3,277.1,906.8,286.7z"/>
		<path class="st48" d="M873.4,276.9c13.8-11.9,29.7-0.6,33.8,10.9c-4.4-10.4,2.9-14.3,8.2-8.1C906.6,263.9,883.4,262,873.4,276.9z"
			/>
		<path class="st48" d="M854.6,317.3c5.7,7.2,22.3,19.7,43.5,12"/>
		<path class="st48" d="M888.9,251.4c-9.5,0.6-17.4,6.4-13,9.3"/>
		<path class="st50" d="M949.8,314.4c0,0-2.4-0.9-0.9-4.4c1.6-3.5,7.3-3,7.3-3l1.2,4.9l-4.8,3.4L949.8,314.4z"/>
		<path class="st17" d="M928.5,384.5c0,0-1.8-0.9-0.5-2.8c1.3-1.9,5.2-2,5.2-2l1.7,2l-2.9,3.3L928.5,384.5z"/>
		<path class="st17" d="M943.8,390.9c0,0,3.3,1.7,8,1.2c4.6-0.5,12-19.5,16-24.3c3.9-4.8,5.6-9.3,6-13.1c0.3-3.8,4.1-8.8,1.9-9.4
			c-2.2-0.6-15.4,9.3-17.1,11.2c-1.6,1.8-16.9,28.8-16.9,28.8L943.8,390.9z"/>
		<path class="st34" d="M979.7,332.1c0,0,1.6,1.6-0.3,6.2c-1.5,3.3-2.3,5.9-3.6,9c-1.3,3.1-7,9.9-10.2,5.3
			c-3.3-4.6-5.6-8.4-2.3-14.2c3.3-5.8-0.3-10,2.1-10.5C967.8,327.5,979.7,332.1,979.7,332.1z"/>
		<path class="st34" d="M952.7,342.7c0,0,2.6,4.8,1.5,7.9c-1,3.1-3.1,5.8,1.4,9.7c6.7,5.7,9.1,4.4,13-4.8c2.3-5.6,3.1-8.2,3-10.3
			C971.4,343.1,959.5,337.1,952.7,342.7z"/>
		<path class="st34" d="M944.9,391.5c0,0,5.4-1,9.5-10.2c1.8-3.9,4-8.3,0.3-9.6c-3.7-1.3-13-1.8-15.3,4.4
			C937.2,382.3,944.9,391.5,944.9,391.5z"/>
		<path class="st34" d="M952.5,356.2c0,0,8.6,3.9,9.9,8.8c1,3.6-1.5,11-6.4,11c-5.4,0-10-3.7-10-3.7L952.5,356.2z"/>
		<path class="st17" d="M981.6,330c-1.4,6.4-10,7-13.2,4.9c-3.2-2-8.3-11.9-11.5-14.7c-1.8-1.6-4.5-3.3-7.2-5.9
			c1.2,0.4,2.4-0.1,3.4-0.8c2.4-1.7,3.2-3.3,3.2-3.3s-3.5,0.5-6.8,0.3c0,0-0.1,0-0.1,0c-2.2-0.1-4.1-1.4-5.1-3.4c0,0,0,0,0,0
			c-3.5-7.3,3.5-11.9,7-9.4c4.1,3,7.6,5.8,7.6,5.8s7.2,5.2,12.6,11.6C977,321.5,983.1,323.5,981.6,330z"/>
		<path class="st17" d="M951,343.2c2.8,2.1,7.3,9.2,12,10c4.7,0.8,11.3-4,10.3-10.1c-1-6.1-7.8-6.4-18.8-15.7
			c-5.5-4.7-11.9-10.1-16.2-12.7c-1.8-1.1-7.2-2.5-9.2,1.7c-2,4.3,0.1,8.7,3.3,11.9c2.2,2.1,7.8,6.9,11.2,9.1
			C947,339.7,951,343.2,951,343.2z"/>
		<path class="st17" d="M919.7,348.6c-1.5-1.9-5.5-7-1.3-11c4.2-3.9,10.1-0.9,13.4,2.8c3.4,3.7,7.2,7.1,13.9,11.3
			c6,3.9,12,7.2,13.6,9.7c2.6,4.1-1.6,15.3-8.4,12.8c-5.9-2.1-8.3-4.1-13.2-9.3C932.7,359.7,924.8,354.9,919.7,348.6z"/>
		<path class="st17" d="M938.1,391.9c-2.1-1.6-6.1-4.2-9.6-7.4c2.1,0.1,4.6-2,4.7-2.1c-2.1,1-6.2-0.2-7.6-0.9
			c-0.2-0.2-0.4-0.5-0.6-0.7c-3.5-4.6-5-5.3-8.8-12.1c-3.1-5.6-1.5-9,1-10.3c5.1-2.6,9.7,2.6,14,8.3c6.1,8.2,9.7,4.9,15.9,14.6
			C953.4,391.1,942.1,395,938.1,391.9z"/>
		<path class="st13" d="M962.5,306.2c0,0,2.8,2.8-0.9,7.3c-3.5,4.3-8,4-8,4"/>
		<path class="st13" d="M946.8,321.1c1.4,1.4,2.1,3.5,0,6.6c-3.4,5-7.6,6-9.5,4.8"/>
		<path class="st13" d="M936.4,345.2c0.9,1.4,1.1,2.7-1.9,6.5c-3.1,3.8-6.7,5.2-8.3,3.2"/>
		<path class="st13" d="M930.7,366.1c1.2,2,1.7,7.4-4.9,9.9c-3.2,1.2-4.4,0.3-5.3-0.8"/>
		<path class="st17" d="M810.7,387.7c0,0-3.3,1.9-8,1.7c-4.7-0.2-13.4-18.9-17.8-23.6c-4.3-4.6-6.3-9.1-6.9-12.9
			c-0.6-3.9-4.7-8.6-2.5-9.4c2.2-0.8,16.2,8.5,18,10.2c1.8,1.8,19,28.1,19,28.1L810.7,387.7z"/>
		<path class="st34" d="M770.5,330.4c0,0-1.6,1.8,0.7,6.2c1.7,3.3,2.7,5.8,4.2,8.9c1.5,3,7.7,9.6,10.7,4.7c3-4.9,5.2-8.9,1.5-14.5
			c-3.7-5.6-0.4-10.2-2.8-10.4C782.2,325,770.5,330.4,770.5,330.4z"/>
		<path class="st34" d="M798.5,339.4c0,0-2.3,5-1,8.1c1.2,3.1,3.6,5.7-0.8,9.9c-6.4,6.2-9,5-13.4-4.1c-2.7-5.5-3.7-8.2-3.7-10.2
			C779.6,341.1,791.3,334.1,798.5,339.4z"/>
		<path class="st34" d="M809.6,388.4c0,0-5.5-0.7-10.3-9.7c-2-3.9-4.6-8.2-1-9.7c3.6-1.6,13.1-2.7,15.8,3.5
			C816.8,378.5,809.6,388.4,809.6,388.4z"/>
		<path class="st34" d="M799.6,353.1c0,0-8.4,4.5-9.5,9.6c-0.8,3.7,2.3,11,7.2,10.7c5.5-0.4,9.9-4.4,9.9-4.4L799.6,353.1z"/>
		<path class="st17" d="M789.6,300.2c0,0,3.3-3.1,7.3-6.4c3.4-2.8,10.8,1.5,7.7,9.1c-3.1,7.6-8.9,11-11.9,14.1s-7.5,13.4-10.7,15.6
			c-3.1,2.3-11.8,2.3-13.7-4.1c-1.9-6.4,4.2-8.9,9.3-15.7C782.7,305.9,789.6,300.2,789.6,300.2z"/>
		<path class="st17" d="M800.3,339.8c-2.7,2.4-6.8,9.9-11.6,11c-4.7,1.1-11.7-3.3-11-9.6c0.6-6.2,7.5-7,18-17.1
			c5.3-5.1,11.4-11,15.6-13.9c1.8-1.2,7.1-3.1,9.4,1.1c2.3,4.2,0.4,8.9-2.6,12.3c-2.1,2.3-7.5,7.5-10.8,10
			C804.1,336,800.3,339.8,800.3,339.8z"/>
		<path class="st17" d="M832.4,343.3c1.4-2,5.1-7.5,0.6-11.2c-4.5-3.7-10.2-0.2-13.4,3.8c-3.2,4-6.9,7.6-13.3,12.4
			c-5.9,4.3-11.7,8.1-13.2,10.7c-2.4,4.3,2.6,15.4,9.4,12.4c5.8-2.5,8.1-4.7,12.8-10.3C819.9,355.3,827.6,349.9,832.4,343.3z"/>
		<path class="st17" d="M835.5,353c2.6,1.1,4.5,4.5,1.7,10.3c-3.4,7.1-4.9,7.9-8.1,12.8c-3.4,5.2-9.8,9.8-12.5,12.1
			c-3.9,3.4-15.6,0.2-9.9-10c5.7-10.3,9.5-7.1,15.2-15.9C825.8,356.3,830.1,350.7,835.5,353z"/>
		<path class="st13" d="M786.5,303.4c0,0-1.5,3.2,2.5,7.5c3.9,4.1,7.3,3.4,7.3,3.4"/>
		<path class="st13" d="M803.1,317.1c-1.3,1.6-1.9,3.7,0.4,6.7c3.7,4.8,8.1,5.6,9.9,4.2"/>
		<path class="st13" d="M815.2,340.9c-0.8,1.5-1,2.8,2.4,6.4c3.4,3.7,7.1,4.8,8.6,2.7"/>
		<path class="st13" d="M822.4,361.6c-1.1,2.1-1.2,7.6,5.6,9.7c3.3,1,4.5,0,5.4-1.2"/>
		<path class="st13" d="M775,315.7c0,0-1.1,7.1,2.2,10.6"/>
		<path class="st13" d="M772.3,318.3l4.2,1.8"/>
		<path class="st13" d="M791.2,349.5l0.6-7.5"/>
		<path class="st13" d="M819.5,335.8l6.3,1.1"/>
		<path class="st13" d="M825.3,380.8l-5.6-0.4"/>
		<path class="st13" d="M918.4,347.2l5.8,1.2"/>
		<path class="st13" d="M951,343.2c0,0,5.4,1.9,8.4,0.1"/>
		<path class="st13" d="M956,328.8c0,0,1.4,2,2,4.5"/>
		<path class="st13" d="M971.6,315.1c0,0,2,2.8,2.1,6"/>
		<path class="st13" d="M970.1,318.2c0,0,5,0.3,8,3.5"/>
		<path class="st13" d="M961.6,362.9l0.4-5.1"/>
		<path class="st13" d="M955.8,311.3c0,0,1.7-1.4,2.5-5.5"/>
		<path class="st51" d="M922.2,98.1h-47.9h-0.5h-1h-0.5h-36.8l-1.4,4.5l-3.8-4.5h-5.8c0,0-14.1,0.2-12,14.8
			c2,14.6,2.9,17.8,2.9,17.8s2.1,8.9,10,8.9h13.9c2.2,0,4.3-0.5,6.3-1.4l8.5-3.9c2.2-1,4.6-1.5,7.1-1.5h11.8h1h11.8
			c2.5,0,4.9,0.5,7.1,1.5l8.5,3.9c2,0.9,4.1,1.4,6.3,1.4h13.9c8,0,10-8.9,10-8.9s0.9-3.2,2.9-17.8C936.3,98.3,922.2,98.1,922.2,98.1
			z"/>
		<path class="st13" d="M922.2,98.1h-47.9h-0.5h-1h-0.5h-36.8l-1.4,4.5l-3.8-4.5h-5.8c0,0-14.1,0.2-12,14.8
			c2,14.6,2.9,17.8,2.9,17.8s2.1,8.9,10,8.9h13.9c2.2,0,4.3-0.5,6.3-1.4l8.5-3.9c2.2-1,4.6-1.5,7.1-1.5h11.8h1h11.8
			c2.5,0,4.9,0.5,7.1,1.5l8.5,3.9c2,0.9,4.1,1.4,6.3,1.4h13.9c8,0,10-8.9,10-8.9s0.9-3.2,2.9-17.8C936.3,98.3,922.2,98.1,922.2,98.1
			z"/>
		<path class="st21" d="M934.6,115.2c-2,14.8-2.9,18-2.9,18s-2.1,9-10.1,9h-13.9c-2.2,0-4.3-0.5-6.3-1.4L893,137
			c-2.2-1-4.6-1.6-7.1-1.6h-24.5c-2.5,0-4.9,0.5-7.1,1.6l-8.5,3.9c-2,0.9-4.1,1.4-6.3,1.4h-13.9c-8,0-10-9-10-9s-0.9-3.3-2.9-18
			c-2.1-14.8,12-15,12-15h5.9l-0.2,0.2l3.8,4.4l1.9-4.6h86.5C922.6,100.2,936.7,100.5,934.6,115.2z"/>
		<path class="st28" d="M894.6,124.9l23.9-6.1c0.6-0.1,0.9-0.7,0.7-1.3c-0.1-0.5-0.6-0.8-1.1-0.7l-24.3,4c-1.1,0.2-1.9,1.3-1.7,2.4
			C892.3,124.5,893.5,125.2,894.6,124.9z"/>
		<path class="st13" d="M836.1,100.2h36.5h0.5h1h0.5h47.9c0,0,14.1,0.3,12,15c-2.1,14.8-2.9,18-2.9,18s-2.1,9-10,9h-13.9
			c-2.2,0-4.3-0.5-6.3-1.4L893,137c-2.2-1-4.6-1.6-7.1-1.6h-11.8h-1h-11.7c-2.5,0-4.9,0.5-7.1,1.6l-8.5,3.9c-2,0.9-4.1,1.4-6.3,1.4
			h-13.9c-8,0-10-9-10-9s-0.9-3.3-2.9-18c-2.1-14.8,12-15,12-15h5.9l3.6,4.6L836.1,100.2z"/>
		<path class="st52" d="M893.4,135.8l-3.2,0c-1.8-0.8-3.7-1.2-5.7-1.2h-21.9c-1.6,0-3.1,0.3-4.6,0.8l-3.7-0.1c0,0,30.4,0.9,5.9-24.4
			c-4.4-4.6-11.3-7.7-17.3-8.9c-0.5-0.1-0.4-0.9,0.1-0.9h41.8C831.2,103.2,893.4,135.8,893.4,135.8z"/>
		<path class="st53" d="M929.2,112.4c-0.6-0.1-1.2-0.7-1.7-1.4c-0.3-0.4-0.1-0.9,0.3-1.2c0.7-0.4,1.2-1.2,1.2-2.1
			c0.1-1.3-0.9-2.5-2-2.6c-0.5,0-0.9,0.1-1.2,0.4c-0.4,0.3-1,0.1-1.1-0.4c-0.2-0.5-0.3-0.9-0.5-1.3c-0.4-1.1,0.6-2.2,1.7-1.9
			c2.1,0.5,4.9,1.7,6.3,4.1C934.4,110.2,931.9,112.9,929.2,112.4z"/>
		<path class="st54" d="M820.8,109.1c0.8,0,1.4-0.7,1.4-1.6c0-0.9-0.6-1.6-1.4-1.6c-0.8,0-1.4,0.7-1.4,1.6
			C819.4,108.4,820.1,109.1,820.8,109.1z"/>
		<path class="st54" d="M824.5,139.5c0.8,0,1.4-0.7,1.4-1.6c0-0.9-0.6-1.6-1.4-1.6c-0.8,0-1.4,0.7-1.4,1.6
			C823.1,138.8,823.7,139.5,824.5,139.5z"/>
		<path class="st54" d="M921.9,139.5c0.8,0,1.4-0.7,1.4-1.6c0-0.9-0.6-1.6-1.4-1.6c-0.8,0-1.4,0.7-1.4,1.6
			C920.5,138.8,921.2,139.5,921.9,139.5z"/>
		<path class="st28" d="M852.1,124.9l-23.9-6.1c-0.6-0.1-0.9-0.7-0.7-1.3c0.1-0.5,0.6-0.8,1.1-0.7l24.3,4c1.1,0.2,1.9,1.3,1.7,2.4
			C854.4,124.5,853.2,125.2,852.1,124.9z"/>
		<path class="st54" d="M926.9,109.1c0.8,0,1.4-0.7,1.4-1.6c0-0.9-0.6-1.6-1.4-1.6s-1.4,0.7-1.4,1.6
			C925.5,108.4,926.1,109.1,926.9,109.1z"/>
		<path class="st13" d="M892.7,100.3l-8.8,9.6"/>
		<path class="st13" d="M835.9,142.1l-1-5"/>
		<path class="st13" d="M833.4,142.3l5.8-2.7"/>
		<path class="st55" d="M830.6,100.2l-0.4-1.7l3.8,4l1.4-4l0.7,1.7l-1.9,4.6L830.6,100.2z"/>
		
			<radialGradient id="SVGID_00000130604831685545781120000000882615578879895191_" cx="584.5901" cy="259.8036" r="1" gradientTransform="matrix(48.1069 0 0 -48.7133 -27248.8594 12769.1768)" gradientUnits="userSpaceOnUse">
			<stop  offset="0" style="stop-color:#F7941D"/>
			<stop  offset="0.9718" style="stop-color:#F7941D;stop-opacity:2.820000e-02"/>
			<stop  offset="1" style="stop-color:#F7941D;stop-opacity:0"/>
		</radialGradient>
		<path style="opacity:0.53;fill:url(#SVGID_00000130604831685545781120000000882615578879895191_);enable-background:new    ;" d="
			M932.4,105.6c0,0,2.9,2.4,2.3,7.3l-1,9.3c0,0,3.7,5.1,2.3,11.4s-4.8,20.8-7.9,24.6c-3.1,3.8-13.9-10.5-20.3-10.3
			c0,0-8.7,2.8-7.3-2.8l-0.1-4.4l-21.9-2.5l-3.3,3h-1.4h-0.3h-1.4l-3.3-3l-21.9,2.5l-0.1,4.4c1.3,5.6-7.3,2.8-7.3,2.8
			c-6.4-0.2-17.2,14.2-20.3,10.3c-3.1-3.8-6.5-18.4-7.9-24.6c-1.4-6.3,2.3-11.4,2.3-11.4l-1-9.3c-0.6-5,2.3-7.3,2.3-7.3H932.4z"/>
		<g class="st57">
			<path class="st47" d="M921.6,119c-0.5-1.7-2.2-2.7-3.9-2.5l-24.3,4c-1.2,0.2-2.2,0.9-3,1.9c-0.7,1-1,2.2-0.7,3.4
				c0.2,1.2,0.9,2.3,2,3c0.7,0.5,1.6,0.7,2.4,0.7c0.4,0,0.7,0,1.1-0.1l23.9-6.1c0.9-0.2,1.7-0.8,2.2-1.7
				C921.8,120.9,921.9,120,921.6,119z"/>
			<path class="st47" d="M853.3,120.6l-24.3-4c-1.7-0.3-3.4,0.8-3.9,2.5c-0.3,0.9-0.2,1.9,0.3,2.7c0.5,0.8,1.3,1.4,2.2,1.7l23.9,6.1
				c0.4,0.1,0.7,0.1,1.1,0.1c0.9,0,1.7-0.2,2.4-0.7c1-0.7,1.8-1.8,2-3c0.2-1.2,0-2.4-0.7-3.4C855.5,121.5,854.5,120.8,853.3,120.6z"
				/>
		</g>
		<path class="st36" d="M869.9,140.1c0,0-10-8.2-13.5-7c-2.3,0.8-9.6,5.3-10.2,7.6c-0.9,3.4,0.7,5.5,0.7,5.5"/>
		<path class="st13" d="M869.9,140.1c0,0-10-8.2-13.5-7c-2.3,0.8-9.6,5.3-10.2,7.6c-0.9,3.4,0.7,5.5,0.7,5.5"/>
		<path class="st58" d="M860.9,142.3c-0.9-0.4-1.9-0.4-2.8,0c-1,0.5-2.4,0.8-3.4-0.2c-1.6-1.7-0.5-4,1.3-3.5
			c2.6,0.7,9.2,5.5,9.2,5.5L860.9,142.3z"/>
		<path class="st13" d="M854,140.1c0,0-0.5,2.8,3.8,5.4"/>
		<path class="st36" d="M876.5,140.1c0,0,10-8.2,13.5-7c2.3,0.8,9.6,5.3,10.2,7.6c0.9,3.4-0.7,5.5-0.7,5.5"/>
		<path class="st13" d="M876.5,140.1c0,0,10-8.2,13.5-7c2.3,0.8,9.6,5.3,10.2,7.6c0.9,3.4-0.7,5.5-0.7,5.5"/>
		<path class="st58" d="M885.4,142.3c0.9-0.4,1.9-0.4,2.8,0c1,0.5,2.4,0.8,3.4-0.2c1.7-1.7,0.5-4-1.3-3.5c-2.6,0.7-9.2,5.5-9.2,5.5
			L885.4,142.3z"/>
		<path class="st13" d="M892.4,140.1c0,0,0.5,2.8-3.8,5.4"/>
	</g>
</g>
</svg>
