<?xml version="1.0" encoding="utf-8"?>
<!-- Generator: Adobe Illustrator 28.1.0, SVG Export Plug-In . SVG Version: 6.00 Build 0)  -->
<svg version="1.1" id="Layer_1" xmlns="http://www.w3.org/2000/svg" xmlns:xlink="http://www.w3.org/1999/xlink" x="0px" y="0px"
	 viewBox="0 0 337 602" style="enable-background:new 0 0 337 602;" xml:space="preserve">
<style type="text/css">
	.st0{fill:none;stroke:#FF7722;}
	.st1{clip-path:url(#SVGID_00000031925422158799051830000018290296360556980379_);}
	.st2{fill:#FF7722;}
	
		.st3{opacity:0.2;fill:none;stroke:url(#SVGID_00000045619956702271754610000013502367051108523161_);stroke-width:1.1108;enable-background:new    ;}
	.st4{clip-path:url(#SVGID_00000003070491114778223340000001640886036081563574_);}
	.st5{fill:#848484;stroke:#000000;stroke-miterlimit:10;}
	.st6{fill:#DBE090;stroke:#000000;stroke-miterlimit:10;}
	.st7{fill:#CE3F00;stroke:#000000;stroke-miterlimit:10;}
	.st8{fill:#63EA71;stroke:#000000;stroke-miterlimit:10;}
	.st9{fill:#146643;stroke:#000000;stroke-miterlimit:10;}
	.st10{fill:#17724D;stroke:#000000;stroke-miterlimit:10;}
	.st11{fill:none;stroke:#000000;stroke-miterlimit:10;}
	.st12{fill:#218961;stroke:#000000;stroke-miterlimit:10;}
	.st13{fill-rule:evenodd;clip-rule:evenodd;fill:#1D825B;}
	.st14{fill:#156846;}
	.st15{fill:#6D6D6D;stroke:#000000;stroke-miterlimit:10;}
	.st16{fill:#606060;stroke:#000000;stroke-miterlimit:10;}
	.st17{fill:#878787;stroke:#000000;stroke-miterlimit:10;}
	.st18{fill:#7C7C7C;}
	.st19{fill:#606060;}
	.st20{fill:#4C4C4B;}
	.st21{fill:#777777;}
	.st22{fill:#E25100;}
	.st23{fill:#2C9C74;}
	.st24{opacity:0.2;enable-background:new    ;}
	.st25{opacity:0.25;enable-background:new    ;}
	.st26{fill:#FFB152;stroke:#000000;stroke-miterlimit:10;}
	.st27{opacity:0.37;enable-background:new    ;}
	.st28{fill:#892E00;}
	.st29{fill:#D88C39;stroke:#000000;stroke-miterlimit:10;}
	.st30{fill:#4C4C4C;}
	.st31{opacity:0.12;enable-background:new    ;}
	.st32{fill:#565656;stroke:#000000;stroke-miterlimit:10;}
	.st33{fill:#6D4608;}
	.st34{fill:#D8B587;}
	.st35{fill:#F4E6DC;stroke:#000000;stroke-miterlimit:10;}
	.st36{fill:#C49E72;}
	.st37{opacity:0.27;enable-background:new    ;}
	.st38{opacity:0.14;fill:url(#SVGID_00000072983257876350151390000017294745378456850105_);enable-background:new    ;}
	.st39{opacity:0.14;fill:url(#SVGID_00000039120604132541932310000009507028046221333396_);enable-background:new    ;}
	.st40{fill:#FF7722;stroke:#000000;}
	.st41{opacity:0.5;fill:#FFB152;enable-background:new    ;}
	.st42{fill:#F4FDAB;stroke:#000000;}
	.st43{fill:#FFB152;stroke:#000000;}
	.st44{opacity:0.5;fill:#F4FDAB;enable-background:new    ;}
	.st45{fill:#FFB152;}
	.st46{fill:none;stroke:#000000;}
	.st47{fill:#F4FDAB;}
	.st48{fill:#545454;stroke:#000000;stroke-miterlimit:10;}
	.st49{fill:#383838;}
	.st50{opacity:0.21;fill:#D6D6D6;enable-background:new    ;}
	.st51{fill:#828282;}
	.st52{fill:#383838;stroke:#000000;stroke-miterlimit:10;}
	.st53{fill:#2B2B2B;stroke:#000000;stroke-miterlimit:10;}
	.st54{opacity:0.53;fill:url(#SVGID_00000099664181354063727870000009710125142360955069_);enable-background:new    ;}
	.st55{opacity:0.54;}
	.st56{stroke:#000000;stroke-miterlimit:10;}
	.st57{fill:url(#SVGID_00000109723916203097451640000006040087203941005696_);}
	.st58{fill:#FFFFFF;}
</style>
<path class="st0" d="M17,0.5h303c9.1,0,16.5,7.4,16.5,16.5v568c0,9.1-7.4,16.5-16.5,16.5H17c-9.1,0-16.5-7.4-16.5-16.5V17
	C0.5,7.9,7.9,0.5,17,0.5z"/>
<g>
	<defs>
		<path id="SVGID_1_" d="M1,17C1,8.2,8.2,1,17,1h303c8.8,0,16,7.2,16,16v568c0,8.8-7.2,16-16,16H17c-8.8,0-16-7.2-16-16V17z"/>
	</defs>
	<clipPath id="SVGID_00000128464953260424598130000007749221080272878256_">
		<use xlink:href="#SVGID_1_"  style="overflow:visible;"/>
	</clipPath>
	<g style="clip-path:url(#SVGID_00000128464953260424598130000007749221080272878256_);">
		<g>
			<circle class="st2" cx="168.5" cy="684.5" r="176.5"/>
		</g>
		
			<radialGradient id="SVGID_00000009591945271014787560000017278851994490274995_" cx="164.4121" cy="311.1597" r="1.0001" gradientTransform="matrix(-0.5001 -703.9998 -1023.7897 0.7273 318813.125 116167.7812)" gradientUnits="userSpaceOnUse">
			<stop  offset="0.3322" style="stop-color:#FF7722;stop-opacity:0.2"/>
			<stop  offset="0.7135" style="stop-color:#FF7722"/>
			<stop  offset="1" style="stop-color:#FF7722;stop-opacity:0.2"/>
		</radialGradient>
		
			<path style="opacity:0.2;fill:none;stroke:url(#SVGID_00000009591945271014787560000017278851994490274995_);stroke-width:1.1108;enable-background:new    ;" d="
			M-846,647.4h2029.5 M168.2,1662.8V-366.8 M-1040,1345.3L1377-50.3 M675.7,1527.2L-339.1-230.6 M-811.5,910.1l1960.4-525.3
			 M430.9,1628.4L-94.4-332.1 M-549.2,1365.2L885.9-70 M885.9,1366L-549.2-69.2 M-94.4,1628.1L430.9-332.4 M1148.8,911.2
			L-811.5,385.9 M-339.1,1526.6L675.7-231.2 M1377,1346.3L-1040-49.3 M246.9,648c0,43.1-34.9,78.1-78.1,78.1s-78.1-35-78.1-78.1
			s34.9-78.1,78.1-78.1S246.9,604.9,246.9,648z M1369.7,648c0,663.3-537.7,1201-1200.9,1201c-663.2,0-1200.9-537.7-1200.9-1201
			c0-663.3,537.7-1201,1200.9-1201C832-553,1369.7-15.3,1369.7,648z M256.3,648c0,48.3-39.2,87.5-87.5,87.5
			c-48.3,0-87.5-39.2-87.5-87.5c0-48.3,39.2-87.5,87.5-87.5C217.1,560.5,256.3,599.7,256.3,648z M270.1,648
			c0,55.9-45.3,101.3-101.3,101.3S67.5,703.9,67.5,648s45.3-101.3,101.3-101.3S270.1,592.1,270.1,648z M288.3,648
			c0,66-53.5,119.5-119.5,119.5c-66,0-119.5-53.5-119.5-119.5s53.5-119.5,119.5-119.5C234.8,528.5,288.3,582,288.3,648z M310.9,648
			c0,78.5-63.6,142.1-142.1,142.1c-78.5,0-142.1-63.6-142.1-142.1s63.6-142.1,142.1-142.1C247.3,505.9,310.9,569.5,310.9,648z
			 M337.9,648c0,93.4-75.7,169.1-169.1,169.1C75.4,817.1-0.3,741.4-0.3,648c0-93.4,75.7-169.1,169.1-169.1
			C262.2,478.9,337.9,554.6,337.9,648z M369.4,648c0,110.8-89.8,200.6-200.6,200.6C58,848.6-31.8,758.8-31.8,648
			S58,447.4,168.8,447.4C279.6,447.4,369.4,537.2,369.4,648z M405.2,648c0,130.6-105.8,236.4-236.4,236.4
			C38.2,884.4-67.6,778.6-67.6,648S38.2,411.6,168.8,411.6C299.4,411.6,405.2,517.4,405.2,648z M445.5,648
			c0,152.8-123.9,276.7-276.7,276.7C16,924.7-107.9,800.8-107.9,648S16,371.3,168.8,371.3C321.6,371.3,445.5,495.2,445.5,648z
			 M490.1,648c0,177.5-143.9,321.3-321.3,321.3c-177.5,0-321.3-143.9-321.3-321.3S-8.7,326.7,168.8,326.7
			C346.3,326.7,490.1,470.5,490.1,648z M539.2,648c0,204.6-165.8,370.4-370.4,370.4c-204.6,0-370.4-165.8-370.4-370.4
			s165.8-370.4,370.4-370.4C373.4,277.6,539.2,443.4,539.2,648z M592.6,648c0,234.1-189.8,423.9-423.8,423.9S-255,882.1-255,648
			s189.8-423.9,423.8-423.9S592.6,413.9,592.6,648z M650.5,648c0,266.1-215.7,481.8-481.7,481.8S-312.9,914.1-312.9,648
			s215.7-481.8,481.7-481.8S650.5,381.9,650.5,648z M712.8,648c0,300.5-243.6,544-544,544c-300.4,0-544-243.6-544-544
			s243.6-544,544-544C469.2,104,712.8,347.5,712.8,648z M779.5,648c0,337.3-273.4,610.7-610.7,610.7S-441.9,985.3-441.9,648
			S-168.5,37.3,168.8,37.3S779.5,310.7,779.5,648z M850.6,648c0,376.6-305.2,681.8-681.8,681.8c-376.5,0-681.8-305.3-681.8-681.8
			S-207.7-33.8,168.8-33.8C545.3-33.8,850.6,271.4,850.6,648z M926.1,648c0,418.3-339.1,757.3-757.3,757.3
			c-418.2,0-757.3-339.1-757.3-757.3c0-418.3,339.1-757.3,757.3-757.3C587-109.3,926.1,229.7,926.1,648z M1006,648
			c0,462.4-374.8,837.3-837.2,837.3c-462.4,0-837.2-374.9-837.2-837.3c0-462.4,374.8-837.3,837.2-837.3
			C631.2-189.3,1006,185.6,1006,648z M1090.3,648c0,509-412.6,921.6-921.5,921.6S-752.7,1157-752.7,648
			c0-509,412.6-921.6,921.5-921.6S1090.3,139,1090.3,648z M1179,648c0,558-452.3,1010.3-1010.2,1010.3S-841.4,1206-841.4,648
			c0-558,452.3-1010.3,1010.2-1010.3S1179,90,1179,648z M1272.2,648c0,609.4-494,1103.5-1103.4,1103.5S-934.6,1257.4-934.6,648
			c0-609.4,494-1103.5,1103.4-1103.5S1272.2,38.6,1272.2,648z"/>
		<g>
			<defs>
				<rect id="SVGID_00000179609452921577118580000016937964544532776380_" x="8" y="270" width="321" height="331"/>
			</defs>
			<clipPath id="SVGID_00000172411864344684384640000006565906897693548954_">
				<use xlink:href="#SVGID_00000179609452921577118580000016937964544532776380_"  style="overflow:visible;"/>
			</clipPath>
			<g style="clip-path:url(#SVGID_00000172411864344684384640000006565906897693548954_);">
				<path class="st5" d="M71.2,428.8l-5.1-0.4c0.1-0.8,1.7-20.5,20.7-33.8c17.7-12.4,32.2-30.3,32.3-30.5l4,3.3
					c-0.6,0.8-15.1,18.7-33.4,31.5C72.7,410.8,71.2,428.6,71.2,428.8z"/>
				<path class="st6" d="M270.5,428.2c-1.6-14-8.5-19.2-22.2-29.6c-1.5-1.1-3-2.3-4.6-3.5c-16.9-13-21.5-33.8-21.5-34l1.8-0.4
					c0,0.2,4.5,20.4,20.8,32.9c1.6,1.2,3.1,2.4,4.6,3.5c13.7,10.4,21.3,16.1,22.9,30.9L270.5,428.2z"/>
				<path class="st7" d="M257.8,425c-4-5-3.9-11.1-3.8-17.1c0.1-8.2,0.2-15.3-10-18.5c-19.1-6-27.2-17.6-27.6-18.1l2.1-1.5l-1.1,0.7
					l1.1-0.7c0.1,0.1,8,11.4,26.2,17.1c12.1,3.8,11.9,12.5,11.8,21c-0.1,5.7-0.2,11.1,3.2,15.4L257.8,425z"/>
				<path class="st8" d="M96.9,386.7c-1.3,1.1-2.7,2.3-4.1,3.4c-2.7,1.4-4.9,3-6.6,4.9c-1.4,1.7-2.4,3.6-2.9,5.9
					c-0.3,1.5-0.7,3.1-1.2,4.6c-2.3,8.2-5.6,15.8-5.7,15.9l-1.3-0.6c0-0.1,2.5-5.7,4.6-12.4c0.8-2.5,1.6-5.2,2.1-7.8
					c0.2-1.1,0.6-2,1-3C85.1,392.4,90,389.3,96.9,386.7z"/>
				<path class="st8" d="M125.5,368.1c-0.2,0.5-4.1,12.9-17.3,16.7c-0.6,0.2-1.2,0.3-1.8,0.5c0.8-0.8,1.6-1.5,2.3-2.2
					c11.8-3.9,15.4-15.3,15.4-15.4L125.5,368.1z"/>
				<path class="st9" d="M125.2,634.8c0,0,54.1,1,72.1-36.3l-74.8-27.3L125.2,634.8z"/>
				<path class="st10" d="M117.5,584.6c0,0,59.6,32.4,103.3,38.6v-58.5l-100.6,3.4L117.5,584.6z"/>
				<path class="st11" d="M132,587.4c0,0,48.2,18.7,85.9,18.5"/>
				<path class="st12" d="M126.8,543.4c0,0,65.9,0.9,91.7-1.2l0.3,36.4c0,0-37.4,11.3-93.2,9.2L126.8,543.4z"/>
				<path class="st13" d="M171.1,563.8l-0.9,2.8h0L171.1,563.8L171.1,563.8z"/>
				<path class="st14" d="M158.4,580.7h6.9l2.9-8.5h-6.9L158.4,580.7z"/>
				<path class="st14" d="M154.4,572.2h6.9l2.9-8.5h-6.9L154.4,572.2z"/>
				<path class="st14" d="M183.7,580.7h-6.9l-2.9-8.5h-5.7l1.9-5.7l0.9-2.8h-6.9l2.9-8.5h8.1L183.7,580.7z"/>
				<path class="st11" d="M122.6,561.7c0,0,40.6,1.2,63.7-3.7"/>
				<path class="st11" d="M146,574.6c0,0,51.1,4.4,77.8-1.4"/>
				<path class="st11" d="M129.1,546.7c0,0,52.3,5.2,82.7-0.8"/>
				<path class="st11" d="M154.1,594.9c0,0,31.2,9.1,61.9,5.2"/>
				<path class="st15" d="M123.4,544.3c0,0,32.6,1.8,44.8,2.4c0,0,2.8,0.1,2.8-2.8v-76.9l-46.4-0.3L123.4,544.3z"/>
				<path class="st15" d="M218.5,544.3c0,0-32.6,1.8-44.8,2.4c0,0-2.8,0.1-2.8-2.8v-76.9l46.4-0.3L218.5,544.3z"/>
				<path class="st16" d="M227.9,389.7c0,0-15.4-7.5-25.3-10.7c-9.9-3.2-29.4-5.1-29.4-5.1v30.7l15.3,6.8c0,0,4-2.7,5.9-2.3
					c11.1,2.3,22.3,4,31.1,9.6C225.6,418.7,232.2,415.8,227.9,389.7z"/>
				<path class="st17" d="M225.9,415.4c0,0-14.5-4.4-27-6.8c-4-0.8-8.1,0-11.5,2.3l-4.6,3l-9.1,10.4c-1.7,2-2.7,4.6-2.7,7.2v33.8
					c0,0,0.1,5.4,4.6,5.4h40.8L225.9,415.4z"/>
				<path class="st16" d="M113.1,388.8c0,0,16.3-6.6,26.3-9.8c9.9-3.2,29.4-5.1,29.4-5.1v30.7l-14.2,7.7c0,0-5.1-3.6-7-3.2
					c-11.1,2.3-22.3,4-31.1,9.6C116.4,418.7,108.9,414.8,113.1,388.8z"/>
				<path class="st17" d="M116.1,415.4c0,0,16.4-5,29.5-7.3c2.5-0.4,5,0.1,7.1,1.5l6.5,4.3l8.7,9.9c2.1,2.3,3.2,5.4,3.2,8.5v33.1
					c0,0-0.1,5.4-4.6,5.4h-40.8L116.1,415.4z"/>
				<path class="st18" d="M156.5,413.2c-10.9-7.3-14.1-16.5-14.1-16.5l8.4,0.2C151,400.4,152.1,408.1,156.5,413.2z"/>
				<path class="st19" d="M168.9,426.9L168.9,426.9l-3.1-3.4c-8.8-11.1-8.6-23.5-8.5-26.4l7.8,0.2
					C164.5,401.1,163.4,411.9,168.9,426.9z"/>
				<path class="st20" d="M165.8,423.4l-9.2-10.2c-4.5-5.1-5.5-12.8-5.8-16.3l6.5,0.2C157.1,399.9,157,412.3,165.8,423.4z"/>
				<path class="st21" d="M171,397.4v31.9l-2.1-2.4v0c-5.5-15-4.4-25.8-3.7-29.6L171,397.4z"/>
				<path class="st11" d="M150.7,395.1c0,0-0.1,11.3,5.8,18.1"/>
				<path class="st11" d="M154.8,395.6c0,0-2.8,4.3-2.5,9.3"/>
				<path class="st11" d="M157.4,396.5c0,0-1.8,15.7,9.9,28.8"/>
				<path class="st11" d="M165.5,395.7c0,0-3.6,12.1,3.4,31.2"/>
				<path class="st18" d="M185.4,413.2c10.9-7.3,14.2-16.5,14.2-16.5l-8.4,0.2C190.9,400.4,189.8,408.1,185.4,413.2z"/>
				<path class="st19" d="M173,426.9L173,426.9l3.1-3.4c8.8-11.1,8.6-23.5,8.5-26.4l-7.8,0.2C177.5,401.1,178.6,411.9,173,426.9z"/>
				<path class="st20" d="M176.1,423.4l9.2-10.2c4.5-5.1,5.5-12.8,5.8-16.3l-6.5,0.2C184.8,399.9,184.9,412.3,176.1,423.4z"/>
				<path class="st21" d="M170.9,397.4v31.9l2.1-2.4v0c5.5-15,4.4-25.8,3.7-29.6L170.9,397.4z"/>
				<path class="st11" d="M191.2,395.1c0,0,0.1,11.3-5.8,18.1"/>
				<path class="st11" d="M187.2,395.6c0,0,2.8,4.3,2.5,9.3"/>
				<path class="st11" d="M184.6,396.5c0,0,1.8,15.7-10,28.8"/>
				<path class="st11" d="M176.4,395.7c0,0,3.6,12.1-3.4,31.2"/>
				<path class="st11" d="M171,429.2l2-2.2l3.1-3.4l9.2-10.2c10.9-7.3,14.2-16.5,14.2-16.5l-8.4,0.2l-6.5,0.2l-7.8,0.2l-5.8,0.1
					l-5.8-0.1l-7.8-0.2l-6.5-0.2l-8.4-0.2c0,0,3.3,9.2,14.2,16.5l9.2,10.2l3.1,3.4l2,2.2H171z"/>
				<path class="st11" d="M126.8,511.3l43.8,5.7l46.5-6.1"/>
				<path class="st22" d="M49.8,444.8l56.9-37c0,0,15.1,47.5,15.8,72.1c0.7,24.6,2.3,183.5,2.3,183.5H36.3L49.8,444.8z"/>
				<path class="st23" d="M54.9,451.5l46.9-15.2l-1.6-37.5c0,0-27.6,13.4-39.8,24.3C48.3,434,49,439.6,49,439.6s0.6-0.6,2-0.3
					C53.8,440,54.9,451.5,54.9,451.5z"/>
				<path class="st11" d="M58.3,425.4c0,0,4.1,1.5,6.4,8.8c2.3,7.3,3.5,12.9,3.5,12.9"/>
				<path class="st11" d="M69.1,416.8c0,0,3.7,1.6,6.9,9.6c3.2,7.9,5.4,16.5,5.4,16.5"/>
				<path class="st11" d="M81.2,409c0,0,5.3,1.4,7.9,10.9c2.6,9.4,4.3,19.1,4.3,19.1"/>
				<path class="st11" d="M54.9,451.5l46.9-15.2l-1.6-37.5c0,0-27.6,13.4-39.8,24.3C48.3,434,49,439.6,49,439.6s0.6-0.6,2-0.3
					C53.8,440,54.9,451.5,54.9,451.5z"/>
				<path class="st11" d="M59.6,491c0,0,2.4-8,2.7-17.2"/>
				<path class="st24" d="M101.8,436.3l-8.4,2.7c-12.7-21.3-6.7-33.1-6.7-33.1c7.6-4.2,13.5-7.1,13.5-7.1L101.8,436.3z"/>
				<path class="st25" d="M86.9,441.1l14.9-4.8l8.2,30.9c0,0,4,18.7,3.5,33.9c-0.5,15.2-1.8,162.9-1.8,162.9h-6.6l2.1-153.9
					l-4.5,1.5c0,0,4-32.7-0.7-52.5C97.2,439.3,86.9,441.1,86.9,441.1z"/>
				<path class="st26" d="M129.9,664.3c0,0-0.1-121.6,0-152.9c0.2-39.2-3.9-60.4-7.6-74.4c-10.2-38.2-0.1-51.1-0.1-51.1l4.9-2.2
					c0,0-1.7-2-5.1-1.4c-3.4,0.6-18.9,11.6-20.7,13.9c-1.9,2.2-4.6,5.4-1.9,33.6c2.4,24.8,7.7,27.5,9.5,48.4
					c1.8,20.9,0.9,186,0.9,186L129.9,664.3z"/>
				<path class="st22" d="M287.7,444.8l-55.7-37c0,0-14.8,47.5-15.5,72.1c-0.7,24.6-2.2,183.5-2.2,183.5h86.7L287.7,444.8z"/>
				<path class="st23" d="M282.7,451.5l-45.9-15.2l1.6-37.5c0,0,27,13.4,38.9,24.3c11.9,10.9,11.3,16.5,11.3,16.5s-0.6-0.6-1.9-0.3
					C283.8,440,282.7,451.5,282.7,451.5z"/>
				<path class="st11" d="M279.4,425.4c0,0-4,1.5-6.3,8.8c-2.2,7.3-3.4,12.9-3.4,12.9"/>
				<path class="st11" d="M268.8,416.8c0,0-3.7,1.6-6.8,9.6c-3.1,7.9-5.3,16.5-5.3,16.5"/>
				<path class="st11" d="M257,409c0,0-5.2,1.4-7.7,10.9c-2.5,9.4-4.2,19.1-4.2,19.1"/>
				<path class="st11" d="M282.7,451.5l-45.9-15.2l1.6-37.5c0,0,27,13.4,38.9,24.3c11.9,10.9,11.3,16.5,11.3,16.5s-0.6-0.6-1.9-0.3
					C283.8,440,282.7,451.5,282.7,451.5z"/>
				<path class="st11" d="M278.1,491c0,0-2.4-8-2.6-17.2"/>
				<path class="st24" d="M236.7,436.3l8.2,2.7c12.4-21.3,6.6-33.1,6.6-33.1c-7.4-4.2-13.2-7.1-13.2-7.1L236.7,436.3z"/>
				<path class="st25" d="M251.4,441.1l-14.6-4.8l-8,30.9c0,0-3.9,18.7-3.4,33.9c0.5,15.2,1.8,162.9,1.8,162.9h6.4l-2.2-157.2
					l4.6,4.1c0,0-3.9-32.1,0.7-51.9C241.3,439.3,251.4,441.1,251.4,441.1z"/>
				<path class="st26" d="M209.3,664.3c0,0,0.1-121.6,0-152.9c-0.2-39.2,3.8-60.4,7.4-74.4c7.3-27.7,4-42.6,1.7-48.6
					c-0.8-2-2.2-3.7-4.1-4.7l-1.8-1c0,0,1.2-1,4.5-0.4c3.3,0.6,19.2,10.8,21,13.1c1.8,2.2,3.7,6.2,1.1,34.4
					c-2.3,24.8-7.5,27.5-9.3,48.4c-1.8,20.9-0.9,186-0.9,186L209.3,664.3z"/>
				<path class="st27" d="M235.9,393.6c-5.4-4-15.5-10.5-17.8-10.9c-2.6-0.5-3-1.3-5.5,0c-4.3-1.6-6.5-2.6-10.2-3.7
					c-9.9-3.2-29.4-5.1-29.4-5.1v23.4l-2.1,0.1l-2.1-0.1v-23.4c0,0-19.4,1.9-29.4,5.1c-3.7,1.2-8.3,2.8-12.6,4.4
					c-0.6-0.5-2.2-1.6-4.8-1.1c-2.3,0.4-10.1,5.6-15.5,9.5c-0.4,2.1-0.6,5.5,1.6,8.5c-0.9,2.8-2.1,8-0.5,12.9
					c1.4,4.2,4.3,6.8,6.8,9.1c1.5,1.4,2.9,2.5,4,3.7c0.5,0.6,1.3,1.9,1.8,2.8c0.5,2.6,1.1,5.2,1.8,7.6c2.5,8.8,3.9,18.3,5.5,27.8
					c1.5,9.5,2.3,29.4,2.3,29.4v171h9.2c-2.6-4-2.3-25.5-1.8-28.5l7.3-3.3c-2.8,0.5-5,0.9-6.1,1c-3.4-7,0.3-11.4,0.3-11.4l0.9-0.1
					c0,0-0.6-7-3.9-14.1c-1.2-2.5-1.3-5-1.1-7.1c4,0.8,21.3,4.2,42.5,10.5c-0.5-0.2-33.3-13.2-40.1-17.1l-1.4-0.7
					c0,0,1.3-1.5,3.9-1.3l19.1,3.5c-0.5-0.1-15.8-4.4-20.8-6.5c0.5-0.9,0.3-1.7,0.3-1.7l0.9,0.1c-2.3-8.1-0.5-12.1,1.9-14.2
					c2.4-2.1-1.2-5.8-2.6-8.4c-1.4-2.6,0.4-3.5,0.4-3.5s0,0-0.1,0c11.9,0,33.7-1.9,36.3-2.1c-15.6,1.3-37.9-3.3-41.4-4.1
					c-0.2-0.5-0.4-1.1-0.6-1.7c-1.1-4.8,2.1-6.8,2.1-6.8l1.3,0c0.5-0.3,0.7-0.6,0.8-1l30.8,1.4c0,0,1.6,0.3,2.5-0.6
					c0,0,0.5,0.8,2.2,0.6l29.7-1.9l1.4,1.4c0,0,2.5,0,2.5,10.5c0,10.5-35.7,18.3-35.7,18.3s25.6,0.6,31.6-0.4c0,0,2.9,5.6-4.3,7.4
					c0,0-5.3,10.5,4.2,17.9c0,0,3-0.1,2.8,4.3l-2.7-0.1c0,0,5.9,6.8,2.7,14.6l-4.2-0.6l3.3,2.2l-0.6,43.1h5.4l0.5-116.3l-0.2-54.6
					c0,0,0.8-19.9,2.3-29.4c1.5-9.5,2.9-18.9,5.5-27.8c2.5-8.8,4.1-21.8,4.1-21.8l0.1-4.6c0.2-0.4,0.1-0.6,0.1-0.6
					c1.4-3.5,6.6-3.4,11.4-8.2C235.9,398.3,236.3,395.9,235.9,393.6z M137.4,589.4c-0.1-0.1-0.3-0.1-0.4-0.2L137.4,589.4z
					 M119.1,422.8c-0.8-0.9-1.7-1.7-2.7-2.6c-2.4-2.2-4.9-4.4-6-7.9c-1.1-3.3-0.6-7,0.1-9.6c3.8,3.2,6,2.7,7.3,5.8c0,0,0,0,0.1,0.1
					l0.1,3.9c-0.2-0.1-0.3-0.2-0.4-0.3l0.5,2l0,0.5c0,0,0.5,4.1,1.4,9.3L119.1,422.8z M119.8,413.7c-0.3-1.4-0.3-2.9-0.3-3.7
					c1.1,0.9,2.8,2,4.9,3c0.1,0.1,1.3-0.3,1.3-0.3s0.3,0.1,0.5,0.2c2.2,1.1,4.7,2.2,7,3.2c-0.4,0-0.8,0.1-1.1,0.1
					C126.7,416.7,122.6,415.3,119.8,413.7z M219.4,413.7l-1-0.4c0,0-2.2,12.7-4.9,23.1c-4.3,17.1-5.6,34.3-5.6,34.3l-0.7,0.1
					c0,0-1.3,16.9-2,24.2c-0.2,2.4-0.5,8.9-0.8,16.4l-0.4,13c0,0-3.6-4-6-1.3c-2.3,2.7,0.7,7.1,3.1,9.3c2.3,2.2,5.7,8.1,5.7,8.1
					l-5.8,4.6l-28.3,1.6c0,0-1.6-0.5-1.7-1.7c0,0-0.6,1.6-2.9,1.8l-32.2-1.7l0-0.3c0-0.1,0-0.2,0-0.3c0-0.2,0-0.5,0-0.9l-0.1-1.6
					l0-5.8c0,0,2-3.2,4.4-4.3c2.4-1.1,7.3-4.9,7.6-8c0.3-3-2.9-5.2-5.3-4.7c-0.9,0.2-0.8-2.2-0.3-5.3l-3.3,3.8l-3.8,4.4
					c-0.4-11.4-0.9-23.5-1.3-27.1c-0.7-7.2-2-24.2-2-24.2l-0.7-0.1c0,0-1.2-17.2-5.6-34.3c-0.4-1.4-0.7-2.8-1-4.2l-0.9-3.8
					c-1-4.4-1.8-8.3-2.4-11c2.4,1.1,5.4,1.8,8.8,1.8c0.8,0,1.5,0,2.3-0.1c2.2-0.2,4.4-0.5,6.4-1.1c10.3-2.9,11.4-8.9,15-6.8
					c0,0-6.6-5.1-0.5-3.7c0,0,0.3,3.8,5.8,2.8c0,0,2,1.7,6.3,2.4c0,0,2.3-1.5,5.2-1.4c3,0,6.3,1.4,6.3,1.4c4.3-0.6,6.1-2.5,6.1-2.5
					c1.8,0,5.7-2.8,6.3-3.4c0,0,4.1-0.5,1.6,2.3c0,0-5,3.8-5.5,4.2l-2.8,3.1c5.1-3.9,14.7-1.9,23.3-1.4c4.4,0.2,6-0.1,9.7-1.9
					c0.2-0.1,0.5-0.2,0.5-0.2s1.2,0.4,1.3,0.3c0.9-0.5,1.7-0.9,2.2-1.3C219.5,412.6,219.6,412.8,219.4,413.7z M175.2,559.8
					c0,0-0.1,0-0.1,0C175.1,559.8,175.1,559.8,175.2,559.8z"/>
				<path class="st28" d="M111.2,516.1v148.4H94.7V538.4L111.2,516.1z"/>
				<path class="st29" d="M125.5,516.1v148.4h-15.8V538.4L125.5,516.1z"/>
				<path class="st28" d="M224.9,516.1v148.4h16.5V538.4L224.9,516.1z"/>
				<path class="st29" d="M215.9,516.1v148.4h15.6V529.1L215.9,516.1z"/>
				<path class="st30" d="M211.7,518.8c1.7,2.9,4.3,6.2,7.2,9.5c8.6,9.4,17.6,11,19.1,11.2c0.1-1.9,0.2-3.8,0.3-5.8
					c-4.4-12.5-18.1-19.6-21.4-21.1L211.7,518.8z"/>
				<path class="st30" d="M205.1,526.8c15.3,4.9,31.9,24.2,31.9,24.2s0.2-1.6,0.4-4.2v0l0-0.3c0,0-19-16.5-25.7-27.8L205.1,526.8z"
					/>
				<path class="st21" d="M218.9,528.2c8.1,9.3,18.6,18.4,18.6,18.4l0,0.3c0.2-2,0.3-4.6,0.5-7.4
					C236.5,539.2,227.4,537.6,218.9,528.2z"/>
				<path class="st19" d="M238.2,533.5c0.3-9.4,0.2-19.6-2-22.2c-4.2-5.3-10.2-10.1-10.2-10.1l-9.2,11.2
					C220.1,513.9,233.8,521,238.2,533.5z"/>
				<path class="st11" d="M222.3,505.9c0,0,12.9,6.1,16,15.8"/>
				<path class="st11" d="M238.5,529.6c0,0-2.3-10.2-6-16.5"/>
				<path class="st11" d="M216.2,512.1c0,0,17.6,7.4,22.3,22"/>
				<path class="st11" d="M237.4,546.6c0,0-19.6-17.1-26-28.3"/>
				<path class="st11" d="M238.2,539.4c0,0-10.8-1-20.5-12.6c0,0-6.1-6.9-6.8-10"/>
				<path d="M238.2,533.5c-0.1,2-0.2,4-0.3,5.8c0.1,0,0.2,0,0.2,0l0.3-5.3C238.4,533.9,238.3,533.7,238.2,533.5z"/>
				<path class="st11" d="M221.7,531.4C221.7,531.4,221.7,531.3,221.7,531.4 M205.1,526.8c15.4,4.8,31.9,24.2,31.9,24.2
					s0.2-1.6,0.4-4.2v0c0.2-2,0.3-4.6,0.5-7.4c0.1,0,0.1,0,0.1,0c0,0,0,0,0,0c0,0,0,0,0,0h0l0.3-5.3c0,0,0,0,0,0l0,0
					c0-0.1-0.1-0.2-0.1-0.3c0-0.1-0.1-0.2-0.1-0.2c0.1-1.4,0.1-2.9,0.1-4.4l0.2,0.4c0,0-0.1-0.2-0.1-0.6c0-2.6,0-5.1-0.1-7.4
					l0.1,0.1c0-0.1-0.1-0.1-0.1-0.2c-0.2-4.8-0.8-8.6-2-10.1c-4.2-5.3-10.2-10.1-10.2-10.1l-9.2,11.2c-0.4-0.2-0.7-0.3-0.7-0.3
					l0.5,0.5l-4.4,5.4l-1.4-1.2c0.1,0.6,0.4,1.2,0.8,2L205.1,526.8z M225,534.8C224.9,534.7,224.9,534.7,225,534.8
					C224.9,534.7,224.9,534.7,225,534.8C225,534.8,225,534.8,225,534.8z M223.9,533.7C223.9,533.6,223.9,533.6,223.9,533.7
					C223.9,533.6,223.9,533.6,223.9,533.7C223.9,533.7,223.9,533.7,223.9,533.7z"/>
				<path class="st30" d="M128.7,519.1c-1.7,2.9-4.3,6.2-7.2,9.5c-8.6,9.4-17.6,11-19.1,11.2c-0.1-1.9-0.2-3.8-0.3-5.8
					c4.4-12.5,18.1-19.6,21.4-21.1L128.7,519.1z"/>
				<path class="st30" d="M135.2,527.2c-15.3,4.9-31.9,24.2-31.9,24.2s-0.2-1.6-0.4-4.2v0l0-0.3c0,0,19-16.5,25.7-27.8L135.2,527.2z
					"/>
				<path class="st21" d="M121.5,528.6c-8.1,9.3-18.6,18.4-18.6,18.4l0,0.3c-0.2-2-0.3-4.6-0.5-7.4
					C103.9,539.6,112.9,538,121.5,528.6z"/>
				<path class="st19" d="M102.1,533.9c-0.3-9.4-0.2-19.6,2-22.2c4.2-5.3,10.2-10.1,10.2-10.1l9.2,11.2
					C120.2,514.3,106.5,521.4,102.1,533.9z"/>
				<path class="st11" d="M118.1,506.2c0,0-12.9,6.1-16,15.8"/>
				<path class="st11" d="M101.9,530c0,0,2.3-10.2,6-16.5"/>
				<path class="st11" d="M124.2,512.5c0,0-17.6,7.4-22.3,22"/>
				<path class="st11" d="M103,546.9c0,0,19.6-17.1,26-28.3"/>
				<path class="st11" d="M102.2,539.8c0,0,10.8-1,20.5-12.6c0,0,6.1-6.9,6.8-10"/>
				<path d="M102.1,533.9c0.1,2,0.2,4,0.3,5.8c-0.1,0-0.2,0-0.2,0l-0.3-5.3C102,534.3,102.1,534.1,102.1,533.9z"/>
				<path class="st11" d="M128.7,519.1c0.4-0.7,0.7-1.4,0.8-2l-1.4,1.2l-4.4-5.4l0.5-0.5c0,0-0.3,0.1-0.7,0.3l-9.2-11.2
					c0,0-6.1,4.9-10.2,10.1c-1.2,1.5-1.8,5.4-2,10.2c0,0.1-0.1,0.1-0.1,0.2l0.1-0.1c-0.1,2.3-0.1,4.8-0.1,7.4
					c-0.1,0.4-0.1,0.6-0.1,0.6l0.2-0.4c0,1.5,0.1,2.9,0.1,4.4c0,0.1-0.1,0.2-0.1,0.2c0,0.1-0.1,0.2-0.1,0.3l0,0c0,0,0,0,0,0l0.3,5.3
					h0c0,0,0,0,0,0c0,0,0,0,0,0c0,0,0.1,0,0.1,0c0.2,2.9,0.3,5.4,0.5,7.4v0c0.2,2.6,0.4,4.2,0.4,4.2s16.6-19.4,31.9-24.2
					L128.7,519.1z M115.4,535.1C115.4,535.1,115.4,535.1,115.4,535.1C115.4,535.1,115.4,535.1,115.4,535.1
					C115.4,535.1,115.4,535.1,115.4,535.1z M116.5,534C116.5,534,116.5,534,116.5,534C116.5,534,116.5,534,116.5,534
					C116.5,534,116.5,534,116.5,534z M118.7,531.7C118.7,531.7,118.7,531.7,118.7,531.7C118.7,531.7,118.7,531.7,118.7,531.7z"/>
				<path class="st8" d="M90.5,591.9l0.2-2.8c7.1,0.5,12.8-7.1,16.8-22.6c3.4-13,4.4-27.6,4.8-32.3c0.8-10.8,3.4-13.8,3.7-14.1l2,2
					l-1-1l1,1c0,0-2.2,2.6-2.9,12.3c-0.4,4.8-1.4,19.6-4.8,32.8C105.8,584.3,99.2,592.6,90.5,591.9z"/>
				<path class="st22" d="M8.4,664.3c0,0-0.5-111.4,0-118.3c1.2-15.1,6.6-23.2,9.2-38.3c2.5-14.5,13.8-52.4,33.3-74.5l2.3-2.5
					c0,0,1.8-3.4,4.7,2.4c3.2,6.4,0.8,21.1,1.7,29.6c0.7,6.1,0.4,17.3,0,28.3c-0.3,9.4-3.7,22.5-2.3,29.6c0,0,1.4-0.1,1.7,1.4
					c0.2,0.8-0.4,1.7-0.4,1.7s2.3-0.7,8.7-2.5c6.3-1.7,5.9,0.4,8.9-0.4c3-0.8,17.5-6.7,17.5-6.7v149.7L8.4,664.3z"/>
				<path class="st11" d="M8.4,664.3c0,0-0.5-111.4,0-118.3c1.2-15.1,6.6-23.2,9.2-38.3c2.5-14.5,13.8-52.4,33.3-74.5l2.3-2.5
					c0,0,1.8-3.4,4.7,2.4c3.2,6.4,0.8,21.1,1.7,29.6c0.7,6.1,0.4,17.3,0,28.3c-0.3,9.4-3.7,22.5-2.3,29.6c0,0,1.4-0.1,1.7,1.4
					c0.2,0.8-0.4,1.7-0.4,1.7s2.3-0.7,8.7-2.5c6.3-1.7,5.9,0.4,8.9-0.4c3-0.8,17.5-6.7,17.5-6.7v149.7L8.4,664.3z"/>
				<path class="st11" d="M58.6,523.8c0,0-3.1,1.1-7.8,1.4c-6.1,0.4-3.8-4.2-13.4-0.2"/>
				<path class="st11" d="M76.2,520.9c0,0-6.3,1.7-12.2,4.4"/>
				<path class="st11" d="M57.4,521.3c0,0-3.2,0.3-7-2.7c-2.6-2.1-7-4.2-12.7-4.2"/>
				<path class="st24" d="M59.6,491c-0.3,9.4-3.7,22.5-2.3,29.6c0,0,1.4-0.1,1.7,1.4c0.2,0.7-0.2,1.4-0.4,1.6
					c-1.5,0.4-3.4,0.8-5.4,1.3c-5.3,1.2-6.6-0.6-6.6-0.6s2.2-3.4,1.2-5.4c-1-1.9-3.4-3.5-3.6-3.6c9.5,2.4,10.8-5.8,12.5-12
					c1.6-6.1,0.3-14.1,0.3-14.1c2.5-3.2,2.6-13.6,2.6-13.6l0.2,3.1C59.8,482.7,59.7,486.9,59.6,491z"/>
				<path class="st22" d="M328.6,664.3c0,0,0.5-111.4,0-118.3c-1.2-15.1-6.6-23.2-9.2-38.3c-2.5-14.5-13.2-52.6-32.7-74.7l-2.3-2.5
					c0,0-1.8-3.4-4.7,2.4c-3.2,6.4-1.4,21.3-2.3,29.8c-0.7,6.1-0.4,17.3,0,28.3c0.3,9.4,3.7,22.5,2.3,29.6c0,0-1.4-0.1-1.7,1.4
					c-0.2,0.8,0.4,1.7,0.4,1.7s-2.3-0.7-8.7-2.5c-6.3-1.7-5.9,0.4-8.9-0.4c-3-0.8-17.5-6.7-17.5-6.7v149.7L328.6,664.3z"/>
				<path class="st11" d="M328.6,664.3c0,0,0.5-111.4,0-118.3c-1.2-15.1-6.6-23.2-9.2-38.3c-2.5-14.5-13.2-52.6-32.7-74.7l-2.3-2.5
					c0,0-1.8-3.4-4.7,2.4c-3.2,6.4-1.4,21.3-2.3,29.8c-0.7,6.1-0.4,17.3,0,28.3c0.3,9.4,3.7,22.5,2.3,29.6c0,0-1.4-0.1-1.7,1.4
					c-0.2,0.8,0.4,1.7,0.4,1.7s-2.3-0.7-8.7-2.5c-6.3-1.7-5.9,0.4-8.9-0.4c-3-0.8-17.5-6.7-17.5-6.7v149.7L328.6,664.3z"/>
				<path class="st11" d="M278.4,523.8c0,0,3.1,1.1,7.8,1.4c6.1,0.4,3.8-4.2,13.4-0.2"/>
				<path class="st11" d="M260.8,520.9c0,0,6.3,1.7,12.2,4.4"/>
				<path class="st11" d="M279.6,521.3c0,0,3.2,0.3,7-2.7c2.6-2.1,7-4.2,12.7-4.2"/>
				<path class="st24" d="M277.4,491c0.3,9.4,3.7,22.5,2.3,29.6c0,0-1.4-0.1-1.7,1.4c-0.2,0.7,0.2,1.4,0.4,1.6
					c1.5,0.4,3.4,0.8,5.4,1.3c5.3,1.2,6.6-0.6,6.6-0.6s-2.2-3.4-1.2-5.4c1-1.9,3.4-3.5,3.6-3.6c-9.5,2.4-10.9-5.8-12.5-12
					c-1.6-6.1-0.3-14.1-0.3-14.1c-2.5-3.2-2.6-13.6-2.6-13.6l-0.2,3.1C277.2,482.7,277.3,486.9,277.4,491z"/>
				<path class="st26" d="M231.7,506.3c-1.6-3.2,13.4,5.9,18.7,8.2c2.7,1.2,5.7,6.2,6.7,16.6c1.1,10.9,0.7,50.2,0.7,50.2v83.3
					l-22.2-0.1c0,0,1.7-101.3,1.7-135.5C237.4,511.7,233.5,509.9,231.7,506.3z"/>
				<path class="st26" d="M109.4,506.3c1.6-3.2-13.4,5.9-18.7,8.2c-2.7,1.2-5.7,6.2-6.7,16.6c-1.1,10.9-0.7,50.2-0.7,50.2v83.3
					l22.2-0.1c0,0-1.7-101.3-1.7-135.5C103.7,511.7,107.5,509.9,109.4,506.3z"/>
				<path class="st31" d="M83.1,664.6V664l-74.7,0.4c0,0-0.5-111.4,0-118.3c1.2-15.1,6.6-23.2,9.2-38.3c1-6,2.8-14.4,5.9-23.7
					c-1.7,13.3-5.4,32,0,37c5,4.7,0.2,5.9,4.4,20.2c12.1,41,55.1,21.6,55.1,21.6s0-3.9,1.6-2.9c12.3,7.4,19.2,4.6,19.3,7.1
					c0.5,43.3,1.4,97.6,1.4,97.6L83.1,664.6z"/>
				<path class="st31" d="M256.9,664.6V664l71.1,0.4c0,0,0.5-111.4,0-118.3c-1.1-15.1-6.2-23.2-8.8-38.3c-1-6-2.7-14.4-5.7-23.7
					c1.6,13.3,5.1,32,0,37c-4.8,4.7,0.6,2.2-4.2,20.2c-11,41.1-51.2,22.2-51.2,22.2s0-5.4-1.5-4.4c-11.7,7.4-19.5,5.5-19.6,8
					c-0.4,43.3-1.3,97.6-1.3,97.6L256.9,664.6z"/>
				<path class="st32" d="M229.9,481.8c0,0,0.3-2.6-0.3-5.3c-0.6-2.7-0.8-7.8,1.7-9.4c3.4-2.2,6.6,1.4,7,3.8c0.4,2.4,0.6,7.6,2,10
					c1.5,2.4-1.8,6.8-1.8,6.8L229.9,481.8z"/>
				<path class="st32" d="M213.8,532c0,0-5.8-6.6-3-15.1c2.8-8.5,5.7-9.6,6.3-15.9c0.6-6.3,6.2-15.3,8.8-17.7c2.6-2.4,7.6,2,7.4,3.5
					c-0.2,1.5,3.2,8,3.2,8l-11.8,27.9L213.8,532z"/>
				<path class="st11" d="M230.1,479.1c0,0,1.8,3.4,5,3c2.2-0.3,4.8-2,4.8-2"/>
				<path class="st32" d="M116.2,480.4c0,0,0.1-2.6,1.2-5.2c1.1-2.6,2.2-7.6,0.1-9.7c-3-2.8-6.9,0.1-7.7,2.5c-0.9,2.3-2,7.5-3.9,9.6
					c-1.9,2.1,0.6,7.1,0.6,7.1L116.2,480.4z"/>
				<path class="st32" d="M133.6,529.4c0,0,5.4-7.1,2.1-15.5c-3.4-8.4-6.4-9.4-7.4-15.7c-1-6.3-7.2-15.1-10.1-17.4
					c-2.8-2.3-7.6,2.5-7.3,4c0.3,1.5-2.7,8.3-2.7,8.3l13.8,27.5L133.6,529.4z"/>
				<path class="st11" d="M116.5,477.6c0,0-2.5,3-5.6,2.1c-2.1-0.7-4.4-2.9-4.4-2.9"/>
				<path class="st6" d="M170,428.3c-0.6-0.6-1.3-1.6-3.2-1.4c-3.9,0.3-12.6,7.2-36.7-2c-12.4-4.7-18.7-11.9-21.1-17.5
					c-2.5-6,0.8-12.7,4.4-18.5c7.5-12.3,5.8-19.1,5.8-19.1c-0.3-1,0.3-2,1.2-2.3c1-0.3,2,0.3,2.3,1.3c0.1,0.3,2.3,8.2-6.2,22.1
					c-4.3,7-5.5,11.7-4.1,15.1c1.8,4.4,7.4,11.3,18.5,15.4c22.3,8.1,27.7,3.4,34.1,2.5c2.4-0.3,3.7,0.2,4.6,1.4
					C170.7,426.4,170,428.3,170,428.3z"/>
				<path class="st19" d="M123.2,345c0,0-4.9,4-6.4,6c-1.5,2.1-1.7,4.9,0,11.9c1.7,7,3.9,10.9,5.5,12.1c1.6,1.2,7.1,2.3,7.1,2.3
					L123.2,345z"/>
				<path class="st11" d="M123.2,345c0,0-4.9,4-6.4,6c-1.5,2.1-1.7,4.9,0,11.9c1.7,7,3.9,10.9,5.5,12.1c1.6,1.2,7.1,2.3,7.1,2.3
					L123.2,345z"/>
				<path class="st11" d="M119.1,348.5c0,0-1.8,2.1-1.3,6c0.6,4.5,3.9,19.9,8.1,22"/>
				<path class="st19" d="M218.4,344.3c0,0,4.9,4,6.4,6c1.5,2.1,1.7,4.9,0,11.9c-1.7,7-3.9,10.9-5.5,12.1c-1.6,1.2-7.1,2.3-7.1,2.3
					L218.4,344.3z"/>
				<path class="st11" d="M218.4,344.3c0,0,4.9,4,6.4,6c1.5,2.1,1.7,4.9,0,11.9c-1.7,7-3.9,10.9-5.5,12.1c-1.6,1.2-7.1,2.3-7.1,2.3
					L218.4,344.3z"/>
				<path class="st11" d="M222.5,347.8c0,0,1.8,2.1,1.3,6c-0.6,4.5-3.9,19.9-8.1,22"/>
				<path class="st33" d="M188.5,403.8c10-0.4,15.4-13.1,15.4-13.1c0.3,1.9,0.6,2.6,0.6,2.6c0.5-2.9,5.3-12,5.3-12
					c-0.6,2-0.9,5-0.9,5c1.6-3.5,2.9-5.3,3.8-8.2c1.3-4.1,2.2-8.2,2.2-8.2c3.6-4.9,2.2-9.8,2.2-9.8c3.3-7.9-1.1-4.9,0.7-10.3
					c2-5.8-0.5-12.3-0.5-12.3l2.2,5.1c-1.4-13.7-8.9-21.2-8.9-21.2l4,2.4c0,0-3.9-3.1-5.7-6.1c-4.1-6.9-4-9.3-6-15.3
					c-2-6-4.4-8.6-4.4-8.6l2.6,2.1c0,0-6.7-9.8-12.4-18.1c-5.9-8.5-17.6-7.7-17.6-7.7h-1.8c0,0-12.5,0.8-18,9.2
					c-5.5,8.4-10.5,12-10.5,12l3.8-1.4c0,0-3.6,1.8-5.5,7.8c-2,6-3.4,13.3-7.5,20.2c-1.8,3.1-7.1,9-7.1,9l4-2.4
					c0,0-5.6,5.6-6.9,14.1l1.1-1.9c0,0-1.4,7.7,0,13.3c1.4,5.5-1.7,5.6,1.6,13.6c0,0-0.9,3.6,2.7,8.6c0,0-0.8,2.1,0.9,6
					c1.6,3.9,3,5.1,2.8,8.4c0,0,0.5-2,0.1-5.3c0,0,3.6,5.2,4.2,10.4c0,0,0.2-2,0-4.7c0,0,7.1,16.3,17,16.7"/>
				<path class="st11" d="M124.1,363.6l0.4-4.4"/>
				<path class="st11" d="M146.9,330.2c0,0,2.7,0.1,4,1.5"/>
				<path class="st11" d="M142.1,332c0,0,1.7,0,2.5,0.6"/>
				<path class="st11" d="M191.3,331.3c0,0,2-1.4,5-1l-1.5,0.6c0,0,2.9-0.2,5.1,1.3"/>
				<path class="st11" d="M196.2,328.5c0,0,1.6,0.1,2.4,0.6"/>
				<path class="st11" d="M156.8,293.2c0,0-0.6,1.4-1.5,2.2"/>
				<path class="st11" d="M156.8,295.6c0,0-0.4,1-2,2.6"/>
				<path class="st11" d="M186.6,302.8c0,0,0.4,1.6,1.8,2.7l-1.3-0.3c0,0,1.3,2.4,2.7,3"/>
				<path class="st11" d="M188.5,403.8c10-0.4,15.4-13.1,15.4-13.1c0.3,1.9,0.6,2.6,0.6,2.6c0.5-2.9,5.3-12,5.3-12
					c-0.6,2-0.9,5-0.9,5c1.6-3.5,2.9-5.3,3.8-8.2c1.3-4.1,2.2-8.2,2.2-8.2c3.6-4.9,2.2-9.8,2.2-9.8c3.3-7.9-1.1-4.9,0.7-10.3
					c2-5.8-0.5-12.3-0.5-12.3l2.2,5.1c-1.4-13.7-8.9-21.2-8.9-21.2l4,2.4c0,0-3.9-3.1-5.7-6.1c-4.1-6.9-4-9.3-6-15.3
					c-2-6-4.4-8.6-4.4-8.6l2.6,2.1c0,0-6.7-9.8-12.4-18.1c-5.9-8.5-17.6-7.7-17.6-7.7h-1.8c0,0-12.5,0.8-18,9.2
					c-5.5,8.4-10.5,12-10.5,12l3.8-1.4c0,0-3.6,1.8-5.5,7.8c-2,6-3.4,13.3-7.5,20.2c-1.8,3.1-7.1,9-7.1,9l4-2.4
					c0,0-5.6,5.6-6.9,14.1l1.1-1.9c0,0-1.4,7.7,0,13.3c1.4,5.5-1.7,5.6,1.6,13.6c0,0-0.9,3.6,2.7,8.6c0,0-0.8,2.1,0.9,6
					c1.6,3.9,3,5.1,2.8,8.4c0,0,0.5-2,0.1-5.3c0,0,3.6,5.2,4.2,10.4c0,0,0.2-2,0-4.7c0,0,6.6,15.1,16,16.6c0.4,0.1,0.7,0.1,1.1,0.1"
					/>
				<path class="st34" d="M195.5,380.8c-1.8-7.1-1.6-18.4-1.6-18.4l-11-6.8h-9.1h-5.7H159l-11,6.8c0,0,0.2,11.3-1.6,18.4
					c0,0-7.9,15.7,9.9,27.3c3.4,2.2,7.3,3.5,11.4,3.7c1,0,2.1,0.1,3.3,0.1c0,0,0,0,0,0s0,0,0,0c1.2,0,2.3,0,3.3-0.1
					c4.1-0.2,8-1.5,11.4-3.7C203.5,396.6,195.5,380.8,195.5,380.8z"/>
				<path class="st11" d="M193,394.3c0,0-4,3.3-10.5,3.3c-6.5,0-10.8,0-10.8,0h-0.7c0,0-4.3,0-10.8,0c-6.5,0-10.5-3.3-10.5-3.3"/>
				<path class="st35" d="M152.6,396.1c0,0,1.8-1.9,2.5-2.2c0.8-0.3,1.4,3.4,1.4,3.4S154.7,397,152.6,396.1z"/>
				<path class="st35" d="M189.8,396.1c0,0-1.8-1.9-2.5-2.2c-0.8-0.3-1.4,3.4-1.4,3.4S187.8,397,189.8,396.1z"/>
				<path class="st11" d="M195.5,380.8c-1.8-7.1-1.6-18.4-1.6-18.4l-11-6.8h-9.1h-5.7H159l-11,6.8c0,0,0.2,11.3-1.6,18.4
					c0,0-7.9,15.7,9.9,27.3c3.4,2.2,7.3,3.5,11.4,3.7c1,0,2.1,0.1,3.3,0.1c0,0,0,0,0,0s0,0,0,0c1.2,0,2.3,0,3.3-0.1
					c4.1-0.2,8-1.5,11.4-3.7C203.5,396.6,195.5,380.8,195.5,380.8z"/>
				<path class="st11" d="M146.4,380.8c0,0-0.1,1.2-0.5,2.6"/>
				<path class="st11" d="M195.6,380.8c0,0,0.1,1.2,0.5,2.6"/>
				<path class="st11" d="M128.4,324.5l3.7-3.3l-1.1,2.8l2.3-1.9"/>
				<path class="st11" d="M193.9,292c0,0,4.2,1.8,5.1,4.1"/>
				<path class="st11" d="M154,282.8c0,0-1.3,1-2,2"/>
				<path class="st11" d="M201.4,366.2c0,0,2,0.6,2.7,2"/>
				<path class="st11" d="M215,370.1c0,0,0.5-4,0-6.1"/>
				<path class="st36" d="M166,401.3h10c1.4,0,2,1.2,0.9,1.9c-3.4,2.1-8.5,2.1-11.9,0C164,402.6,164.6,401.3,166,401.3z"/>
				<path class="st37" d="M210.7,321.7c0.1,0.1,1.5,1.6,3.2,4.3c-4.7-1-18.4-3.8-22.3-5.4c-4.7-1.9-6.7-2-6.7-2l2.6,1.2
					c-6.4-2.1-19.9,3-25.4,3.2c-5.6,0.2-18-2.1-23.6-0.9c-5.6,1.2-9.4,5.3-9.4,5.3l1.8-3.4c-1.8,1.3-4.5,4-6.8,6.3
					c1.9-3.6,4-5.8,4.2-5.9l-3.9,2.4c0.2-0.2,5.3-6,7.1-9c4.1-6.9,5.5-14.2,7.5-20.2c1.9-5.8,5.3-7.7,5.5-7.8l-3.7,1.4
					c0,0,4.9-3.6,10.5-12c5.5-8.4,18-9.2,18-9.2h1.8c0,0,11.7-0.8,17.6,7.7c5.7,8.3,12.4,18.1,12.4,18.1l-2.6-2.1
					c0.1,0.2,2.5,2.8,4.4,8.6c2,6,1.9,8.4,6,15.3c1.8,3,5.5,5.9,5.7,6.1L210.7,321.7z"/>
				<path class="st37" d="M132.7,338c0,0,0.1-6.1,6-5.7c5.9,0.4,15.6,3.9,31.1,3.9c15.4,0,25.9-3.8,31.8-3.4
					c5.9,0.4,6.2,4.1,6.2,4.1s-2.3-0.5-4.1-0.5c-1.8,0-64.3,3.5-64.3,3.5S134.5,336.6,132.7,338z"/>
				
					<radialGradient id="SVGID_00000181074185757040607880000013998555606400742275_" cx="161.6054" cy="315.19" r="1" gradientTransform="matrix(68.4879 0 0 -69.2119 -10895.0986 22290.2383)" gradientUnits="userSpaceOnUse">
					<stop  offset="0.6667" style="stop-color:#F4FDAB;stop-opacity:0.4"/>
					<stop  offset="0.849" style="stop-color:#F4FDAB"/>
					<stop  offset="1" style="stop-color:#FFB152;stop-opacity:0"/>
				</radialGradient>
				
					<path style="opacity:0.14;fill:url(#SVGID_00000181074185757040607880000013998555606400742275_);enable-background:new    ;" d="
					M170.2,547.3c39.3,0,71.2-32.2,71.2-72c0-39.7-31.9-72-71.2-72S99,435.6,99,475.3C99,515.1,130.9,547.3,170.2,547.3z"/>
				
					<radialGradient id="SVGID_00000045583511232460117290000011696955254801598639_" cx="161.6054" cy="315.19" r="1" gradientTransform="matrix(68.4879 0 0 -69.2119 -10895.0986 22290.2383)" gradientUnits="userSpaceOnUse">
					<stop  offset="0.6667" style="stop-color:#F4FDAB;stop-opacity:0.4"/>
					<stop  offset="0.849" style="stop-color:#F4FDAB"/>
					<stop  offset="1" style="stop-color:#FFB152;stop-opacity:0"/>
				</radialGradient>
				
					<path style="opacity:0.14;fill:url(#SVGID_00000045583511232460117290000011696955254801598639_);enable-background:new    ;" d="
					M170.2,547.3c39.3,0,71.2-32.2,71.2-72c0-39.7-31.9-72-71.2-72S99,435.6,99,475.3C99,515.1,130.9,547.3,170.2,547.3z"/>
				<path class="st2" d="M127.6,470.6c2-25.5,24.1-44.5,49.3-42.4c25.2,2,44,24.3,42,49.8c-2,25.5-24.1,44.5-49.3,42.4
					C144.4,518.4,125.6,496.1,127.6,470.6z"/>
				<path class="st40" d="M173.2,520.6c25.3,0,45.8-20.7,45.8-46.3c0-25.5-20.5-46.3-45.8-46.3s-45.8,20.7-45.8,46.3
					C127.4,499.8,148,520.6,173.2,520.6z"/>
				<path class="st41" d="M151.3,476.5c3,14.7,17.3,23.2,33.6,20.6c11.7-1.8,23.2,5.8,13.6,12.8c-8,5.8-18.1,9-28.8,8.1
					c-23.9-1.9-41.7-23-39.8-47.1C131.4,453.4,146.7,454.1,151.3,476.5z"/>
				<path class="st41" d="M159.2,456.6c4.6,22.3,28.1,40,51.6,18.8c2.3-2,6-0.7,5.7,2.3c-2.2,26.1-25.2,42-46.8,40.2
					c-23.9-1.9-41.7-23-39.8-47.1C131.4,453.4,154.7,434.3,159.2,456.6z"/>
				<path class="st42" d="M149.9,502c-0.7,0.9,1.7,4.6,7.4,7.3c-11.9-3.6-22.8-11.6-29.3-22.4l-4.5-16.7l8-14.7
					c-4.3,11.5-1.6,20.8,4.3,29.5c5.3,7.9,14.2,11.2,15.1,10.3c0.9-0.9-0.8-5.5-0.8-5.5c3.3,7.2,10.5,15.4,28.1,16.1
					C158.9,510.4,151.1,500.3,149.9,502z"/>
				<path class="st43" d="M144.4,438.3l-5.3,4.4c3.2,0.8,5.6,2.8,7.3,5.7c-0.5-1.8,0.5-2.1,1.6-0.4c0.8,1.3,2.6,6.1,2.7,8.6
					c0.1,2-1,3.1-1.6,0.9c0.5,5.2-0.2,11.3-2.2,17.1c5.9-15.4,12.3-12.2,19.5-8.6l0.1,0.1c-19.9-23.6,10.4-35.5,12.6-33.3
					c1.1,1.1-2.2,3-4.3,5.4c4.9-3.6,16.1-2.1,22.6,1.5c-3.7,0.9-6.8,2.9-6.8,2.9c12.2-2.5,18.2,1.6,22.5,9.1
					C197.7,423.3,160.9,422.6,144.4,438.3z"/>
				<path class="st44" d="M184.4,473.8c-11-6.5-12.1-21.9,1.1-14.1c8.9,5.3,11.4,0.9,14.4,5.3C203.2,469.8,192.5,478.6,184.4,473.8z
					"/>
				<path class="st45" d="M172.7,471.8c-0.2-0.3-0.4-0.6-0.6-0.9C172.3,471.3,172.5,471.6,172.7,471.8c6.5,8.9,22.3,14.8,31.9,1.7
					c-5.9,15.4-27,18.6-38.1,6.3C172.2,484.2,177.8,479.7,172.7,471.8z"/>
				<path class="st46" d="M204.6,473.6c-9.9,13.5-26.4,6.7-32.5-2.6c6,8.3,0.3,13.4-5.7,8.9C177.6,492.1,198.7,489,204.6,473.6z"/>
				<path class="st47" d="M193.8,464c0.1,0.2,0.2,0.5,0.3,0.7C194,464.5,193.9,464.3,193.8,464c-3.2-7.5-13.6-14.4-22.6-6.6
					c6.8-10.1,22.5-8.8,28.5,1.9C196.2,455.2,191.5,457.6,193.8,464z"/>
				<path class="st46" d="M171.2,457.4c9.3-8.1,20.2-0.4,22.9,7.4c-3-7,2-9.7,5.6-5.5C193.7,448.6,177.9,447.3,171.2,457.4z"/>
				<path class="st46" d="M158.4,484.8c3.9,4.9,15.1,13.3,29.5,8.1"/>
				<path class="st46" d="M181.7,440.2c-6.5,0.4-11.8,4.4-8.8,6.3"/>
				<path class="st48" d="M223,482.8c0,0-1.7-0.6-0.6-3c1.1-2.4,4.9-2,4.9-2l0.8,3.3l-3.3,2.3L223,482.8z"/>
				<path class="st15" d="M208.6,530.3c0,0-1.2-0.6-0.4-1.9c0.9-1.3,3.5-1.3,3.5-1.3l1.2,1.3l-1.9,2.2L208.6,530.3z"/>
				<path class="st15" d="M218.9,534.6c0,0,2.3,1.1,5.4,0.8c3.1-0.3,8.2-13.2,10.8-16.4c2.7-3.3,3.8-6.3,4-8.9
					c0.2-2.6,2.8-5.9,1.3-6.4c-1.5-0.4-10.5,6.3-11.6,7.6c-1.1,1.2-11.5,19.5-11.5,19.5L218.9,534.6z"/>
				<path class="st32" d="M243.3,494.8c0,0,1.1,1.1-0.2,4.2c-1,2.2-1.5,4-2.4,6.1c-0.9,2.1-4.7,6.7-6.9,3.6
					c-2.2-3.1-3.8-5.7-1.6-9.6s-0.2-6.8,1.5-7.1C235.2,491.7,243.3,494.8,243.3,494.8z"/>
				<path class="st32" d="M225,502c0,0,1.7,3.2,1,5.4c-0.7,2.1-2.1,3.9,0.9,6.6c4.5,3.9,6.2,3,8.8-3.3c1.6-3.8,2.1-5.6,2-7
					C237.7,502.3,229.6,498.1,225,502z"/>
				<path class="st32" d="M219.7,535c0,0,3.7-0.7,6.5-6.9c1.2-2.7,2.7-5.6,0.2-6.5c-2.5-0.9-8.8-1.2-10.4,3
					C214.5,528.8,219.7,535,219.7,535z"/>
				<path class="st32" d="M224.8,511.1c0,0,5.8,2.6,6.7,6c0.7,2.4-1,7.4-4.4,7.4c-3.7,0-6.8-2.5-6.8-2.5L224.8,511.1z"/>
				<path class="st15" d="M244.6,493.4c-1,4.4-6.8,4.7-9,3.3c-2.2-1.4-5.6-8-7.8-9.9c-1.2-1.1-3.1-2.2-4.9-4c0.8,0.2,1.6,0,2.3-0.5
					c1.6-1.2,2.2-2.3,2.2-2.3s-2.4,0.3-4.6,0.2c0,0,0,0-0.1,0c-1.5-0.1-2.8-1-3.5-2.3c0,0,0,0,0,0c-2.4-4.9,2.4-8.1,4.8-6.4
					c2.8,2,5.1,4,5.1,4s4.9,3.5,8.5,7.8C241.4,487.6,245.6,489,244.6,493.4z"/>
				<path class="st15" d="M223.8,502.3c1.9,1.5,5,6.3,8.2,6.8c3.2,0.5,7.7-2.7,7-6.8c-0.7-4.1-5.3-4.4-12.8-10.6
					c-3.7-3.2-8.1-6.8-11-8.6c-1.3-0.7-4.9-1.7-6.2,1.1c-1.4,2.9,0.1,5.9,2.3,8c1.5,1.4,5.3,4.7,7.6,6.2
					C221.1,500,223.8,502.3,223.8,502.3z"/>
				<path class="st15" d="M202.6,506c-1-1.3-3.7-4.8-0.9-7.4c2.9-2.7,6.8-0.6,9.1,1.9c2.3,2.5,4.9,4.8,9.4,7.7
					c4.1,2.6,8.2,4.9,9.2,6.5c1.8,2.8-1.1,10.3-5.7,8.7c-4-1.4-5.6-2.7-9-6.3C211.4,513.5,206,510.2,202.6,506z"/>
				<path class="st15" d="M215,535.3c-1.4-1.1-4.1-2.8-6.5-5c1.5,0.1,3.1-1.4,3.2-1.5c-1.4,0.7-4.2-0.2-5.2-0.6
					c-0.1-0.2-0.3-0.3-0.4-0.5c-2.4-3.1-3.4-3.6-6-8.2c-2.1-3.8-1-6.1,0.7-6.9c3.5-1.8,6.6,1.7,9.5,5.6c4.2,5.6,6.6,3.3,10.8,9.9
					C225.4,534.7,217.8,537.4,215,535.3z"/>
				<path class="st11" d="M231.6,477.2c0,0,1.9,1.9-0.6,5c-2.4,2.9-5.5,2.7-5.5,2.7"/>
				<path class="st11" d="M221,487.3c0.9,1,1.4,2.4,0,4.4c-2.3,3.4-5.2,4.1-6.5,3.3"/>
				<path class="st11" d="M213.9,503.7c0.6,0.9,0.8,1.8-1.3,4.4c-2.1,2.6-4.5,3.5-5.6,2.2"/>
				<path class="st11" d="M210,517.8c0.8,1.3,1.1,5-3.3,6.7c-2.2,0.8-3,0.2-3.6-0.6"/>
				<path class="st15" d="M128.6,532.4c0,0-2.2,1.3-5.4,1.2c-3.2-0.1-9.1-12.8-12-16c-2.9-3.1-4.3-6.1-4.7-8.7
					c-0.4-2.6-3.2-5.8-1.7-6.4c1.5-0.5,11,5.7,12.2,6.9c1.2,1.2,12.9,19,12.9,19L128.6,532.4z"/>
				<path class="st32" d="M101.3,493.7c0,0-1.1,1.2,0.5,4.2c1.1,2.2,1.8,3.9,2.8,6c1,2,5.2,6.5,7.3,3.2c2-3.3,3.5-6,1-9.8
					c-2.5-3.8-0.2-6.9-1.9-7.1C109.3,490,101.3,493.7,101.3,493.7z"/>
				<path class="st32" d="M120.3,499.7c0,0-1.5,3.4-0.7,5.5c0.8,2.1,2.4,3.8-0.5,6.7c-4.3,4.2-6.1,3.4-9.1-2.7
					c-1.9-3.8-2.5-5.5-2.5-6.9C107.5,500.9,115.4,496.2,120.3,499.7z"/>
				<path class="st32" d="M127.8,532.9c0,0-3.7-0.5-7-6.6c-1.4-2.6-3.1-5.5-0.6-6.6c2.5-1.1,8.9-1.8,10.7,2.3
					C132.7,526.2,127.8,532.9,127.8,532.9z"/>
				<path class="st32" d="M121.1,509c0,0-5.7,3.1-6.4,6.5c-0.5,2.5,1.5,7.5,4.9,7.2c3.7-0.3,6.7-3,6.7-3L121.1,509z"/>
				<path class="st15" d="M114.3,473.2c0,0,2.2-2.1,5-4.3c2.3-1.9,7.3,1,5.2,6.1c-2.1,5.1-6,7.5-8.1,9.5c-2,2.1-5.1,9-7.2,10.6
					c-2.1,1.5-8,1.5-9.3-2.8c-1.3-4.3,2.9-6,6.3-10.6C109.6,477,114.3,473.2,114.3,473.2z"/>
				<path class="st15" d="M121.5,500c-1.8,1.6-4.6,6.7-7.8,7.4c-3.2,0.8-7.9-2.3-7.5-6.5c0.4-4.2,5.1-4.8,12.2-11.6
					c3.6-3.4,7.7-7.5,10.6-9.4c1.2-0.8,4.8-2.1,6.4,0.8c1.6,2.8,0.3,6-1.8,8.3c-1.4,1.6-5.1,5.1-7.3,6.8
					C124.1,497.4,121.5,500,121.5,500z"/>
				<path class="st15" d="M143.3,502.3c1-1.3,3.5-5.1,0.4-7.6c-3.1-2.5-7-0.1-9.1,2.5c-2.2,2.7-4.7,5.2-9,8.4
					c-4,2.9-7.9,5.5-8.9,7.2c-1.6,2.9,1.7,10.4,6.4,8.4c3.9-1.7,5.5-3.1,8.7-7C134.8,510.5,140.1,506.8,143.3,502.3z"/>
				<path class="st15" d="M145.4,509c1.8,0.7,3.1,3,1.1,7c-2.3,4.8-3.3,5.3-5.5,8.7c-2.3,3.5-6.7,6.6-8.5,8.2
					c-2.6,2.3-10.6,0.1-6.7-6.8c3.9-6.9,6.4-4.8,10.3-10.7C138.8,511.2,141.8,507.4,145.4,509z"/>
				<path class="st11" d="M112.1,475.3c0,0-1,2.1,1.7,5.1c2.6,2.8,5,2.3,5,2.3"/>
				<path class="st11" d="M123.4,484.7c-0.9,1-1.3,2.5,0.3,4.5c2.5,3.3,5.5,3.8,6.7,2.9"/>
				<path class="st11" d="M131.7,500.8c-0.5,1-0.7,1.9,1.6,4.4c2.3,2.5,4.8,3.3,5.8,1.9"/>
				<path class="st11" d="M136.5,514.8c-0.8,1.4-0.8,5.1,3.8,6.6c2.2,0.7,3,0,3.6-0.8"/>
				<path class="st11" d="M104.4,483.7c0,0-0.7,4.8,1.5,7.2"/>
				<path class="st11" d="M102.5,485.5l2.9,1.2"/>
				<path class="st11" d="M115.4,506.6l0.4-5.1"/>
				<path class="st11" d="M134.6,497.3l4.3,0.7"/>
				<path class="st11" d="M138.5,527.7l-3.8-0.3"/>
				<path class="st11" d="M201.7,505l4,0.8"/>
				<path class="st11" d="M223.8,502.3c0,0,3.7,1.3,5.7,0.1"/>
				<path class="st11" d="M227.2,492.6c0,0,1,1.4,1.4,3"/>
				<path class="st11" d="M237.8,483.3c0,0,1.4,1.9,1.4,4"/>
				<path class="st11" d="M236.8,485.4c0,0,3.4,0.2,5.5,2.3"/>
				<path class="st11" d="M231,515.6l0.3-3.4"/>
				<path class="st11" d="M227.1,480.7c0,0,1.2-1,1.7-3.7"/>
				<path class="st49" d="M204.3,336.4h-32.5h-0.4h-0.7h-0.4h-25l-1,3l-2.6-3h-3.9c0,0-9.6,0.2-8.2,10c1.4,9.9,2,12.1,2,12.1
					s1.4,6,6.8,6h9.4c1.5,0,2.9-0.3,4.3-0.9l5.7-2.6c1.5-0.7,3.1-1,4.8-1h8h0.7h8c1.7,0,3.3,0.4,4.8,1l5.7,2.6
					c1.3,0.6,2.8,0.9,4.3,0.9h9.4c5.4,0,6.8-6,6.8-6s0.6-2.2,2-12.1C213.9,336.6,204.3,336.4,204.3,336.4z"/>
				<path class="st11" d="M204.3,336.4h-32.5h-0.4h-0.7h-0.4h-25l-1,3l-2.6-3h-3.9c0,0-9.6,0.2-8.2,10c1.4,9.9,2,12.1,2,12.1
					s1.4,6,6.8,6h9.4c1.5,0,2.9-0.3,4.3-0.9l5.7-2.6c1.5-0.7,3.1-1,4.8-1h8h0.7h8c1.7,0,3.3,0.4,4.8,1l5.7,2.6
					c1.3,0.6,2.8,0.9,4.3,0.9h9.4c5.4,0,6.8-6,6.8-6s0.6-2.2,2-12.1C213.9,336.6,204.3,336.4,204.3,336.4z"/>
				<path class="st19" d="M212.7,348c-1.4,10-2,12.2-2,12.2s-1.4,6.1-6.8,6.1h-9.4c-1.5,0-2.9-0.3-4.3-0.9l-5.7-2.7
					c-1.5-0.7-3.1-1.1-4.8-1.1H163c-1.7,0-3.3,0.4-4.8,1.1l-5.7,2.7c-1.3,0.6-2.8,0.9-4.3,0.9h-9.4c-5.4,0-6.8-6.1-6.8-6.1
					s-0.6-2.2-2-12.2c-1.4-10,8.2-10.2,8.2-10.2h4L142,338l2.6,3l1.3-3.1h58.7C204.5,337.8,214.1,338,212.7,348z"/>
				<path class="st26" d="M185.6,354.6l16.2-4.1c0.4-0.1,0.6-0.5,0.5-0.9c-0.1-0.3-0.4-0.5-0.8-0.5l-16.5,2.7
					c-0.8,0.1-1.3,0.9-1.2,1.7C184,354.2,184.8,354.8,185.6,354.6z"/>
				<path class="st11" d="M145.8,337.8h24.8h0.4h0.7h0.4h32.5c0,0,9.6,0.2,8.2,10.2c-1.4,10-2,12.2-2,12.2s-1.4,6.1-6.8,6.1h-9.4
					c-1.5,0-2.9-0.3-4.3-0.9l-5.7-2.7c-1.5-0.7-3.1-1.1-4.8-1.1h-8H171h-8c-1.7,0-3.3,0.4-4.8,1.1l-5.7,2.7
					c-1.3,0.6-2.8,0.9-4.3,0.9h-9.4c-5.4,0-6.8-6.1-6.8-6.1s-0.6-2.2-2-12.2c-1.4-10,8.2-10.2,8.2-10.2h4l2.5,3.1L145.8,337.8z"/>
				<path class="st50" d="M184.7,361.9l-2.2,0c-1.2-0.5-2.5-0.8-3.9-0.8h-14.9c-1.1,0-2.1,0.2-3.1,0.5l-2.5,0c0,0,20.6,0.6,4-16.5
					c-3-3.1-7.7-5.2-11.7-6c-0.3-0.1-0.3-0.6,0.1-0.6h28.4C142.5,339.8,184.7,361.9,184.7,361.9z"/>
				<path class="st51" d="M209,346.1c-0.4-0.1-0.8-0.4-1.2-1c-0.2-0.3-0.1-0.6,0.2-0.8c0.5-0.2,0.8-0.8,0.8-1.4
					c0-0.9-0.6-1.7-1.4-1.7c-0.3,0-0.6,0.1-0.8,0.3c-0.3,0.2-0.7,0.1-0.8-0.2c-0.1-0.3-0.2-0.6-0.3-0.9c-0.3-0.7,0.4-1.5,1.1-1.3
					c1.4,0.4,3.3,1.2,4.2,2.8C212.6,344.6,210.9,346.4,209,346.1z"/>
				<path class="st52" d="M135.5,343.8c0.5,0,1-0.5,1-1.1c0-0.6-0.4-1.1-1-1.1c-0.5,0-1,0.5-1,1.1
					C134.5,343.3,134.9,343.8,135.5,343.8z"/>
				<path class="st52" d="M137.9,364.4c0.5,0,0.9-0.5,0.9-1.1c0-0.6-0.4-1.1-0.9-1.1c-0.5,0-1,0.5-1,1.1
					C137,364,137.4,364.4,137.9,364.4z"/>
				<path class="st52" d="M204.1,364.4c0.5,0,0.9-0.5,0.9-1.1c0-0.6-0.4-1.1-0.9-1.1c-0.5,0-1,0.5-1,1.1
					C203.1,364,203.6,364.4,204.1,364.4z"/>
				<path class="st26" d="M156.7,354.6l-16.2-4.1c-0.4-0.1-0.6-0.5-0.5-0.9c0.1-0.3,0.4-0.5,0.8-0.5l16.5,2.7
					c0.8,0.1,1.3,0.9,1.2,1.7C158.2,354.2,157.4,354.8,156.7,354.6z"/>
				<path class="st52" d="M207.5,343.8c0.5,0,1-0.5,1-1.1c0-0.6-0.4-1.1-1-1.1c-0.5,0-1,0.5-1,1.1
					C206.5,343.3,206.9,343.8,207.5,343.8z"/>
				<path class="st11" d="M184.2,337.9l-5.9,6.5"/>
				<path class="st11" d="M145.7,366.2l-0.7-3.4"/>
				<path class="st11" d="M144,366.3l3.9-1.8"/>
				<path class="st53" d="M142.1,337.8l-0.3-1.2l2.6,2.7l1-2.7l0.4,1.1l-1.3,3.1L142.1,337.8z"/>
				
					<radialGradient id="SVGID_00000142168553671549806980000000490527314832265621_" cx="158.9767" cy="319.7949" r="1" gradientTransform="matrix(32.6476 0 0 -32.9736 -5018.6802 10891.4707)" gradientUnits="userSpaceOnUse">
					<stop  offset="0" style="stop-color:#F7941D"/>
					<stop  offset="0.9718" style="stop-color:#F7941D;stop-opacity:2.820000e-02"/>
					<stop  offset="1" style="stop-color:#F7941D;stop-opacity:0"/>
				</radialGradient>
				
					<path style="opacity:0.53;fill:url(#SVGID_00000142168553671549806980000000490527314832265621_);enable-background:new    ;" d="
					M211.2,341.5c0,0,2,1.6,1.6,5l-0.7,6.3c0,0,2.5,3.4,1.5,7.7c-0.9,4.3-3.3,14.1-5.3,16.7c-2.1,2.6-9.4-7.1-13.8-7
					c0,0-5.9,1.9-5-1.9l-0.1-2.9l-14.9-1.7l-2.3,2h-1h-0.2h-1l-2.3-2l-14.9,1.7l-0.1,2.9c0.9,3.8-5,1.9-5,1.9
					c-4.3-0.1-11.7,9.6-13.8,7c-2.1-2.6-4.4-12.4-5.3-16.7c-0.9-4.3,1.5-7.7,1.5-7.7l-0.7-6.3c-0.4-3.4,1.6-5,1.6-5H211.2z"/>
				<g class="st55">
					<path class="st45" d="M203.9,350.6c-0.3-1.1-1.5-1.9-2.6-1.7l-16.5,2.7c-0.8,0.1-1.5,0.6-2,1.3c-0.5,0.7-0.7,1.5-0.5,2.3
						c0.1,0.8,0.6,1.6,1.4,2c0.5,0.3,1.1,0.5,1.7,0.5c0.2,0,0.5,0,0.7-0.1l16.2-4.1c0.6-0.2,1.2-0.6,1.5-1.1
						C204,351.9,204.1,351.2,203.9,350.6z"/>
					<path class="st45" d="M157.5,351.6l-16.5-2.7c-1.2-0.2-2.3,0.5-2.6,1.7c-0.2,0.6-0.1,1.3,0.2,1.9c0.3,0.6,0.9,1,1.5,1.1
						l16.2,4.1c0.2,0.1,0.5,0.1,0.7,0.1c0.6,0,1.2-0.2,1.7-0.5c0.7-0.5,1.2-1.2,1.4-2c0.2-0.8,0-1.7-0.5-2.3
						C159,352.2,158.3,351.8,157.5,351.6z"/>
				</g>
				<path class="st34" d="M168.8,364.9c0,0-6.8-5.6-9.2-4.7c-1.6,0.6-6.5,3.6-6.9,5.2c-0.6,2.3,0.5,3.7,0.5,3.7"/>
				<path class="st11" d="M168.8,364.9c0,0-6.8-5.6-9.2-4.7c-1.6,0.6-6.5,3.6-6.9,5.2c-0.6,2.3,0.5,3.7,0.5,3.7"/>
				<path class="st56" d="M162.7,366.3c-0.6-0.3-1.3-0.3-1.9,0c-0.7,0.3-1.6,0.5-2.3-0.1c-1.1-1.2-0.3-2.7,0.9-2.4
					c1.7,0.5,6.2,3.7,6.2,3.7L162.7,366.3z"/>
				<path class="st11" d="M158,364.8c0,0-0.4,1.9,2.6,3.7"/>
				<path class="st34" d="M173.2,364.9c0,0,6.8-5.6,9.2-4.7c1.6,0.6,6.5,3.6,6.9,5.2c0.6,2.3-0.5,3.7-0.5,3.7"/>
				<path class="st11" d="M173.2,364.9c0,0,6.8-5.6,9.2-4.7c1.6,0.6,6.5,3.6,6.9,5.2c0.6,2.3-0.5,3.7-0.5,3.7"/>
				<path class="st56" d="M179.3,366.3c0.6-0.3,1.3-0.3,1.9,0c0.7,0.3,1.6,0.5,2.3-0.1c1.1-1.2,0.3-2.7-0.9-2.4
					c-1.7,0.5-6.2,3.7-6.2,3.7L179.3,366.3z"/>
				<path class="st11" d="M184,364.8c0,0,0.4,1.9-2.6,3.7"/>
			</g>
		</g>
	</g>
</g>
<linearGradient id="SVGID_00000031178157750068980160000003842094115277838731_" gradientUnits="userSpaceOnUse" x1="33" y1="527.4377" x2="190.5" y2="527.4377" gradientTransform="matrix(1 0 0 -1 0 601)">
	<stop  offset="0" style="stop-color:#FF7722"/>
	<stop  offset="1" style="stop-color:#F4FDAB"/>
</linearGradient>
<path style="fill:url(#SVGID_00000031178157750068980160000003842094115277838731_);" d="M53.2,63h-4.9l-9.5-10.9V63H35V40.6h3.8
	v9.8l8.8-9.8h4.8l-9.7,10.6L53.2,63z M54.8,40.8c0.4-0.4,1-0.7,1.6-0.7s1.2,0.2,1.6,0.7c0.5,0.4,0.7,1,0.7,1.6
	c0,0.6-0.2,1.2-0.7,1.6c-0.4,0.4-1,0.7-1.6,0.7s-1.2-0.2-1.6-0.7c-0.4-0.4-0.7-1-0.7-1.6C54.1,41.7,54.3,41.2,54.8,40.8z M54.6,47.4
	h3.5V63h-3.5V47.4z M76.2,59c-0.6,1.3-1.5,2.3-2.8,3.1c-1.3,0.8-2.8,1.2-4.4,1.2c-2.3,0-4.3-0.8-5.8-2.3c-1.6-1.6-2.3-3.5-2.3-5.8
	c0-1.5,0.4-2.9,1.1-4.2c0.7-1.2,1.7-2.2,2.9-2.9C66,47.4,67.4,47,69,47c1.5,0,2.9,0.3,4.1,1c1.2,0.7,2.1,1.6,2.7,2.8l-3,1.7
	c-0.3-0.6-0.8-1.1-1.5-1.5c-0.7-0.4-1.4-0.6-2.2-0.6c-1.3,0-2.4,0.5-3.3,1.4c-0.9,0.9-1.3,2-1.3,3.4c0,1.3,0.4,2.5,1.3,3.4
	c0.9,0.9,2,1.3,3.3,1.3c0.9,0,1.7-0.2,2.4-0.6c0.7-0.4,1.2-1,1.6-1.7L76.2,59z M93.3,63h-4.6L82,55.6V63h-3.5V40.6H82v13.5l6.3-6.8
	h4.4l-7.2,7.5L93.3,63z M92,56.4V53h9.5v3.3H92z M105.4,49.4c1.6-1.6,3.5-2.3,5.8-2.3c2.3,0,4.2,0.8,5.8,2.3
	c1.6,1.6,2.3,3.5,2.3,5.8s-0.8,4.2-2.3,5.8c-1.6,1.6-3.5,2.3-5.8,2.3c-2.3,0-4.2-0.8-5.8-2.3c-1.6-1.6-2.3-3.5-2.3-5.8
	S103.9,50.9,105.4,49.4z M114.5,51.8c-0.9-0.9-2-1.4-3.3-1.4c-1.3,0-2.4,0.5-3.3,1.4s-1.3,2-1.3,3.4c0,1.3,0.4,2.5,1.3,3.4
	c0.9,0.9,2,1.3,3.3,1.3c1.3,0,2.4-0.5,3.3-1.4c0.9-0.9,1.3-2,1.3-3.3C115.8,53.8,115.4,52.7,114.5,51.8z M126.8,46.1v1.2h4.1v3.4
	h-4.1V63h-3.5V50.8h-3v-3.4h3v-1.4c0-1.9,0.5-3.4,1.6-4.4c1.1-1.1,2.5-1.6,4.3-1.6c0.7,0,1.4,0.1,1.9,0.4l-0.2,3.2
	c-0.4-0.1-0.8-0.2-1.2-0.2c-0.8,0-1.5,0.3-2,0.8C127.1,44.5,126.8,45.2,126.8,46.1z M138.1,46.1v1.2h4.1v3.4h-4.1V63h-3.5V50.8h-3
	v-3.4h3v-1.4c0-1.9,0.5-3.4,1.6-4.4c1.1-1.1,2.5-1.6,4.3-1.6c0.7,0,1.4,0.1,1.9,0.4l-0.2,3.2c-0.4-0.1-0.8-0.2-1.2-0.2
	c-0.8,0-1.5,0.3-2,0.8C138.4,44.5,138.1,45.2,138.1,46.1z M149.6,40.6h4.5l5.7,8.9l5.6-8.9h4.4l-8.1,12.7V63h-3.8v-9.7L149.6,40.6z
	 M168.9,49.4c1.6-1.6,3.5-2.3,5.8-2.3c2.3,0,4.2,0.8,5.8,2.3c1.6,1.6,2.3,3.5,2.3,5.8s-0.8,4.2-2.3,5.8c-1.6,1.6-3.5,2.3-5.8,2.3
	c-2.3,0-4.2-0.8-5.8-2.3c-1.6-1.6-2.3-3.5-2.3-5.8S167.3,50.9,168.9,49.4z M177.9,51.8c-0.9-0.9-2-1.4-3.3-1.4s-2.4,0.5-3.3,1.4
	s-1.3,2-1.3,3.4c0,1.3,0.4,2.5,1.3,3.4c0.9,0.9,2,1.3,3.3,1.3c1.3,0,2.4-0.5,3.3-1.4c0.9-0.9,1.3-2,1.3-3.3
	C179.3,53.8,178.8,52.7,177.9,51.8z M196.6,47.4h3.6V63h-3.6v-2.1c-0.5,0.7-1.1,1.3-2,1.8c-0.9,0.4-1.8,0.7-2.8,0.7
	c-2,0-3.5-0.6-4.7-1.9c-1.1-1.3-1.7-3-1.7-5.2v-8.9h3.5v8.3c0,1.2,0.3,2.2,1,3c0.7,0.7,1.6,1.1,2.7,1.1c0.8,0,1.5-0.2,2.2-0.6
	c0.7-0.4,1.3-0.9,1.7-1.6V47.4z M211.2,47c0.7,0,1.3,0.1,1.8,0.2l-0.2,3.4c-0.6-0.2-1.2-0.3-1.9-0.3c-0.6,0-1.3,0.2-2,0.7
	c-0.7,0.5-1.3,1.1-1.7,2v10h-3.5V47.4h3.5v2.1c0.4-0.7,1-1.3,1.7-1.8C209.7,47.3,210.4,47,211.2,47z M43.6,78.6c2.1,0,3.8,0.7,5.1,2
	c1.4,1.3,2,2.9,2,4.9c0,2-0.7,3.7-2,5c-1.4,1.3-3.1,2-5.1,2h-4.8v8.6H35V78.6H43.6z M43.6,88.8c1,0,1.8-0.3,2.4-1
	c0.6-0.6,1-1.4,1-2.4c0-0.9-0.3-1.7-1-2.3c-0.6-0.6-1.5-0.9-2.4-0.9h-4.8v6.6H43.6z M60.6,85c0.7,0,1.3,0.1,1.8,0.2l-0.2,3.4
	c-0.6-0.2-1.2-0.3-1.9-0.3c-0.6,0-1.3,0.2-2,0.7c-0.7,0.5-1.3,1.1-1.7,2v10h-3.5V85.4h3.5v2.1c0.4-0.7,1-1.3,1.7-1.8
	C59.1,85.3,59.9,85,60.6,85z M65,87.4c1.6-1.6,3.5-2.3,5.8-2.3s4.2,0.8,5.8,2.3s2.3,3.5,2.3,5.8s-0.8,4.2-2.3,5.8
	c-1.6,1.6-3.5,2.3-5.8,2.3s-4.2-0.8-5.8-2.3c-1.6-1.6-2.3-3.5-2.3-5.8S63.4,88.9,65,87.4z M74,89.8c-0.9-0.9-2-1.4-3.3-1.4
	s-2.4,0.5-3.3,1.4s-1.3,2-1.3,3.4c0,1.3,0.4,2.5,1.3,3.4c0.9,0.9,2,1.3,3.3,1.3c1.3,0,2.4-0.5,3.3-1.4c0.9-0.9,1.3-2,1.3-3.3
	C75.3,91.8,74.9,90.7,74,89.8z M81.7,78.8c0.4-0.4,1-0.7,1.6-0.7s1.2,0.2,1.6,0.7c0.5,0.4,0.7,1,0.7,1.6c0,0.6-0.2,1.2-0.7,1.6
	c-0.5,0.4-1,0.7-1.6,0.7s-1.2-0.2-1.6-0.7c-0.4-0.4-0.7-1-0.7-1.6C81,79.7,81.2,79.2,81.7,78.8z M79.1,103.9
	c0.3,0.1,0.5,0.1,0.5,0.1c0.6,0,1.1-0.2,1.4-0.7c0.3-0.4,0.5-1.1,0.5-1.9V85.4h3.5v16.5c0,1.7-0.5,3-1.4,4c-0.9,0.9-2.2,1.4-3.8,1.4
	c-0.4,0-0.8,0-1-0.1L79.1,103.9z M103.3,92.5c0,0.6,0,1.1-0.1,1.5H91.3c0.2,1.3,0.7,2.3,1.5,3c0.8,0.7,1.9,1.1,3.1,1.1
	c0.9,0,1.7-0.2,2.4-0.5c0.7-0.4,1.3-0.8,1.7-1.5l2.8,1.8c-0.6,1.1-1.5,1.9-2.7,2.5c-1.2,0.6-2.7,0.9-4.3,0.9c-1.5,0-2.9-0.4-4.1-1.1
	c-1.2-0.7-2.2-1.7-3-3c-0.7-1.3-1.1-2.7-1.1-4.2c0-1.5,0.4-2.8,1.1-4.1c0.7-1.2,1.7-2.2,2.9-2.9c1.2-0.7,2.6-1.1,4.1-1.1
	c1.4,0,2.7,0.3,3.8,1c1.2,0.7,2.1,1.6,2.7,2.7C103,89.9,103.3,91.1,103.3,92.5z M91.4,91.3h8.2c-0.1-1-0.5-1.8-1.2-2.4
	c-0.7-0.6-1.6-0.9-2.7-0.9c-1.1,0-1.9,0.3-2.7,0.9C92.2,89.4,91.7,90.3,91.4,91.3z M120.3,97c-0.6,1.3-1.5,2.3-2.8,3.1
	c-1.3,0.8-2.8,1.2-4.4,1.2c-2.3,0-4.3-0.8-5.8-2.3c-1.6-1.6-2.3-3.5-2.3-5.8c0-1.5,0.4-2.9,1.1-4.2c0.7-1.2,1.7-2.2,2.9-2.9
	c1.2-0.7,2.6-1.1,4.2-1.1c1.5,0,2.9,0.3,4.1,1c1.2,0.7,2.1,1.6,2.7,2.8l-3,1.7c-0.3-0.6-0.8-1.1-1.5-1.5c-0.7-0.4-1.4-0.6-2.2-0.6
	c-1.3,0-2.4,0.5-3.3,1.4c-0.9,0.9-1.3,2-1.3,3.4c0,1.3,0.4,2.5,1.3,3.4c0.9,0.9,2,1.3,3.3,1.3c0.9,0,1.7-0.2,2.4-0.6
	c0.7-0.4,1.2-1,1.6-1.7L120.3,97z M131.6,97.7l0.2,3.1c-0.5,0.2-1.2,0.4-1.9,0.4c-1.8,0-3.2-0.5-4.3-1.6c-1.1-1.1-1.6-2.6-1.6-4.5
	v-6.4h-3v-3.4h3v-4.2h3.5v4.2h4.1v3.4h-4.1V95c0,0.9,0.3,1.6,0.8,2.1c0.6,0.5,1.2,0.8,2,0.8C130.8,97.9,131.2,97.8,131.6,97.7z"/>
<path class="st58" d="M145.2,101l-5.7-15.6h3.8l3.3,10.1l3.7-10.1h2.9l3.7,10.1l3.3-10.1h3.8l-5.7,15.6h-2.9l-3.7-10.1L148,101
	H145.2z M166.2,78.8c0.4-0.4,1-0.7,1.6-0.7s1.2,0.2,1.6,0.7c0.5,0.4,0.7,1,0.7,1.6c0,0.6-0.2,1.2-0.7,1.6c-0.4,0.4-1,0.7-1.6,0.7
	s-1.2-0.2-1.6-0.7c-0.4-0.4-0.7-1-0.7-1.6C165.5,79.7,165.7,79.2,166.2,78.8z M166,85.4h3.5V101H166V85.4z M182.1,97.7l0.2,3.1
	c-0.5,0.2-1.2,0.4-1.9,0.4c-1.8,0-3.2-0.5-4.3-1.6c-1.1-1.1-1.6-2.6-1.6-4.5v-6.4h-3v-3.4h3v-4.2h3.5v4.2h4.1v3.4H178V95
	c0,0.9,0.3,1.6,0.8,2.1c0.6,0.5,1.2,0.8,2,0.8C181.2,97.9,181.6,97.8,182.1,97.7z M193.1,85c2,0,3.5,0.6,4.7,1.9
	c1.2,1.3,1.7,3,1.7,5.1v8.9h-3.6v-8.4c0-1.3-0.3-2.2-1-3c-0.7-0.7-1.6-1.1-2.7-1.1c-0.8,0-1.5,0.2-2.3,0.6c-0.7,0.4-1.3,0.9-1.6,1.6
	V101h-3.5V78.6h3.5v8.9c0.5-0.8,1.1-1.3,2-1.8C191.2,85.2,192.1,85,193.1,85z M225,101l-1.7-4.5h-9.5L212,101h-4l8.9-22.4h3.1
	l8.9,22.4H225z M215.2,92.9h6.7l-3.3-8.6L215.2,92.9z M239.5,85c2.1,0,3.9,0.8,5.3,2.4c1.5,1.6,2.2,3.5,2.2,5.8
	c0,2.3-0.7,4.2-2.2,5.8c-1.4,1.6-3.2,2.4-5.3,2.4c-1,0-2-0.2-3-0.7c-0.9-0.5-1.6-1-2-1.8v7.6h-3.5V85.4h3.5v2.1
	c0.4-0.7,1.1-1.3,2-1.7C237.4,85.3,238.4,85,239.5,85z M238.7,97.9c1.3,0,2.5-0.4,3.4-1.3c0.9-0.9,1.4-2,1.4-3.4
	c0-1.4-0.5-2.5-1.4-3.4c-0.9-0.9-2-1.4-3.4-1.4c-0.9,0-1.7,0.2-2.5,0.7c-0.8,0.4-1.4,1-1.8,1.7v4.8c0.4,0.7,1,1.3,1.8,1.7
	C237,97.7,237.8,97.9,238.7,97.9z M264.1,92.5c0,0.6,0,1.1-0.1,1.5h-11.9c0.2,1.3,0.7,2.3,1.5,3c0.8,0.7,1.9,1.1,3.1,1.1
	c0.9,0,1.7-0.2,2.4-0.5c0.7-0.4,1.3-0.8,1.7-1.5l2.8,1.8c-0.6,1.1-1.5,1.9-2.7,2.5c-1.2,0.6-2.7,0.9-4.3,0.9c-1.5,0-2.9-0.4-4.1-1.1
	c-1.2-0.7-2.2-1.7-3-3c-0.7-1.3-1.1-2.7-1.1-4.2c0-1.5,0.4-2.8,1.1-4.1c0.7-1.2,1.7-2.2,2.9-2.9c1.2-0.7,2.6-1.1,4.1-1.1
	c1.4,0,2.7,0.3,3.8,1c1.2,0.7,2.1,1.6,2.7,2.7C263.8,89.9,264.1,91.1,264.1,92.5z M252.2,91.3h8.2c-0.1-1-0.5-1.8-1.2-2.4
	c-0.7-0.6-1.6-0.9-2.7-0.9c-1.1,0-1.9,0.3-2.7,0.9C253,89.4,252.5,90.3,252.2,91.3z M50.2,139l-1.7-4.5H39l-1.8,4.5h-4l8.9-22.4h3.1
	l8.9,22.4H50.2z M40.4,130.9h6.7l-3.3-8.6L40.4,130.9z M70.7,135c-0.6,1.3-1.5,2.3-2.8,3.1c-1.3,0.8-2.8,1.2-4.4,1.2
	c-2.3,0-4.3-0.8-5.8-2.3c-1.6-1.6-2.3-3.5-2.3-5.8c0-1.5,0.4-2.9,1.1-4.2c0.7-1.2,1.7-2.2,2.9-2.9c1.2-0.7,2.6-1.1,4.2-1.1
	c1.5,0,2.9,0.3,4.1,1c1.2,0.7,2.1,1.6,2.7,2.8l-3,1.7c-0.3-0.6-0.8-1.1-1.5-1.5c-0.7-0.4-1.4-0.6-2.2-0.6c-1.3,0-2.4,0.5-3.3,1.4
	c-0.9,0.9-1.3,2-1.3,3.4c0,1.3,0.4,2.5,1.3,3.4c0.9,0.9,2,1.3,3.3,1.3c0.9,0,1.7-0.2,2.4-0.6c0.7-0.4,1.2-1,1.6-1.7L70.7,135z
	 M82.1,135.7l0.2,3.1c-0.5,0.2-1.2,0.4-1.9,0.4c-1.8,0-3.2-0.5-4.3-1.6c-1.1-1.1-1.6-2.6-1.6-4.5v-6.4h-3v-3.4h3v-4.2H78v4.2h4.1
	v3.4H78v6.2c0,0.9,0.3,1.6,0.8,2.1c0.6,0.5,1.2,0.8,2,0.8C81.3,135.9,81.7,135.8,82.1,135.7z M85,116.8c0.4-0.4,1-0.7,1.6-0.7
	s1.2,0.2,1.6,0.7c0.5,0.4,0.7,1,0.7,1.6c0,0.6-0.2,1.2-0.7,1.6c-0.4,0.4-1,0.7-1.6,0.7s-1.2-0.2-1.6-0.7s-0.7-1-0.7-1.6
	C84.4,117.7,84.6,117.2,85,116.8z M84.8,123.4h3.5V139h-3.5V123.4z M106.5,123.4L100,139h-3.1l-6.5-15.6h3.9l4.2,10.9l4.2-10.9
	H106.5z M119.2,123.4h3.6V139h-3.6v-2.1c-0.4,0.7-1.1,1.3-2,1.8c-0.9,0.4-1.9,0.7-3,0.7c-2.1,0-3.9-0.8-5.3-2.4
	c-1.4-1.6-2.2-3.5-2.2-5.8c0-2.3,0.7-4.2,2.2-5.8c1.5-1.6,3.2-2.4,5.3-2.4c1,0,2,0.2,3,0.7c0.9,0.5,1.6,1,2,1.8V123.4z M115,135.9
	c0.9,0,1.7-0.2,2.5-0.7c0.8-0.4,1.4-1,1.8-1.7v-4.8c-0.4-0.7-1-1.3-1.8-1.7c-0.8-0.4-1.6-0.7-2.5-0.7c-1.3,0-2.5,0.5-3.4,1.4
	c-0.9,0.9-1.4,2-1.4,3.4c0,1.4,0.5,2.5,1.4,3.4C112.5,135.5,113.6,135.9,115,135.9z M135.3,135.7l0.2,3.1c-0.5,0.2-1.2,0.4-1.9,0.4
	c-1.8,0-3.2-0.5-4.3-1.6c-1.1-1.1-1.6-2.6-1.6-4.5v-6.4h-3v-3.4h3v-4.2h3.5v4.2h4.1v3.4h-4.1v6.2c0,0.9,0.3,1.6,0.8,2.1
	c0.6,0.5,1.2,0.8,2,0.8C134.5,135.9,134.9,135.8,135.3,135.7z M138.7,125.4c1.6-1.6,3.5-2.3,5.8-2.3c2.3,0,4.2,0.8,5.8,2.3
	c1.6,1.6,2.3,3.5,2.3,5.8c0,2.3-0.8,4.2-2.3,5.8c-1.6,1.6-3.5,2.3-5.8,2.3c-2.3,0-4.2-0.8-5.8-2.3c-1.6-1.6-2.3-3.5-2.3-5.8
	C136.4,128.9,137.2,126.9,138.7,125.4z M147.8,127.8c-0.9-0.9-2-1.4-3.3-1.4s-2.4,0.5-3.3,1.4c-0.9,0.9-1.3,2-1.3,3.4
	c0,1.3,0.4,2.5,1.3,3.4c0.9,0.9,2,1.3,3.3,1.3c1.3,0,2.4-0.5,3.3-1.4c0.9-0.9,1.3-2,1.3-3.3C149.1,129.8,148.6,128.7,147.8,127.8z
	 M162.8,123c0.7,0,1.3,0.1,1.8,0.2l-0.2,3.4c-0.6-0.2-1.2-0.3-1.9-0.3c-0.6,0-1.3,0.2-2,0.7c-0.7,0.5-1.3,1.1-1.7,2v10h-3.5v-15.6
	h3.5v2.1c0.4-0.7,1-1.3,1.7-1.8C161.3,123.3,162.1,123,162.8,123z M190,116.6v3.6h-6.9V139h-3.7v-18.8h-6.9v-3.6H190z M190,125.4
	c1.6-1.6,3.5-2.3,5.8-2.3c2.3,0,4.2,0.8,5.8,2.3c1.6,1.6,2.3,3.5,2.3,5.8c0,2.3-0.8,4.2-2.3,5.8c-1.6,1.6-3.5,2.3-5.8,2.3
	c-2.3,0-4.2-0.8-5.8-2.3c-1.6-1.6-2.3-3.5-2.3-5.8C187.7,128.9,188.5,126.9,190,125.4z M199.1,127.8c-0.9-0.9-2-1.4-3.3-1.4
	c-1.3,0-2.4,0.5-3.3,1.4c-0.9,0.9-1.3,2-1.3,3.4c0,1.3,0.4,2.5,1.3,3.4c0.9,0.9,2,1.3,3.3,1.3c1.3,0,2.4-0.5,3.3-1.4
	c0.9-0.9,1.3-2,1.3-3.3C200.4,129.8,200,128.7,199.1,127.8z M218,116.6h3.6V139H218v-2.1c-0.4,0.7-1.1,1.3-2,1.8
	c-0.9,0.4-1.9,0.7-3,0.7c-2.1,0-3.9-0.8-5.3-2.4c-1.4-1.6-2.2-3.5-2.2-5.8c0-2.3,0.7-4.2,2.2-5.8c1.5-1.6,3.2-2.4,5.3-2.4
	c1,0,2,0.2,3,0.7c0.9,0.5,1.6,1,2,1.8V116.6z M213.8,135.9c0.9,0,1.7-0.2,2.5-0.7c0.8-0.4,1.4-1,1.8-1.7v-4.8
	c-0.4-0.7-1-1.3-1.8-1.7c-0.8-0.4-1.6-0.7-2.5-0.7c-1.3,0-2.5,0.5-3.4,1.4c-0.9,0.9-1.4,2-1.4,3.4c0,1.4,0.5,2.5,1.4,3.4
	C211.3,135.5,212.4,135.9,213.8,135.9z M236.4,123.4h3.6V139h-3.6v-2.1c-0.4,0.7-1.1,1.3-2,1.8c-0.9,0.4-1.9,0.7-3,0.7
	c-2.1,0-3.9-0.8-5.3-2.4c-1.4-1.6-2.2-3.5-2.2-5.8c0-2.3,0.7-4.2,2.2-5.8c1.5-1.6,3.2-2.4,5.3-2.4c1,0,2,0.2,3,0.7
	c0.9,0.5,1.6,1,2,1.8V123.4z M232.2,135.9c0.9,0,1.7-0.2,2.5-0.7c0.8-0.4,1.4-1,1.8-1.7v-4.8c-0.4-0.7-1-1.3-1.8-1.7
	c-0.8-0.4-1.6-0.7-2.5-0.7c-1.3,0-2.5,0.5-3.4,1.4c-0.9,0.9-1.4,2-1.4,3.4c0,1.4,0.5,2.5,1.4,3.4
	C229.7,135.5,230.8,135.9,232.2,135.9z M254.2,123.4h3.8l-8.8,21.1h-3.8l2.8-6.3l-6.2-14.8h3.8L250,134L254.2,123.4z M260.3,116.6
	h3.8l-0.1,15.9h-3.6L260.3,116.6z M262.3,139.3c-0.7,0-1.3-0.2-1.8-0.7c-0.5-0.5-0.7-1-0.7-1.7c0-0.7,0.2-1.3,0.7-1.7
	c0.5-0.5,1.1-0.7,1.8-0.7c0.7,0,1.3,0.2,1.8,0.7c0.5,0.5,0.7,1,0.7,1.7c0,0.7-0.2,1.2-0.7,1.7C263.5,139.1,263,139.3,262.3,139.3z"
	/>
</svg>
