<?xml version="1.0" encoding="utf-8"?>
<!-- Generator: Adobe Illustrator 28.1.0, SVG Export Plug-In . SVG Version: 6.00 Build 0)  -->
<svg version="1.1" id="Layer_1" xmlns="http://www.w3.org/2000/svg" xmlns:xlink="http://www.w3.org/1999/xlink" x="0px" y="0px"
	 viewBox="0 0 500 135.1" style="enable-background:new 0 0 500 135.1;" xml:space="preserve">
<style type="text/css">
	.st0{fill-rule:evenodd;clip-rule:evenodd;fill:#FFFFFF;}
	.st1{fill:#FFFFFF;}
	.st2{fill-rule:evenodd;clip-rule:evenodd;fill:#63EA71;}
	.st3{fill-rule:evenodd;clip-rule:evenodd;fill:#27B079;}
	.st4{fill-rule:evenodd;clip-rule:evenodd;fill:#08493C;}
</style>
<path class="st0" d="M241.1,41l4.5,12.3H256L235.6,0.4h-9.4l-20.3,52.9h10.3l4.5-12.3H241.1z M238.1,32.5h-14.2l7.1-19.4L238.1,32.5
	z"/>
<path class="st0" d="M261.1,15.2v53.5h9.2V49.2c2.1,2.9,6.2,4.8,10.8,4.8c11.2,0,18.4-8,18.4-19.7c0-11.6-6.7-19.7-17.7-19.7
	c-5.1,0-9.2,2.1-11.5,5.4v-4.8H261.1z M290.3,34.3c0,7-4.1,11.6-10.2,11.6c-6.3,0-10.4-4.6-10.4-11.6s4.1-11.6,10.4-11.6
	C286.2,22.6,290.3,27.2,290.3,34.3z"/>
<path class="st0" d="M341.1,40.6H332c-1,3.6-4.1,5.6-8.8,5.6c-5.9,0-9.8-3.9-10.5-10.1h28.1c0.1-0.8,0.2-1.9,0.2-3.2
	c0-9.1-5.7-18.4-18.5-18.4c-12.5,0-18.7,9.5-18.7,19.5c0,10,7,19.8,19.4,19.8C332.6,53.9,339.7,48.7,341.1,40.6z M312.9,30
	c1-5.7,4.3-8.5,9.5-8.5c5.5,0,8.8,3.6,9.2,8.5H312.9z"/>
<path class="st1" d="M222.1,86.1v44.3h10V86.1h16v-8.6h-42v8.6H222.1z"/>
<path class="st0" d="M281.3,117.7h-9.1c-1,3.6-4.1,5.6-8.8,5.6c-5.9,0-9.8-3.9-10.5-10.1H281c0.1-0.8,0.2-1.9,0.2-3.2
	c0-9.1-5.7-18.4-18.5-18.4c-12.5,0-18.7,9.5-18.7,19.5c0,10,7,19.8,19.4,19.8C272.7,131,279.9,125.8,281.3,117.7z M253.1,107.1
	c1-5.7,4.3-8.5,9.5-8.5c5.5,0,8.8,3.6,9.2,8.5H253.1z"/>
<path class="st1" d="M305.1,100h6v-7.8h-4.5c-4.9,0-7.9,1.9-9.8,6.7v-6.7h-9.3v38.1h9.3v-18C296.9,105.1,299.2,100,305.1,100z"/>
<path class="st1" d="M316.4,92.3v38.1h9.3v-21.9c0-5.4,3.1-8.9,8-8.9c4.5,0,7.3,3.6,7.3,8.9v21.9h9.2v-21.9c0-5.4,3.1-8.9,8.1-8.9
	c4.5,0,7.3,3.6,7.3,8.9v21.9h9.2v-24.7c0-8.1-5.3-14.1-13.5-14.1c-6,0-10.9,3.3-12.6,7.3c-1.7-4.7-5.8-7.3-11.9-7.3
	c-5.4,0-9.1,2.7-11,6.6v-6H316.4z"/>
<path class="st1" d="M392.7,75.9h-10v10.4h10V75.9z"/>
<path class="st1" d="M383.1,92.3v38.1h9.3V92.3H383.1z"/>
<path class="st1" d="M400.7,92.3v38.1h9.3v-20.8c0-5.6,3.6-9.7,8.8-9.7c4.8,0,7.9,3.6,7.9,8.8v21.6h9.3v-23.6
	c0-8.9-5.6-15.1-14.2-15.1c-5.4,0-9.8,2.3-11.9,6.5v-5.9H400.7z"/>
<path class="st0" d="M443,111.3c0,11.6,6.7,19.7,18.1,19.7c4.8,0,9.1-2,11-5.1v4.5h9.3V92.3h-9.3v4.3c-2.2-2.9-6.4-4.9-11.1-4.9
	C449.6,91.7,443,99.7,443,111.3z M472.7,111.3c0,7-4.1,11.6-10.4,11.6c-6.1,0-10.2-4.6-10.2-11.6s4.1-11.6,10.2-11.6
	C468.7,99.7,472.7,104.3,472.7,111.3z"/>
<path class="st1" d="M490.8,75.9v54.4h9.2V75.9H490.8z"/>
<path class="st2" d="M84.7,59.7H47.5l5-14.7l37.1,0L84.7,59.7z"/>
<path class="st3" d="M42.2,75.4h37.1l5.3-15.7H47.5L42.2,75.4z"/>
<path class="st4" d="M79.3,75.4l-5,14.7H37.1l5-14.7H79.3z"/>
<path class="st1" d="M21.8,135.1h37.1l15.4-45H37.1L21.8,135.1z"/>
<path class="st1" d="M0,90h37.1l15.4-45H15.4L0,90z"/>
<path class="st1" d="M89.7,45l-37.1,0L67.9,0h43.5l46.1,135.1h-37.1L105,90H74.3L89.7,45z"/>
</svg>
