<svg width="41" height="41" viewBox="0 0 41 41" fill="none" xmlns="http://www.w3.org/2000/svg">
<path d="M36.6903 5.63121C36.65 5.44339 36.5562 5.27121 36.4203 5.13538C36.2845 4.99954 36.1123 4.90583 35.9244 4.8655C33.9028 4.43243 32.3214 4.43243 30.7456 4.43243C24.2666 4.43243 20.3805 7.89695 17.4806 12.4661H10.9389C10.3802 12.4666 9.83264 12.6223 9.35737 12.9159C8.8821 13.2095 8.49782 13.6294 8.24746 14.1287L5.14483 20.3297C5.03025 20.5594 4.97629 20.8146 4.98808 21.071C4.99986 21.3274 5.07699 21.5766 5.21215 21.7948C5.34731 22.0131 5.53601 22.1932 5.76036 22.318C5.9847 22.4429 6.23723 22.5083 6.49399 22.5082H13.0088L11.5981 23.9185C11.2214 24.2951 11.0098 24.8059 11.0098 25.3385C11.0098 25.8711 11.2214 26.3819 11.5981 26.7585L14.7936 29.9538C14.9802 30.1403 15.2017 30.2883 15.4454 30.3893C15.6892 30.4902 15.9505 30.5422 16.2143 30.5422C16.4782 30.5422 16.7395 30.4902 16.9833 30.3893C17.227 30.2883 17.4485 30.1403 17.6351 29.9538L19.0458 28.5435V35.0608C19.0457 35.3174 19.1112 35.5698 19.236 35.794C19.3609 36.0182 19.541 36.2068 19.7592 36.3419C19.9774 36.477 20.2265 36.5541 20.4829 36.566C20.7393 36.5778 20.9945 36.524 21.2243 36.4096L27.4207 33.3097C27.921 33.0599 28.3417 32.6756 28.6356 32.2C28.9294 31.7243 29.0849 31.1762 29.0844 30.6172V24.0641C33.6417 21.1582 37.1204 17.2606 37.1204 10.8154C37.1266 9.23381 37.1266 7.65218 36.6903 5.63121ZM29.0907 14.9766C28.594 14.9766 28.1085 14.8294 27.6955 14.5535C27.2826 14.2777 26.9607 13.8856 26.7706 13.4268C26.5805 12.9681 26.5308 12.4633 26.6277 11.9763C26.7246 11.4893 26.9638 11.042 27.315 10.6909C27.6662 10.3398 28.1136 10.1007 28.6008 10.0038C29.0879 9.90695 29.5928 9.95667 30.0517 10.1467C30.5106 10.3367 30.9028 10.6585 31.1787 11.0713C31.4546 11.4842 31.6019 11.9696 31.6019 12.4661C31.6019 13.1319 31.3373 13.7705 30.8664 14.2413C30.3955 14.7121 29.7567 14.9766 29.0907 14.9766Z" fill="#AC42FF"/>
</svg>
