<svg width="19" height="19" viewBox="0 0 19 19" fill="none" xmlns="http://www.w3.org/2000/svg">
<path d="M9.50064 5.20384V10.6041M9.50064 13.0044L9.50829 14.0044M17.9994 9.6041C18.0131 8.47919 17.8035 7.36273 17.3825 6.31946C16.9616 5.27619 16.3377 4.32686 15.5471 3.52651C14.7565 2.72616 13.8149 2.09072 12.7768 1.65702C11.7388 1.22332 10.625 1 9.5 1C8.375 1 7.2612 1.22332 6.22316 1.65702C5.18512 2.09072 4.24351 2.72616 3.4529 3.52651C2.66229 4.32686 2.03843 5.27619 1.61748 6.31946C1.19653 7.36273 0.98686 8.47919 1.00064 9.6041C1.02803 11.8402 1.93555 13.9755 3.52651 15.5471C5.11747 17.1187 7.26369 18 9.5 18C11.7363 18 13.8825 17.1187 15.4735 15.5471C17.0645 13.9755 17.972 11.8402 17.9994 9.6041Z" stroke="#63EA71" stroke-linecap="round" stroke-linejoin="round"/>
</svg>
